<svg width="72" height="73" viewBox="0 0 72 73" fill="none"
  xmlns="http://www.w3.org/2000/svg">
  <path d="M67.8564 44.8341V37.1137C67.8564 24.721 61.4389 13.3103 49.1298 11.8736C45.8642 11.4924 42.1196 11.2554 37.8564 11.2554C33.5933 11.2554 29.8487 11.4924 26.5831 11.8736C14.274 13.3103 7.85645 24.721 7.85645 37.1137V44.8341C7.85645 57.8555 14.8969 69.6294 27.8638 70.8204C30.8181 71.0917 34.1403 71.2554 37.8564 71.2554C41.5726 71.2554 44.8948 71.0917 47.8491 70.8204C60.816 69.6294 67.8564 57.8555 67.8564 44.8341Z" fill="#655D5D"/>
  <path d="M67.8564 44.8341V37.1137C67.8564 24.721 61.4389 13.3103 49.1298 11.8736C45.8642 11.4924 42.1196 11.2554 37.8564 11.2554C33.5933 11.2554 29.8487 11.4924 26.5831 11.8736C14.274 13.3103 7.85645 24.721 7.85645 37.1137V44.8341C7.85645 57.8555 14.8969 69.6294 27.8638 70.8204C30.8181 71.0917 34.1403 71.2554 37.8564 71.2554C41.5726 71.2554 44.8948 71.0917 47.8491 70.8204C60.816 69.6294 67.8564 57.8555 67.8564 44.8341Z" fill="url(#paint0_linear_1_17224)"/>
  <path d="M72 44.7135V27.3472C72 14.9545 65.6672 3.49757 53.4307 1.53583C48.6764 0.773616 42.9049 0.255371 36 0.255371C29.0951 0.255371 23.3236 0.773618 18.5693 1.53583C6.33283 3.49757 0 14.9545 0 27.3472V44.7135C0 57.735 6.96319 69.5716 19.873 71.2729C24.3679 71.8652 29.7143 72.2554 36 72.2554C42.2857 72.2554 47.6321 71.8652 52.127 71.2729C65.0368 69.5716 72 57.7349 72 44.7135Z" fill="#E9E8E5"/>
  <path opacity="0.5" d="M14.321 21.8623C11.7968 26.0336 10.4448 30.9757 10.6977 36.2118C10.8646 39.6677 11.7151 42.9288 13.1121 45.8706M57.9901 22.197C59.9841 25.6101 61.2079 29.5408 61.4118 33.7623C61.6063 37.789 60.8516 41.6418 59.3446 45.1039" stroke="white" stroke-linecap="round" stroke-linejoin="round"/>
  <g opacity="0.5" clip-path="url(#clip0_1_17224)">
    <path d="M13.5443 54.0277C13.1922 53.4849 13.0321 52.9102 13.0001 52.3036C12.9681 51.697 13.1282 51.1224 13.4163 50.5796C13.7044 50.0369 14.1525 49.5899 14.6967 49.2706C15.561 48.7598 16.4253 48.6002 17.3536 48.7917C18.282 48.9833 18.9862 49.526 19.5304 50.3561C19.9786 51.0585 20.1386 51.7928 20.0106 52.5591C19.8825 53.3253 19.5624 53.9957 18.9542 54.5385L18.1859 53.2934C18.346 53.0699 18.474 52.8464 18.5701 52.591C18.6341 52.3356 18.6661 52.0802 18.6341 51.8248C18.6021 51.5693 18.506 51.3139 18.346 51.0904C18.0579 50.6115 17.6097 50.3242 17.0655 50.1965C16.5214 50.1007 15.9772 50.1965 15.465 50.5158C14.9528 50.835 14.6327 51.2501 14.4726 51.7928C14.3446 52.3356 14.4086 52.8464 14.6967 53.3253C14.9208 53.7084 15.2409 53.9638 15.625 54.0915C16.0092 54.2192 16.4253 54.2512 16.8415 54.1235L17.6097 55.3686C16.8095 55.6878 16.0412 55.7198 15.3049 55.4644C14.5687 55.2089 13.9925 54.7301 13.5443 54.0277Z" fill="white"/>
    <path d="M19.0184 58.2419L20.939 59.9659L20.0427 60.9875L17.0337 58.3057L21.5153 53.3252L22.6036 54.283L19.0184 58.2419Z" fill="white"/>
    <path d="M26.0288 63.6695C25.3246 63.893 24.6203 63.7972 23.9161 63.446C23.2118 63.0948 22.7317 62.5521 22.4756 61.8816C22.2195 61.2112 22.2835 60.5088 22.6356 59.8064L24.5243 56.071L25.8368 56.7415L23.9801 60.413C23.788 60.7642 23.756 61.1154 23.8521 61.4666C23.9481 61.7859 24.1722 62.0413 24.5243 62.2328C24.8764 62.4244 25.2285 62.4563 25.5487 62.3286C25.8688 62.2328 26.1249 61.9774 26.3169 61.6262L28.1736 57.9547L29.454 58.5932L27.5654 62.3286C27.2452 62.9991 26.7331 63.446 26.0288 63.6695Z" fill="white"/>
    <path d="M33.6474 62.552C33.9035 62.7435 34.0956 62.999 34.2236 63.3182C34.3517 63.6056 34.3517 63.9567 34.2876 64.3079C34.1916 64.8507 33.9035 65.2657 33.4553 65.5531C32.9752 65.8404 32.463 65.9681 31.8868 65.8723L29.0698 65.3934L30.2222 58.7847L32.9752 59.2636C33.5514 59.3593 33.9995 59.6148 34.3196 59.9979C34.6398 60.381 34.7678 60.828 34.6718 61.3069C34.6077 61.5942 34.5117 61.8496 34.3196 62.0731C34.1276 62.2327 33.9035 62.4243 33.6474 62.552ZM31.9828 64.4995C32.2069 64.5314 32.431 64.4995 32.591 64.4037C32.7511 64.276 32.8791 64.1164 32.9112 63.8929C32.9432 63.6694 32.9112 63.4779 32.7831 63.3182C32.6551 63.1586 32.495 63.0628 32.2389 62.999L30.9585 62.7755L30.7024 64.2441L31.9828 64.4995ZM33.1993 61.243C33.2313 61.1472 33.2313 61.0514 33.1993 60.9557C33.1672 60.8599 33.1352 60.796 33.1032 60.7003C33.0392 60.6364 32.9752 60.5725 32.9112 60.5087C32.8151 60.4448 32.7191 60.4129 32.6231 60.4129L31.4386 60.2214L31.1826 61.6261L32.367 61.8177C32.591 61.8496 32.7831 61.8177 32.9432 61.7219C33.0712 61.5942 33.1672 61.4346 33.1993 61.243Z" fill="white"/>
    <path d="M47.3159 63.7972L45.9074 64.2123L44.0187 60.1896L43.3465 64.9466L42.9944 65.0424L39.8253 61.4347L40.4335 65.8086L38.993 66.2236L38.0967 59.4872L39.5052 59.0721L42.4182 62.4883L42.9944 58.0186L44.4029 57.6035L47.3159 63.7972Z" fill="white"/>
    <path d="M53.1099 59.5829L51.9575 58.8486L49.8448 60.4769L50.261 61.7539L49.0445 62.6798L47.0278 55.7837L48.1162 54.9536L54.3904 58.5932L53.1099 59.5829ZM48.6604 56.7734L49.4287 59.1998L50.8051 58.1143L48.6604 56.7734Z" fill="white"/>
    <path d="M52.5978 49.6857L53.3981 48.5044L58.968 52.2398L58.2958 53.2295L53.11 53.4211L56.5992 55.7517L55.7989 56.933L50.229 53.1976L50.9653 52.1121L56.023 51.9524L52.5978 49.6857Z" fill="white"/>
    <path d="M18.73 15.9075L21.675 13.8642C22.2832 14.7263 22.5073 15.6521 22.3793 16.578C22.2512 17.5039 21.7711 18.2701 20.9388 18.8128C20.1385 19.3875 19.2422 19.5791 18.3459 19.4194C17.4175 19.2598 16.6813 18.749 16.1051 17.9508C15.5289 17.1207 15.3048 16.2587 15.4649 15.3329C15.6249 14.407 16.1051 13.6727 16.9054 13.098C17.6096 12.6191 18.3459 12.3956 19.1141 12.4276C19.9144 12.4595 20.5866 12.7468 21.1308 13.2896L19.9144 14.1516C19.6903 13.9919 19.4663 13.9281 19.2102 13.8642C18.9541 13.8004 18.698 13.8323 18.4419 13.8962C18.1858 13.96 17.9297 14.0558 17.7056 14.2154C17.2255 14.5666 16.9374 14.9817 16.8413 15.5244C16.7773 16.0672 16.9054 16.578 17.2575 17.0888C17.4816 17.44 17.7697 17.6635 18.0898 17.855C18.4099 18.0147 18.73 18.0785 19.0821 18.0785C19.4342 18.0466 19.7864 17.9189 20.1065 17.6954C20.3306 17.5358 20.5546 17.3442 20.6827 17.1207C20.8427 16.8972 20.9388 16.6738 21.0028 16.4184C21.0668 16.1629 21.0348 15.9395 21.0028 15.684L19.3702 16.8334L18.73 15.9075Z" fill="white"/>
    <path d="M27.405 15.5881C26.4446 15.9074 25.5163 15.8754 24.652 15.4604C23.7877 15.0454 23.2115 14.3749 22.8914 13.4171C22.5713 12.4593 22.6353 11.5654 23.0515 10.7353C23.4676 9.87328 24.1719 9.2986 25.1642 8.97934C25.8044 8.75586 26.4126 8.72393 27.0529 8.81971C27.6611 8.91549 28.2053 9.20282 28.6854 9.58594C29.1336 10.001 29.4857 10.5118 29.7098 11.1184C30.0299 12.0762 29.9979 12.9701 29.5497 13.8002C29.0696 14.6622 28.3653 15.2369 27.405 15.5881ZM26.9568 14.2791C27.341 14.1514 27.6291 13.9599 27.8851 13.6725C28.1412 13.3852 28.2693 13.0659 28.3653 12.7147C28.4293 12.3635 28.3973 11.9804 28.2693 11.5973C28.0772 11.0226 27.7251 10.6076 27.2129 10.3522C26.7007 10.0968 26.1565 10.0648 25.6124 10.2564C25.0362 10.448 24.62 10.7991 24.3959 11.31C24.1398 11.8208 24.1078 12.3635 24.2999 12.9382C24.492 13.5129 24.8441 13.9279 25.3563 14.1833C25.8684 14.4388 26.3806 14.4707 26.9568 14.2791Z" fill="white"/>
    <path d="M32.8789 12.8425L35.4398 12.5871L35.5679 13.928L31.5665 14.3431L30.9263 7.67043L32.3668 7.54272L32.8789 12.8425Z" fill="white"/>
    <path d="M39.5694 7.57464C40.5617 7.70234 41.33 8.11738 41.8742 8.81976C42.4184 9.52215 42.6425 10.3522 42.5464 11.31C42.4184 12.2678 42.0022 13.034 41.298 13.5768C40.5938 14.1195 39.7294 14.343 38.7691 14.2153L36.2402 13.8961L37.0405 7.25537L39.5694 7.57464ZM38.8651 12.8744C39.4413 12.9383 39.9215 12.8106 40.3377 12.4913C40.7538 12.172 40.9779 11.6931 41.0739 11.1185C41.1379 10.5438 41.0419 10.033 40.7218 9.61793C40.4017 9.20288 39.9535 8.94747 39.3773 8.88362L38.353 8.75591L37.8408 12.7148L38.8651 12.8744Z" fill="white"/>
    <path d="M44.7231 14.2155L47.252 15.1413L46.7718 16.4184L42.8984 15.0136L45.2032 8.72412L48.9806 10.097L48.5324 11.3421L46.0996 10.4481L45.6514 11.6933L47.8282 12.4914L47.38 13.7366L45.2032 12.9384L44.7231 14.2155Z" fill="white"/>
    <path d="M54.8387 13.4171L56.0231 14.1833L52.3739 19.8343L51.3495 19.1639L51.0934 13.9918L48.8206 17.5037L47.6362 16.7375L51.2855 11.1184L52.3739 11.8208L52.598 16.8652L54.8387 13.4171Z" fill="white"/>
  </g>
  <g filter="url(#filter0_d_1_17224)">
    <path d="M45.441 37.7234H41.4554L39.8893 39.4583H43.8749L45.441 37.7234Z" fill="white"/>
    <path d="M35.4631 42.5186L26.4754 32.6765H30.1398L35.4631 38.5058L40.7863 32.6765H44.4507L35.4631 42.5186Z" fill="white"/>
    <path d="M47.6315 35.1206H43.6459L42.0798 36.8555H46.0654L47.6315 35.1206Z" fill="white"/>
    <path d="M25.6641 37.7234H29.6497L31.2159 39.4583H27.2303L25.6641 37.7234Z" fill="white"/>
    <path d="M23.4736 35.1206H27.4592L29.0254 36.8555H25.0398L23.4736 35.1206Z" fill="white"/>
    <path d="M43.3359 40.2448H39.3503L37.7841 41.9797H41.7697L43.3359 40.2448Z" fill="white"/>
    <path d="M27.8546 40.2448H31.8402L33.4064 41.9797H29.4208L27.8546 40.2448Z" fill="white"/>
  </g>
  <g filter="url(#filter1_d_1_17224)">
    <path fill-rule="evenodd" clip-rule="evenodd" d="M35.5525 29.9922L32.4209 33.1238L35.5525 36.2553L38.6841 33.1238L35.5525 29.9922ZM35.5525 31.7761L34.2049 33.1236L35.5525 34.4712L36.9 33.1236L35.5525 31.7761Z" fill="white"/>
  </g>
  <g filter="url(#filter2_d_1_17224)">
    <path fill-rule="evenodd" clip-rule="evenodd" d="M36 19.2554C26.6112 19.2554 19 26.8665 19 36.2554C19 45.6442 26.6112 53.2554 36 53.2554C45.3888 53.2554 53 45.6442 53 36.2554C53 26.8665 45.3888 19.2554 36 19.2554ZM20.1268 36.2554C20.1268 33.8534 20.6603 31.5759 21.6153 29.5352L22.4858 29.9236C21.5836 31.8458 21.0795 33.9919 21.0795 36.2557C21.0795 38.518 21.5829 40.6627 22.484 42.5839L21.6138 42.9722C20.6597 40.9323 20.1268 38.6561 20.1268 36.2554ZM29.4334 49.2025L23.0534 42.8224C22.0513 40.8505 21.4864 38.6191 21.4864 36.2557C21.4864 33.8886 22.053 31.6539 23.0581 29.6797L29.4242 23.3136C31.3983 22.3086 33.6331 21.7419 36.0001 21.7419C38.3669 21.7419 40.6014 22.3084 42.5754 23.3133L48.9426 29.6804C49.9474 31.6544 50.5139 33.8889 50.5139 36.2557C50.5139 38.6188 49.9492 40.85 48.9473 42.8217L42.5661 49.2028C40.5944 50.2047 38.3632 50.7695 36.0001 50.7695C33.6368 50.7695 31.4053 50.2046 29.4334 49.2025ZM29.6688 49.7704L29.2806 50.6404C31.3211 51.5952 33.5983 52.1286 36 52.1286C38.4017 52.1286 40.6787 51.5952 42.7193 50.6405L42.3311 49.7706C40.4092 50.6724 38.2635 51.1764 36.0001 51.1764C33.7366 51.1764 31.5908 50.6723 29.6688 49.7704ZM49.5162 42.5841L50.3862 42.9723C51.3403 40.9324 51.8732 38.6561 51.8732 36.2554C51.8732 33.8533 51.3397 31.5758 50.3846 29.5351L49.5144 29.9234C50.4166 31.8456 50.9208 33.9918 50.9208 36.2557C50.9208 38.5181 50.4173 40.6629 49.5162 42.5841ZM42.3293 22.74L42.7177 21.8695C40.6776 20.9152 38.4011 20.3821 36 20.3821C33.5989 20.3821 31.3223 20.9153 29.2821 21.8696L29.6706 22.7402C31.5921 21.8387 33.7373 21.335 36.0001 21.335C38.2628 21.335 40.4079 21.8387 42.3293 22.74Z" fill="white"/>
  </g>
  <defs>
    <filter id="filter0_d_1_17224" x="23.0263" y="32.6765" width="25.0525" height="10.7368" filterUnits="userSpaceOnUse" color-interpolation-filters="sRGB">
      <feFlood flood-opacity="0" result="BackgroundImageFix"/>
      <feColorMatrix in="SourceAlpha" type="matrix" values="0 0 0 0 0 0 0 0 0 0 0 0 0 0 0 0 0 0 127 0" result="hardAlpha"/>
      <feOffset dy="0.447368"/>
      <feGaussianBlur stdDeviation="0.223684"/>
      <feColorMatrix type="matrix" values="0 0 0 0 0 0 0 0 0 0 0 0 0 0 0 0 0 0 0.18 0"/>
      <feBlend mode="normal" in2="BackgroundImageFix" result="effect1_dropShadow_1_17224"/>
      <feBlend mode="normal" in="SourceGraphic" in2="effect1_dropShadow_1_17224" result="shape"/>
    </filter>
    <filter id="filter1_d_1_17224" x="31.9735" y="29.9922" width="7.15792" height="7.15792" filterUnits="userSpaceOnUse" color-interpolation-filters="sRGB">
      <feFlood flood-opacity="0" result="BackgroundImageFix"/>
      <feColorMatrix in="SourceAlpha" type="matrix" values="0 0 0 0 0 0 0 0 0 0 0 0 0 0 0 0 0 0 127 0" result="hardAlpha"/>
      <feOffset dy="0.447368"/>
      <feGaussianBlur stdDeviation="0.223684"/>
      <feColorMatrix type="matrix" values="0 0 0 0 0 0 0 0 0 0 0 0 0 0 0 0 0 0 0.18 0"/>
      <feBlend mode="normal" in2="BackgroundImageFix" result="effect1_dropShadow_1_17224"/>
      <feBlend mode="normal" in="SourceGraphic" in2="effect1_dropShadow_1_17224" result="shape"/>
    </filter>
    <filter id="filter2_d_1_17224" x="18.5526" y="19.2554" width="34.8947" height="34.8947" filterUnits="userSpaceOnUse" color-interpolation-filters="sRGB">
      <feFlood flood-opacity="0" result="BackgroundImageFix"/>
      <feColorMatrix in="SourceAlpha" type="matrix" values="0 0 0 0 0 0 0 0 0 0 0 0 0 0 0 0 0 0 127 0" result="hardAlpha"/>
      <feOffset dy="0.447368"/>
      <feGaussianBlur stdDeviation="0.223684"/>
      <feColorMatrix type="matrix" values="0 0 0 0 0 0 0 0 0 0 0 0 0 0 0 0 0 0 0.18 0"/>
      <feBlend mode="normal" in2="BackgroundImageFix" result="effect1_dropShadow_1_17224"/>
      <feBlend mode="normal" in="SourceGraphic" in2="effect1_dropShadow_1_17224" result="shape"/>
    </filter>
    <linearGradient id="paint0_linear_1_17224" x1="67.8564" y1="-11.5816" x2="13.8728" y2="74.2033" gradientUnits="userSpaceOnUse">
      <stop stop-color="#FFECEA"/>
      <stop offset="0.297056" stop-color="#EEA69F"/>
      <stop offset="0.706" stop-color="#BE6459"/>
      <stop offset="1" stop-color="#451918"/>
    </linearGradient>
    <clipPath id="clip0_1_17224">
      <rect width="46" height="59" fill="white" transform="translate(13 7.25537)"/>
    </clipPath>
  </defs>
</svg>
  