<svg width="73" height="72" viewBox="0 0 73 72" fill="none"
  xmlns="http://www.w3.org/2000/svg">
  <path d="M72.1436 44.4581V27.0918C72.1436 14.6991 65.8107 3.2422 53.5743 1.28046C48.8199 0.518245 43.0485 0 36.1436 0C29.2386 0 23.4672 0.518247 18.7128 1.28046C6.47639 3.2422 0.143555 14.6991 0.143555 27.0918V44.4582C0.143555 57.4796 7.10674 69.3162 20.0166 71.0175C24.5115 71.6098 29.8579 72 36.1436 72C42.4293 72 47.7757 71.6098 52.2706 71.0175C65.1804 69.3162 72.1436 57.4796 72.1436 44.4581Z" fill="#54544D"/>
  <g clip-path="url(#clip0_1_17036)">
    <path d="M13.6917 52.7854C13.3371 52.2432 13.176 51.6692 13.1437 51.0632C13.1115 50.4573 13.2727 49.8832 13.5628 49.3411C13.8529 48.7989 14.3042 48.3524 14.8522 48.0335C15.7226 47.5232 16.593 47.3638 17.5278 47.5551C18.4626 47.7465 19.1718 48.2886 19.7198 49.1178C20.1389 49.8195 20.3323 50.553 20.2034 51.3184C20.0744 52.0838 19.7521 52.7535 19.1396 53.2957L18.3659 52.0519C18.5271 51.8286 18.6561 51.6054 18.7528 51.3503C18.8172 51.0951 18.8495 50.84 18.8172 50.5849C18.785 50.3297 18.6883 50.0746 18.5271 49.8513C18.237 49.373 17.7857 49.0859 17.2377 48.9584C16.6897 48.8627 16.1417 48.9584 15.6259 49.2773C15.1101 49.5962 14.7877 50.0108 14.6266 50.553C14.4976 51.0951 14.5621 51.6054 14.8522 52.0838C15.0779 52.4665 15.4002 52.7216 15.7871 52.8492C16.1739 52.9768 16.593 53.0086 17.012 52.8811L17.7857 54.1249C16.9798 54.4438 16.2061 54.4757 15.4647 54.2205C14.7233 53.9654 14.143 53.487 13.6917 52.7854Z" fill="url(#paint0_linear_1_17036)"/>
    <path d="M19.2041 56.9951L21.1382 58.7173L20.2356 59.7378L17.2054 57.0589L21.7185 52.0838L22.8145 53.0405L19.2041 56.9951Z" fill="url(#paint1_linear_1_17036)"/>
    <path d="M26.2637 62.3849C25.5546 62.6081 24.8454 62.5124 24.1362 62.1616C23.427 61.8108 22.9434 61.2687 22.6856 60.5989C22.4277 59.9292 22.4921 59.2276 22.8467 58.526L24.7487 54.7946L26.0703 55.4643L24.2006 59.1319C24.0072 59.4827 23.975 59.8335 24.0717 60.1843C24.1684 60.5032 24.3941 60.7584 24.7487 60.9497C25.1032 61.1411 25.4578 61.173 25.7802 61.0454C26.1026 60.9497 26.3604 60.6946 26.5539 60.3438L28.4236 56.6762L29.713 57.3141L27.8111 61.0454C27.4887 61.747 26.9729 62.1935 26.2637 62.3849Z" fill="url(#paint2_linear_1_17036)"/>
    <path d="M33.9359 61.2687C34.1938 61.46 34.3872 61.7151 34.5161 62.0341C34.6451 62.3211 34.6451 62.6719 34.5806 63.0227C34.4839 63.5649 34.1938 63.9795 33.7425 64.2665C33.2589 64.5535 32.7432 64.6811 32.1629 64.5854L29.3262 64.107L30.4867 57.5054L33.2589 57.9838C33.8392 58.0795 34.2905 58.3346 34.6129 58.7173C34.9352 59.1 35.0642 59.5465 34.9674 60.0249C34.903 60.3119 34.8063 60.567 34.6129 60.7903C34.4194 60.9816 34.1938 61.1411 33.9359 61.2687ZM32.2596 63.2141C32.4853 63.246 32.7109 63.2141 32.8721 63.1184C33.0333 62.9908 33.1622 62.8314 33.1945 62.6081C33.2267 62.3849 33.1945 62.1935 33.0655 62.0341C32.9366 61.8746 32.7754 61.7789 32.5175 61.7151L31.2281 61.4919L30.9702 62.9589L32.2596 63.2141ZM33.4846 59.9611C33.5168 59.8654 33.5168 59.7697 33.4846 59.6741C33.4524 59.5784 33.4201 59.5146 33.3879 59.4189C33.3234 59.3551 33.2589 59.2914 33.1945 59.2276C33.0978 59.1638 33.0011 59.1319 32.9044 59.1319L31.7116 58.9405L31.4537 60.3438L32.6465 60.5351C32.8721 60.567 33.0655 60.5351 33.2267 60.4395C33.3879 60.3438 33.4524 60.1843 33.4846 59.9611Z" fill="url(#paint3_linear_1_17036)"/>
    <path d="M47.7006 62.5443L46.2823 62.9589L44.3803 58.9406L43.7034 63.6924L43.3488 63.7881L40.1574 60.1843L40.7699 64.5535L39.3193 64.9681L38.4167 58.2389L39.8351 57.8243L42.7686 61.2368L43.3488 56.7719L44.7672 56.3573L47.7006 62.5443Z" fill="url(#paint4_linear_1_17036)"/>
    <path d="M53.5354 58.3346L52.3749 57.6011L50.2473 59.2276L50.6664 60.5033L49.4414 61.4281L47.4105 54.5395L48.5065 53.7103L54.8248 57.346L53.5354 58.3346ZM49.0546 55.5281L49.8282 57.9519L51.2144 56.8676L49.0546 55.5281Z" fill="url(#paint5_linear_1_17036)"/>
    <path d="M53.0196 48.4162L53.8255 47.2362L59.4345 50.9676L58.7576 51.9562L53.5353 52.1476L57.0491 54.4757L56.2432 55.6557L50.6341 51.9243L51.3755 50.84L56.4688 50.6805L53.0196 48.4162Z" fill="url(#paint6_linear_1_17036)"/>
    <path d="M20.2034 9.95459L21.4606 9.09351L23.5559 15.7908L22.4921 16.5243L19.0751 14.2919L20.01 18.2146L18.9462 18.9162L13.3694 14.5789L14.6588 13.7178L18.2692 16.6519L17.2377 12.0276L17.6567 11.7405L21.654 14.3557L20.2034 9.95459Z" fill="url(#paint7_linear_1_17036)"/>
    <path d="M28.7781 14.0049C27.7788 14.2919 26.8762 14.1962 26.0059 13.7497C25.1677 13.3033 24.5875 12.6016 24.2973 11.6449C24.0072 10.6881 24.1039 9.79515 24.5875 8.96596C25.071 8.13677 25.7802 7.59461 26.7795 7.30758C27.4242 7.11623 28.069 7.08434 28.6814 7.2438C29.2939 7.37137 29.8419 7.65839 30.261 8.10488C30.7123 8.51948 31.0347 9.06164 31.1958 9.69948C31.486 10.6562 31.3893 11.5492 30.9057 12.3784C30.4866 13.1757 29.7775 13.7179 28.7781 14.0049ZM28.3913 12.6973C28.7781 12.6016 29.1005 12.4103 29.3584 12.1233C29.6163 11.8681 29.7775 11.5492 29.8742 11.1984C29.9709 10.8476 29.9386 10.4649 29.8419 10.0822C29.6807 9.50812 29.3262 9.06164 28.8426 8.8065C28.3268 8.51948 27.8111 8.48758 27.2308 8.64704C26.6506 8.8065 26.2315 9.15731 25.9414 9.63569C25.6513 10.146 25.619 10.6881 25.7802 11.2622C25.9414 11.8362 26.296 12.2827 26.8118 12.5379C27.3275 12.793 27.8111 12.8568 28.3913 12.6973Z" fill="url(#paint8_linear_1_17036)"/>
    <path d="M36.1602 12.9843C35.1286 12.9843 34.2583 12.6335 33.5813 11.9638C32.9043 11.2941 32.5498 10.4649 32.5498 9.47622C32.5498 8.48757 32.9043 7.65838 33.5813 6.98865C34.2905 6.31892 35.1609 6 36.1924 6C36.8694 6 37.4818 6.15946 38.0299 6.47838C38.5779 6.7973 38.9969 7.21189 39.3193 7.72216C39.6417 8.26432 39.7706 8.83838 39.7706 9.50811C39.7706 10.4968 39.416 11.3259 38.7391 11.9957C38.0299 12.6654 37.1917 12.9843 36.1602 12.9843ZM36.1602 11.613C36.547 11.613 36.9338 11.5173 37.2562 11.3578C37.5786 11.1665 37.8364 10.9114 38.0299 10.5924C38.2233 10.2735 38.32 9.89081 38.32 9.50811C38.32 8.90216 38.1266 8.39189 37.7075 7.9773C37.2884 7.5627 36.8049 7.37135 36.1924 7.37135C35.5799 7.37135 35.0964 7.5627 34.6773 7.9773C34.2583 8.39189 34.0648 8.87027 34.0648 9.47622C34.0648 10.0822 34.2583 10.5924 34.6773 11.007C35.0642 11.4216 35.5477 11.613 36.1602 11.613Z" fill="url(#paint9_linear_1_17036)"/>
    <path d="M44.7672 7.30755C45.7342 7.56269 46.4112 8.10485 46.8625 8.87026C47.3138 9.63566 47.4105 10.4967 47.1526 11.4535C46.8947 12.3784 46.3467 13.08 45.5408 13.4946C44.7349 13.9411 43.8646 14.0049 42.8975 13.7497L40.4153 13.0481L42.2528 6.60593L44.7672 7.30755ZM43.2521 12.4421C43.8001 12.6016 44.3159 12.5378 44.7672 12.2827C45.2185 12.0276 45.5408 11.613 45.702 11.0389C45.8632 10.4649 45.831 9.95458 45.5731 9.50809C45.3152 9.06161 44.9284 8.74269 44.3481 8.58323L43.3488 8.2962L42.2528 12.1551L43.2521 12.4421Z" fill="url(#paint10_linear_1_17036)"/>
    <path d="M48.8934 14.6108L51.2466 15.8865L50.6019 17.0665L46.927 15.0892L50.1828 9.22109L53.761 11.1346L53.1163 12.3146L50.8275 11.1027L50.1828 12.2508L52.2459 13.367L51.6012 14.5151L49.5381 13.3989L48.8934 14.6108Z" fill="url(#paint11_linear_1_17036)"/>
    <path d="M59.0799 15.3443L60.1437 16.3011L55.6307 21.3081L54.7281 20.5108L55.2439 15.3762L52.4393 18.5016L51.3755 17.5449L55.8886 12.5378L56.8879 13.3989L56.3399 18.406L59.0799 15.3443Z" fill="url(#paint12_linear_1_17036)"/>
  </g>
  <g filter="url(#filter0_d_1_17036)">
    <path d="M36.1436 41L27.1436 32H30.813L36.1436 37.3305L41.4741 32H45.1436L36.1436 41Z" fill="url(#paint13_linear_1_17036)"/>
  </g>
  <g filter="url(#filter1_d_1_17036)">
    <path fill-rule="evenodd" clip-rule="evenodd" d="M36.1436 20C44.4278 20 51.1436 26.7157 51.1436 35C51.1436 43.2843 44.4278 50 36.1436 50C27.8593 50 21.1436 43.2843 21.1436 35C21.1436 26.7157 27.8593 20 36.1436 20ZM50.5007 35C50.5007 27.0708 44.0728 20.6429 36.1436 20.6429C28.2143 20.6429 21.7864 27.0708 21.7864 35C21.7864 42.9292 28.2143 49.3571 36.1436 49.3571C44.0728 49.3571 50.5007 42.9292 50.5007 35Z" fill="white"/>
    <path d="M36.1436 20.8929C43.9347 20.8929 50.2507 27.2088 50.2507 35H50.7507C50.7507 26.9327 44.2109 20.3929 36.1436 20.3929V20.8929ZM22.0364 35C22.0364 27.2088 28.3524 20.8929 36.1436 20.8929V20.3929C28.0763 20.3929 21.5364 26.9327 21.5364 35H22.0364ZM36.1436 20.25C44.2898 20.25 50.8936 26.8538 50.8936 35H51.3936C51.3936 26.5777 44.5659 19.75 36.1436 19.75V20.25ZM21.3936 35C21.3936 26.8538 27.9974 20.25 36.1436 20.25V19.75C27.7212 19.75 20.8936 26.5777 20.8936 35H21.3936ZM36.1436 49.6071C44.2109 49.6071 50.7507 43.0673 50.7507 35H50.2507C50.2507 42.7912 43.9347 49.1071 36.1436 49.1071V49.6071ZM21.5364 35C21.5364 43.0673 28.0763 49.6071 36.1436 49.6071V49.1071C28.3524 49.1071 22.0364 42.7912 22.0364 35H21.5364ZM36.1436 50.25C44.5659 50.25 51.3936 43.4223 51.3936 35H50.8936C50.8936 43.1462 44.2898 49.75 36.1436 49.75V50.25ZM20.8936 35C20.8936 43.4223 27.7212 50.25 36.1436 50.25V49.75C27.9974 49.75 21.3936 43.1462 21.3936 35H20.8936Z" fill="white"/>
    <path d="M36.1436 20.8929C43.9347 20.8929 50.2507 27.2088 50.2507 35H50.7507C50.7507 26.9327 44.2109 20.3929 36.1436 20.3929V20.8929ZM22.0364 35C22.0364 27.2088 28.3524 20.8929 36.1436 20.8929V20.3929C28.0763 20.3929 21.5364 26.9327 21.5364 35H22.0364ZM36.1436 20.25C44.2898 20.25 50.8936 26.8538 50.8936 35H51.3936C51.3936 26.5777 44.5659 19.75 36.1436 19.75V20.25ZM21.3936 35C21.3936 26.8538 27.9974 20.25 36.1436 20.25V19.75C27.7212 19.75 20.8936 26.5777 20.8936 35H21.3936ZM36.1436 49.6071C44.2109 49.6071 50.7507 43.0673 50.7507 35H50.2507C50.2507 42.7912 43.9347 49.1071 36.1436 49.1071V49.6071ZM21.5364 35C21.5364 43.0673 28.0763 49.6071 36.1436 49.6071V49.1071C28.3524 49.1071 22.0364 42.7912 22.0364 35H21.5364ZM36.1436 50.25C44.5659 50.25 51.3936 43.4223 51.3936 35H50.8936C50.8936 43.1462 44.2898 49.75 36.1436 49.75V50.25ZM20.8936 35C20.8936 43.4223 27.7212 50.25 36.1436 50.25V49.75C27.9974 49.75 21.3936 43.1462 21.3936 35H20.8936Z" fill="url(#paint14_linear_1_17036)"/>
  </g>
  <g filter="url(#filter2_d_1_17036)">
    <path d="M14.5591 20.5C11.7708 24.6424 10.1436 29.6312 10.1436 35C10.1436 38.5436 10.8525 41.9216 12.1362 45M59.2147 23C61.0858 26.59 62.1436 30.6715 62.1436 35C62.1436 39.1288 61.1812 43.0328 59.4685 46.5" stroke="url(#paint15_linear_1_17036)" stroke-linecap="round" stroke-linejoin="round"/>
  </g>
  <defs>
    <filter id="filter0_d_1_17036" x="26.6436" y="32" width="19" height="10" filterUnits="userSpaceOnUse" color-interpolation-filters="sRGB">
      <feFlood flood-opacity="0" result="BackgroundImageFix"/>
      <feColorMatrix in="SourceAlpha" type="matrix" values="0 0 0 0 0 0 0 0 0 0 0 0 0 0 0 0 0 0 127 0" result="hardAlpha"/>
      <feOffset dy="0.5"/>
      <feGaussianBlur stdDeviation="0.25"/>
      <feColorMatrix type="matrix" values="0 0 0 0 0 0 0 0 0 0 0 0 0 0 0 0 0 0 0.18 0"/>
      <feBlend mode="normal" in2="BackgroundImageFix" result="effect1_dropShadow_1_17036"/>
      <feBlend mode="normal" in="SourceGraphic" in2="effect1_dropShadow_1_17036" result="shape"/>
    </filter>
    <filter id="filter1_d_1_17036" x="20.3936" y="19.75" width="31.5" height="31.5" filterUnits="userSpaceOnUse" color-interpolation-filters="sRGB">
      <feFlood flood-opacity="0" result="BackgroundImageFix"/>
      <feColorMatrix in="SourceAlpha" type="matrix" values="0 0 0 0 0 0 0 0 0 0 0 0 0 0 0 0 0 0 127 0" result="hardAlpha"/>
      <feOffset dy="0.5"/>
      <feGaussianBlur stdDeviation="0.25"/>
      <feColorMatrix type="matrix" values="0 0 0 0 0 0 0 0 0 0 0 0 0 0 0 0 0 0 0.18 0"/>
      <feBlend mode="normal" in2="BackgroundImageFix" result="effect1_dropShadow_1_17036"/>
      <feBlend mode="normal" in="SourceGraphic" in2="effect1_dropShadow_1_17036" result="shape"/>
    </filter>
    <filter id="filter2_d_1_17036" x="9.14355" y="20" width="54" height="28" filterUnits="userSpaceOnUse" color-interpolation-filters="sRGB">
      <feFlood flood-opacity="0" result="BackgroundImageFix"/>
      <feColorMatrix in="SourceAlpha" type="matrix" values="0 0 0 0 0 0 0 0 0 0 0 0 0 0 0 0 0 0 127 0" result="hardAlpha"/>
      <feOffset dy="0.5"/>
      <feGaussianBlur stdDeviation="0.25"/>
      <feColorMatrix type="matrix" values="0 0 0 0 0 0 0 0 0 0 0 0 0 0 0 0 0 0 0.18 0"/>
      <feBlend mode="normal" in2="BackgroundImageFix" result="effect1_dropShadow_1_17036"/>
      <feBlend mode="normal" in="SourceGraphic" in2="effect1_dropShadow_1_17036" result="shape"/>
    </filter>
    <linearGradient id="paint0_linear_1_17036" x1="26.5" y1="9" x2="46.5" y2="65" gradientUnits="userSpaceOnUse">
      <stop stop-color="#E0DFCF"/>
      <stop offset="0.510417" stop-color="#D4D3BB"/>
      <stop offset="1" stop-color="#BBB9A1"/>
    </linearGradient>
    <linearGradient id="paint1_linear_1_17036" x1="26.5" y1="9" x2="46.5" y2="65" gradientUnits="userSpaceOnUse">
      <stop stop-color="#E0DFCF"/>
      <stop offset="0.510417" stop-color="#D4D3BB"/>
      <stop offset="1" stop-color="#BBB9A1"/>
    </linearGradient>
    <linearGradient id="paint2_linear_1_17036" x1="26.5" y1="9" x2="46.5" y2="65" gradientUnits="userSpaceOnUse">
      <stop stop-color="#E0DFCF"/>
      <stop offset="0.510417" stop-color="#D4D3BB"/>
      <stop offset="1" stop-color="#BBB9A1"/>
    </linearGradient>
    <linearGradient id="paint3_linear_1_17036" x1="26.5" y1="9" x2="46.5" y2="65" gradientUnits="userSpaceOnUse">
      <stop stop-color="#E0DFCF"/>
      <stop offset="0.510417" stop-color="#D4D3BB"/>
      <stop offset="1" stop-color="#BBB9A1"/>
    </linearGradient>
    <linearGradient id="paint4_linear_1_17036" x1="26.5" y1="9" x2="46.5" y2="65" gradientUnits="userSpaceOnUse">
      <stop stop-color="#E0DFCF"/>
      <stop offset="0.510417" stop-color="#D4D3BB"/>
      <stop offset="1" stop-color="#BBB9A1"/>
    </linearGradient>
    <linearGradient id="paint5_linear_1_17036" x1="26.5" y1="9" x2="46.5" y2="65" gradientUnits="userSpaceOnUse">
      <stop stop-color="#E0DFCF"/>
      <stop offset="0.510417" stop-color="#D4D3BB"/>
      <stop offset="1" stop-color="#BBB9A1"/>
    </linearGradient>
    <linearGradient id="paint6_linear_1_17036" x1="26.5" y1="9" x2="46.5" y2="65" gradientUnits="userSpaceOnUse">
      <stop stop-color="#E0DFCF"/>
      <stop offset="0.510417" stop-color="#D4D3BB"/>
      <stop offset="1" stop-color="#BBB9A1"/>
    </linearGradient>
    <linearGradient id="paint7_linear_1_17036" x1="26.5" y1="9" x2="46.5" y2="65" gradientUnits="userSpaceOnUse">
      <stop stop-color="#E0DFCF"/>
      <stop offset="0.510417" stop-color="#D4D3BB"/>
      <stop offset="1" stop-color="#BBB9A1"/>
    </linearGradient>
    <linearGradient id="paint8_linear_1_17036" x1="26.5" y1="9" x2="46.5" y2="65" gradientUnits="userSpaceOnUse">
      <stop stop-color="#E0DFCF"/>
      <stop offset="0.510417" stop-color="#D4D3BB"/>
      <stop offset="1" stop-color="#BBB9A1"/>
    </linearGradient>
    <linearGradient id="paint9_linear_1_17036" x1="26.5" y1="9" x2="46.5" y2="65" gradientUnits="userSpaceOnUse">
      <stop stop-color="#E0DFCF"/>
      <stop offset="0.510417" stop-color="#D4D3BB"/>
      <stop offset="1" stop-color="#BBB9A1"/>
    </linearGradient>
    <linearGradient id="paint10_linear_1_17036" x1="26.5" y1="9" x2="46.5" y2="65" gradientUnits="userSpaceOnUse">
      <stop stop-color="#E0DFCF"/>
      <stop offset="0.510417" stop-color="#D4D3BB"/>
      <stop offset="1" stop-color="#BBB9A1"/>
    </linearGradient>
    <linearGradient id="paint11_linear_1_17036" x1="26.5" y1="9" x2="46.5" y2="65" gradientUnits="userSpaceOnUse">
      <stop stop-color="#E0DFCF"/>
      <stop offset="0.510417" stop-color="#D4D3BB"/>
      <stop offset="1" stop-color="#BBB9A1"/>
    </linearGradient>
    <linearGradient id="paint12_linear_1_17036" x1="26.5" y1="9" x2="46.5" y2="65" gradientUnits="userSpaceOnUse">
      <stop stop-color="#E0DFCF"/>
      <stop offset="0.510417" stop-color="#D4D3BB"/>
      <stop offset="1" stop-color="#BBB9A1"/>
    </linearGradient>
    <linearGradient id="paint13_linear_1_17036" x1="36.1436" y1="32" x2="36.1436" y2="41" gradientUnits="userSpaceOnUse">
      <stop stop-color="#E0DFCF"/>
      <stop offset="0.510417" stop-color="#D4D3BB"/>
      <stop offset="1" stop-color="#BBB9A1"/>
    </linearGradient>
    <linearGradient id="paint14_linear_1_17036" x1="36.1436" y1="20" x2="36.1436" y2="50" gradientUnits="userSpaceOnUse">
      <stop stop-color="#E0DFCF"/>
      <stop offset="0.510417" stop-color="#D4D3BB"/>
      <stop offset="1" stop-color="#BBB9A1"/>
    </linearGradient>
    <linearGradient id="paint15_linear_1_17036" x1="36.1436" y1="20.5" x2="36.1436" y2="46.5" gradientUnits="userSpaceOnUse">
      <stop stop-color="#E0DFCF"/>
      <stop offset="0.510417" stop-color="#D4D3BB"/>
      <stop offset="1" stop-color="#BBB9A1"/>
    </linearGradient>
    <clipPath id="clip0_1_17036">
      <rect width="47" height="59" fill="white" transform="translate(13.1436 6)"/>
    </clipPath>
  </defs>
</svg>
  