<svg width="73" height="72" viewBox="0 0 73 72" fill="none"
  xmlns="http://www.w3.org/2000/svg">
  <path d="M72.1436 44.4581V27.0918C72.1436 14.6991 65.8107 3.24219 53.5743 1.28046C48.8199 0.518245 43.0485 0 36.1436 0C29.2386 0 23.4672 0.518247 18.7128 1.28046C6.47639 3.2422 0.143555 14.6991 0.143555 27.0918V44.4581C0.143555 57.4796 7.10675 69.3162 20.0166 71.0175C24.5115 71.6098 29.8579 72 36.1436 72C42.4293 72 47.7757 71.6098 52.2706 71.0175C65.1804 69.3162 72.1436 57.4796 72.1436 44.4581Z" fill="#E9E8E5"/>
  <path opacity="0.5" d="M12.7384 44.6043C11.4712 41.6043 10.764 38.3092 10.7482 34.8492C10.7286 30.5403 11.7836 26.4772 13.6616 22.914M58.9602 45.8582C60.617 42.4652 61.5393 38.6491 61.5209 34.6177C61.5071 31.5898 60.9638 28.6882 59.9791 26.0001" stroke="white" stroke-linecap="round" stroke-linejoin="round"/>
  <g opacity="0.5" clip-path="url(#clip0_1_17104)">
    <path d="M13.4347 53.5716C13.0796 53.02 12.9182 52.4359 12.8859 51.8193C12.8536 51.2028 13.015 50.6187 13.3055 50.067C13.5961 49.5154 14.048 49.0611 14.5967 48.7366C15.4683 48.2174 16.3398 48.0551 17.276 48.2498C18.2121 48.4445 18.9222 48.9962 19.471 49.8399C19.9229 50.5538 20.0843 51.3001 19.9552 52.0789C19.8261 52.8577 19.5033 53.5392 18.8899 54.0908L18.1152 52.8253C18.2766 52.5981 18.4057 52.371 18.5026 52.1114C18.5671 51.8518 18.5994 51.5922 18.5671 51.3326C18.5349 51.073 18.438 50.8134 18.2766 50.5862C17.9861 50.0995 17.5342 49.8074 16.9854 49.6776C16.4367 49.5803 15.8879 49.6776 15.3715 50.0021C14.855 50.3266 14.5322 50.7485 14.3708 51.3001C14.2417 51.8518 14.3062 52.371 14.5967 52.8577C14.8227 53.2471 15.1455 53.5067 15.5328 53.6365C15.9202 53.7663 16.3398 53.7988 16.7595 53.669L17.5342 54.9345C16.7272 55.259 15.9525 55.2915 15.2101 55.0319C14.4676 54.7723 13.8866 54.2855 13.4347 53.5716Z" fill="white"/>
    <path d="M18.9545 57.8874L20.8913 59.6397L19.9874 60.6781L16.9531 57.9523L21.4723 52.8901L22.5698 53.8636L18.9545 57.8874Z" fill="white"/>
    <path d="M26.0238 63.3715C25.3137 63.5987 24.6035 63.5013 23.8934 63.1444C23.1832 62.7874 22.699 62.2358 22.4408 61.5543C22.1825 60.8729 22.2471 60.159 22.6022 59.4451L24.5067 55.6484L25.8301 56.3299L23.9579 60.0616C23.7642 60.4186 23.732 60.7755 23.8288 61.1325C23.9256 61.457 24.1516 61.7166 24.5067 61.9113C24.8617 62.106 25.2168 62.1384 25.5396 62.0086C25.8624 61.9113 26.1207 61.6517 26.3143 61.2947L28.1866 57.563L29.4778 58.212L27.5732 62.0086C27.2504 62.6901 26.734 63.1444 26.0238 63.3715Z" fill="white"/>
    <path d="M33.7063 62.2358C33.9646 62.4305 34.1583 62.6901 34.2874 63.0146C34.4165 63.3067 34.4165 63.6636 34.3519 64.0206C34.2551 64.5722 33.9646 64.9941 33.5127 65.2861C33.0285 65.5782 32.512 65.708 31.9309 65.6106L29.0903 65.1239L30.2524 58.4067L33.0285 58.8935C33.6095 58.9908 34.0614 59.2504 34.3842 59.6398C34.707 60.0292 34.8361 60.4835 34.7393 60.9703C34.6747 61.2623 34.5779 61.5219 34.3842 61.7491C34.1905 61.9113 33.9646 62.106 33.7063 62.2358ZM31.9955 64.2153C32.2215 64.2477 32.4474 64.2153 32.6088 64.1179C32.7702 63.9881 32.8993 63.8259 32.9316 63.5987C32.9639 63.3716 32.9316 63.1769 32.8025 63.0146C32.6734 62.8524 32.512 62.755 32.2537 62.6901L30.9626 62.463L30.7043 63.9557L31.9955 64.2153ZM33.2544 60.9054C33.2867 60.808 33.2867 60.7107 33.2544 60.6133C33.2221 60.516 33.1899 60.4511 33.1576 60.3537C33.093 60.2888 33.0285 60.2239 32.9639 60.159C32.8671 60.0941 32.7702 60.0617 32.6734 60.0617L31.479 59.867L31.2208 61.2948L32.4151 61.4895C32.6411 61.5219 32.8348 61.4895 32.9962 61.3921C33.1576 61.2948 33.2221 61.1001 33.2544 60.9054Z" fill="white"/>
    <path d="M47.49 63.5014L46.0697 63.9232L44.1652 59.867L43.455 64.702L43.0999 64.7994L39.9042 61.1325L40.5176 65.5782L39.065 66L38.1611 59.1531L39.5814 58.7312L42.5189 62.2034L43.0999 57.6604L44.5202 57.2385L47.49 63.5014Z" fill="white"/>
    <path d="M53.3324 59.2179L52.1703 58.4716L50.0398 60.1265L50.4595 61.4245L49.2328 62.3656L47.1992 55.3564L48.2967 54.5127L54.6236 58.212L53.3324 59.2179ZM48.8455 56.3948L49.6202 58.861L51.0082 57.7577L48.8455 56.3948Z" fill="white"/>
    <path d="M52.8159 49.1584L53.6229 47.9578L59.2396 51.7544L58.5617 52.7604L53.3324 52.9551L56.8509 55.3239L56.0439 56.5246L50.4272 52.7279L51.1697 51.6246L56.2699 51.4624L52.8159 49.1584Z" fill="white"/>
    <path d="M14.0803 14.3071C14.8228 13.6581 15.662 13.3661 16.5659 13.431C17.4697 13.4959 18.2444 13.8853 18.89 14.6316C19.5356 15.378 19.7939 16.2217 19.7293 17.1303C19.6647 18.0389 19.2451 18.8177 18.4704 19.4667L16.5336 21.1541L12.1436 15.9945L14.0803 14.3071ZM17.5988 18.4607C18.0508 18.0713 18.2767 17.617 18.309 17.0978C18.3413 16.5786 18.1799 16.0594 17.7925 15.6051C17.4052 15.1508 16.9532 14.8912 16.4368 14.8588C15.9203 14.8263 15.4361 14.9886 14.9842 15.3455L14.1449 16.0594L16.7918 19.1422L17.5988 18.4607Z" fill="white"/>
    <path d="M21.9568 16.9032L18.5352 11.0298L19.7941 10.2834L23.2157 16.1569L21.9568 16.9032Z" fill="white"/>
    <path d="M28.5417 13.9178L27.6702 12.8794L25.1201 13.788V15.1509L23.6675 15.6701L23.8289 8.36883L25.1201 7.88208L30.0266 13.3337L28.5417 13.9178ZM25.1201 9.82908V12.4251L26.7986 11.8085L25.1201 9.82908Z" fill="white"/>
    <path d="M38.7419 12.7496L37.257 12.8145L36.3532 8.43375L34.5778 12.9767L34.2227 13.0092L31.9632 8.69335L31.5112 13.139L30.0264 13.2039L30.7365 6.35695L32.2214 6.29205L34.255 10.3483L35.869 6.0649L37.3216 6L38.7419 12.7496Z" fill="white"/>
    <path d="M42.4222 13.9504C41.4215 13.6908 40.6791 13.1391 40.1949 12.2954C39.7107 11.4517 39.5816 10.5431 39.8398 9.56961C40.0981 8.59611 40.6468 7.84976 41.4861 7.36301C42.3254 6.87626 43.2292 6.77891 44.2299 7.03851C44.8755 7.20076 45.4565 7.52526 45.9084 7.94711C46.3603 8.40141 46.6831 8.92061 46.8445 9.50471C47.0059 10.1213 47.0059 10.7378 46.8445 11.3868C46.5863 12.3603 46.0375 13.1067 45.1983 13.5934C44.359 14.1126 43.4229 14.21 42.4222 13.9504ZM42.7773 12.5875C43.1646 12.6848 43.552 12.6848 43.9071 12.5875C44.2621 12.4901 44.5849 12.2954 44.8432 12.0358C45.1014 11.7762 45.2951 11.4193 45.3919 11.0299C45.5533 10.4458 45.4888 9.89411 45.1983 9.37491C44.9077 8.85571 44.4881 8.53121 43.9071 8.40141C43.326 8.23916 42.7773 8.30406 42.2931 8.62856C41.8089 8.92061 41.4538 9.37491 41.3247 9.95901C41.1633 10.5431 41.2278 11.0948 41.5184 11.614C41.7766 12.1332 42.1962 12.4577 42.7773 12.5875Z" fill="white"/>
    <path d="M53.7198 11.3868L54.9464 12.1007L51.557 18.0066L50.4918 17.39L49.9753 12.1656L47.8448 15.8324L46.5859 15.0861L50.0076 9.21265L51.1697 9.8941L51.6539 14.9887L53.7198 11.3868Z" fill="white"/>
    <path d="M59.0783 15.7349C59.7884 16.4488 60.1435 17.2601 60.1435 18.1687C60.1435 19.0773 59.8207 19.8885 59.1106 20.57C58.4004 21.2514 57.6257 21.6084 56.6896 21.6084C55.7858 21.6084 54.9788 21.2514 54.2686 20.5375L52.4609 18.7203L57.2706 13.9177L59.0783 15.7349ZM55.237 19.564C55.6566 19.9859 56.1085 20.1806 56.6573 20.1806C57.1738 20.1806 57.658 19.9534 58.0776 19.5316C58.4973 19.1097 58.7232 18.623 58.7232 18.1038C58.7232 17.5846 58.5295 17.0978 58.1099 16.676L57.3675 15.9296L54.4946 18.7852L55.237 19.564Z" fill="white"/>
  </g>
  <g filter="url(#filter0_d_1_17104)">
    <path fill-rule="evenodd" clip-rule="evenodd" d="M19.0908 36C19.0908 26.6112 26.5017 19 35.6434 19C44.7852 19 52.1961 26.6112 52.1961 36C52.1961 45.3888 44.7852 53 35.6434 53C26.5017 53 19.0908 45.3888 19.0908 36ZM21.6373 29.2798C20.7074 31.3206 20.1879 33.598 20.1879 36C20.1879 38.4007 20.7069 40.6769 21.6358 42.7168L22.7059 42.2264L29.5788 49.2851L29.1009 50.385C31.0877 51.3398 33.3049 51.8732 35.6434 51.8732C37.9819 51.8732 40.1991 51.3399 42.1859 50.3851L41.708 49.2852L48.5809 42.2265L49.651 42.717C50.58 40.677 51.099 38.4008 51.099 36C51.099 33.5979 50.5795 31.3205 49.6495 29.2797L48.5808 29.7695L41.7079 22.7109L42.1844 21.6142C40.1979 20.6599 37.9813 20.1268 35.6434 20.1268C33.3055 20.1268 31.0888 20.6599 29.1024 21.6143L29.5789 22.7109L22.706 29.7696L21.6373 29.2798Z" fill="white"/>
  </g>
  <g filter="url(#filter1_d_1_17104)">
    <path d="M47.5322 38.9344H42.5619L40.6088 40.9101H45.5791L47.5322 38.9344Z" fill="white"/>
    <path d="M35.9227 43.4571L24.7146 32.249H29.2844L35.9227 38.8874L42.561 32.249H47.1308L35.9227 43.4571Z" fill="white"/>
    <path d="M50.2638 35.9703H45.2936L43.3405 37.946H48.3107L50.2638 35.9703Z" fill="white"/>
    <path d="M24.5066 38.9344H29.4768L31.4299 40.9101H26.4596L24.5066 38.9344Z" fill="white"/>
    <path d="M21.7749 35.9703H26.7451L28.6982 37.946H23.728L21.7749 35.9703Z" fill="white"/>
  </g>
  <g filter="url(#filter2_d_1_17104)">
    <path d="M31.9961 32.5725L35.7265 28.842L39.457 32.5725L35.7265 36.3029L31.9961 32.5725Z" fill="white"/>
  </g>
  <defs>
    <filter id="filter0_d_1_17104" x="18.6435" y="19" width="34.0002" height="34.8947" filterUnits="userSpaceOnUse" color-interpolation-filters="sRGB">
      <feFlood flood-opacity="0" result="BackgroundImageFix"/>
      <feColorMatrix in="SourceAlpha" type="matrix" values="0 0 0 0 0 0 0 0 0 0 0 0 0 0 0 0 0 0 127 0" result="hardAlpha"/>
      <feOffset dy="0.447368"/>
      <feGaussianBlur stdDeviation="0.223684"/>
      <feColorMatrix type="matrix" values="0 0 0 0 0 0 0 0 0 0 0 0 0 0 0 0 0 0 0.18 0"/>
      <feBlend mode="normal" in2="BackgroundImageFix" result="effect1_dropShadow_1_17104"/>
      <feBlend mode="normal" in="SourceGraphic" in2="effect1_dropShadow_1_17104" result="shape"/>
    </filter>
    <filter id="filter1_d_1_17104" x="21.3275" y="32.249" width="29.3835" height="12.1027" filterUnits="userSpaceOnUse" color-interpolation-filters="sRGB">
      <feFlood flood-opacity="0" result="BackgroundImageFix"/>
      <feColorMatrix in="SourceAlpha" type="matrix" values="0 0 0 0 0 0 0 0 0 0 0 0 0 0 0 0 0 0 127 0" result="hardAlpha"/>
      <feOffset dy="0.447368"/>
      <feGaussianBlur stdDeviation="0.223684"/>
      <feColorMatrix type="matrix" values="0 0 0 0 0 0 0 0 0 0 0 0 0 0 0 0 0 0 0.18 0"/>
      <feBlend mode="normal" in2="BackgroundImageFix" result="effect1_dropShadow_1_17104"/>
      <feBlend mode="normal" in="SourceGraphic" in2="effect1_dropShadow_1_17104" result="shape"/>
    </filter>
    <filter id="filter2_d_1_17104" x="31.5487" y="28.842" width="8.35567" height="8.35567" filterUnits="userSpaceOnUse" color-interpolation-filters="sRGB">
      <feFlood flood-opacity="0" result="BackgroundImageFix"/>
      <feColorMatrix in="SourceAlpha" type="matrix" values="0 0 0 0 0 0 0 0 0 0 0 0 0 0 0 0 0 0 127 0" result="hardAlpha"/>
      <feOffset dy="0.447368"/>
      <feGaussianBlur stdDeviation="0.223684"/>
      <feColorMatrix type="matrix" values="0 0 0 0 0 0 0 0 0 0 0 0 0 0 0 0 0 0 0.18 0"/>
      <feBlend mode="normal" in2="BackgroundImageFix" result="effect1_dropShadow_1_17104"/>
      <feBlend mode="normal" in="SourceGraphic" in2="effect1_dropShadow_1_17104" result="shape"/>
    </filter>
    <clipPath id="clip0_1_17104">
      <rect width="48" height="60" fill="white" transform="translate(12.1436 6)"/>
    </clipPath>
  </defs>
</svg>
  