<svg width="24" height="25" viewBox="0 0 24 25" fill="none"
  xmlns="http://www.w3.org/2000/svg">
  <g clip-path="url(#clip0_290_2620)">
    <path fill-rule="evenodd" clip-rule="evenodd" d="M17.9917 1.3828C20.4042 2.68722 21.8871 5.36606 23.0375 9.21236C24.1894 13.0386 24.4091 16.0809 23.0971 18.4939C21.7868 20.9037 19.1106 22.3867 15.2881 23.5375C11.4615 24.6895 8.41901 24.9093 6.00586 23.5972C3.59606 22.287 2.11306 19.6108 0.962247 15.7882C-0.18978 11.9617 -0.409591 8.91918 0.902512 6.50603C2.21279 4.09623 4.88898 2.61323 8.71151 1.46242C12.5344 0.311486 15.5775 0.0775353 17.9917 1.3828ZM17.0404 3.14212C15.3671 2.23739 13.0052 2.25844 9.28807 3.37751C5.57061 4.49669 3.57179 5.78369 2.65958 7.4614C1.74918 9.13575 1.75937 11.4982 2.87734 15.2117C3.99652 18.9291 5.28352 20.928 6.96123 21.8402C8.63558 22.7506 10.9981 22.7404 14.7115 21.6224C18.429 20.5032 20.4278 19.2162 21.34 17.5385C22.2504 15.8642 22.2402 13.5017 21.1222 9.78824L21.1217 9.7865C20.0022 6.04338 18.7151 4.04758 17.0404 3.14212Z" fill="#383636"/>
    <g clip-path="url(#clip1_290_2620)">
      <path fill-rule="evenodd" clip-rule="evenodd" d="M6.62353 8.68033C6.73967 8.44026 6.9469 8.25652 7.19915 8.16996L12.1108 6.48453C13.8151 5.89969 15.6761 6.77272 16.3157 8.45723C16.9948 10.2454 16.0358 12.2373 14.2145 12.8217L10.3472 14.0625L10.6122 14.8067L14.6785 13.5732C15.207 13.4129 15.7654 13.7113 15.9257 14.2399C16.086 14.7684 15.7875 15.3268 15.259 15.4871L11.2841 16.6929L11.7696 18.056C11.9549 18.5763 11.6834 19.1482 11.1631 19.3335C10.6428 19.5189 10.0708 19.2473 9.88553 18.7271L8.07378 13.6405C8.04437 13.5844 8.01864 13.5256 7.99698 13.4642L6.58066 9.44843C6.49195 9.19693 6.50739 8.92041 6.62353 8.68033ZM9.67578 12.1775L13.6035 10.9173C14.3338 10.683 14.7183 9.88425 14.446 9.16726C14.1895 8.49181 13.4433 8.14174 12.7599 8.37625L8.8052 9.73332L9.67578 12.1775Z" fill="#383636"/>
    </g>
  </g>
  <defs>
    <clipPath id="clip0_290_2620">
      <rect width="24" height="24" fill="white" transform="translate(0 0.5)"/>
    </clipPath>
    <clipPath id="clip1_290_2620">
      <rect width="12.252" height="13.1272" fill="white" transform="translate(4.03955 8.34766) rotate(-19.4274)"/>
    </clipPath>
  </defs>
</svg>
  