<svg width="73" height="72" viewBox="0 0 73 72" fill="none"
  xmlns="http://www.w3.org/2000/svg">
  <path d="M72.1436 44.4581V27.0918C72.1436 14.6991 65.8107 3.2422 53.5743 1.28046C48.8199 0.518245 43.0485 0 36.1436 0C29.2386 0 23.4672 0.518247 18.7128 1.28046C6.47639 3.2422 0.143555 14.6991 0.143555 27.0918V44.4582C0.143555 57.4796 7.10674 69.3162 20.0166 71.0175C24.5115 71.6098 29.8579 72 36.1436 72C42.4293 72 47.7757 71.6098 52.2706 71.0175C65.1804 69.3162 72.1436 57.4796 72.1436 44.4581Z" fill="#E9E8E5"/>
  <g opacity="0.5">
    <path d="M13.6879 52.7722C13.3358 52.2295 13.1757 51.6548 13.1437 51.0482C13.1117 50.4416 13.2717 49.8669 13.5598 49.3242C13.8479 48.7814 14.2961 48.3345 14.8403 48.0152C15.7046 47.5044 16.5689 47.3447 17.4972 47.5363C18.4255 47.7279 19.1298 48.2706 19.674 49.1007C20.1221 49.8031 20.2822 50.5374 20.1541 51.3036C20.0261 52.0699 19.706 52.7403 19.0978 53.2831L18.3295 52.0379C18.4895 51.8144 18.6176 51.591 18.7136 51.3355C18.7776 51.0801 18.8097 50.8247 18.7776 50.5693C18.7456 50.3139 18.6496 50.0585 18.4895 49.835C18.2014 49.3561 17.7533 49.0688 17.2091 48.9411C16.6649 48.8453 16.1207 48.9411 15.6085 49.2603C15.0964 49.5796 14.7763 49.9946 14.6162 50.5374C14.4882 51.0801 14.5522 51.591 14.8403 52.0699C15.0644 52.453 15.3845 52.7084 15.7686 52.8361C16.1527 52.9638 16.5689 52.9957 16.985 52.868L17.7533 54.1131C16.953 54.4324 16.1847 54.4643 15.4485 54.2089C14.7122 53.9535 14.136 53.4746 13.6879 52.7722Z" fill="white"/>
    <path d="M19.1618 56.9865L21.0825 58.7105L20.1861 59.7322L17.1771 57.0503L21.6587 52.0698L22.747 53.0276L19.1618 56.9865Z" fill="white"/>
    <path d="M26.1722 62.382C25.468 62.6055 24.7637 62.5097 24.0595 62.1586C23.3552 61.8074 22.8751 61.2646 22.619 60.5942C22.3629 59.9237 22.4269 59.2213 22.779 58.5189L24.6677 54.7836L25.9802 55.454L24.1235 59.1255C23.9314 59.4767 23.8994 59.8279 23.9955 60.1791C24.0915 60.4984 24.3156 60.7538 24.6677 60.9454C25.0198 61.1369 25.3719 61.1688 25.6921 61.0411C26.0122 60.9454 26.2683 60.6899 26.4603 60.3387L28.317 56.6672L29.5974 57.3057L27.7088 61.0411C27.3886 61.7435 26.8765 62.1905 26.1722 62.382Z" fill="white"/>
    <path d="M33.7909 61.2646C34.047 61.4562 34.239 61.7116 34.3671 62.0309C34.4951 62.3182 34.4951 62.6694 34.4311 63.0206C34.3351 63.5633 34.047 63.9784 33.5988 64.2657C33.1506 64.553 32.6065 64.6807 32.0303 64.585L29.2133 64.1061L30.3657 57.4973L33.1186 57.9762C33.6948 58.072 34.143 58.3274 34.4631 58.7105C34.7832 59.0936 34.9113 59.5406 34.8152 60.0195C34.7512 60.3068 34.6552 60.5622 34.4631 60.7857C34.271 60.9773 34.047 61.1369 33.7909 61.2646ZM32.1263 63.2121C32.3504 63.2441 32.5744 63.2121 32.7345 63.1163C32.8946 62.9886 33.0226 62.829 33.0546 62.6055C33.0866 62.382 33.0546 62.1905 32.9266 62.0309C32.7985 61.8712 32.6385 61.7754 32.3824 61.7116L31.1019 61.4881L30.8458 62.9567L32.1263 63.2121ZM33.3427 59.9556C33.3747 59.8599 33.3747 59.7641 33.3427 59.6683C33.3107 59.5725 33.2787 59.5087 33.2467 59.4129C33.1827 59.349 33.1186 59.2852 33.0546 59.2213C32.9586 59.1575 32.8625 59.1255 32.7665 59.1255L31.5821 58.934L31.326 60.3388L32.5104 60.5303C32.7345 60.5622 32.9266 60.5303 33.0866 60.4345C33.2467 60.3388 33.3107 60.1791 33.3427 59.9556Z" fill="white"/>
    <path d="M47.4596 62.5417L46.0511 62.9567L44.1625 58.934L43.4902 63.691L43.1381 63.7868L39.969 60.1791L40.5772 64.5531L39.1367 64.9681L38.2404 58.2316L39.6489 57.8166L42.5619 61.2327L43.1381 56.763L44.5466 56.348L47.4596 62.5417Z" fill="white"/>
    <path d="M53.2536 58.3274L52.1012 57.5931L49.9885 59.2213L50.4046 60.4984L49.1882 61.4243L47.1715 54.5282L48.2599 53.6981L54.5341 57.3377L53.2536 58.3274ZM48.8041 55.5179L49.5724 57.9443L50.9488 56.8588L48.8041 55.5179Z" fill="white"/>
    <path d="M52.7415 48.3983L53.5417 47.217L59.1117 50.9524L58.4394 51.9421L53.2536 52.1337L56.7429 54.4643L55.9426 55.6456L50.3726 51.9102L51.1089 50.8247L56.1667 50.6651L52.7415 48.3983Z" fill="white"/>
    <path d="M20.1221 13.7262C20.4422 13.6943 20.7623 13.7262 21.0504 13.8539C21.3385 13.9816 21.5946 14.2051 21.8187 14.4924C22.1388 14.9394 22.2349 15.4183 22.1068 15.9611C21.9788 16.5038 21.6907 16.9508 21.2105 17.27L18.8737 18.9302L14.9683 13.4708L17.2411 11.8745C17.7213 11.5552 18.2014 11.3956 18.7136 11.4594C19.2258 11.4914 19.6099 11.7148 19.898 12.1299C20.0581 12.3534 20.1541 12.6088 20.2182 12.8961C20.2502 13.1835 20.2182 13.4708 20.1221 13.7262ZM18.8737 13.1196C18.8097 13.0238 18.7456 12.96 18.6496 12.8961C18.5856 12.8323 18.4895 12.8003 18.3935 12.8003C18.2975 12.8003 18.2014 12.8003 18.1054 12.8003C18.0094 12.8323 17.9133 12.8642 17.8173 12.928L16.857 13.6624L17.6893 14.8117L18.6816 14.1093C18.8737 13.9816 18.9697 13.822 19.0017 13.6304C19.0337 13.4708 19.0017 13.2792 18.8737 13.1196ZM20.3142 16.2803C20.5063 16.1526 20.6343 15.9611 20.6663 15.7695C20.6983 15.5779 20.6663 15.3864 20.5383 15.1948C20.4102 15.0033 20.2502 14.9075 20.0581 14.8756C19.866 14.8436 19.674 14.9075 19.4819 15.0352L18.4255 15.7695L19.2898 16.9827L20.3142 16.2803Z" fill="white"/>
    <path d="M27.1005 14.2689L25.0198 12.6407L24.1555 13.0238L25.0198 15.1309L23.6753 15.6737L21.1145 9.47997L23.6113 8.45832C24.0275 8.29869 24.4436 8.23484 24.8277 8.26677C25.2439 8.29869 25.596 8.4264 25.9161 8.68181C26.2362 8.90529 26.4603 9.22456 26.6204 9.6396C26.7804 10.0227 26.8444 10.4378 26.7484 10.8209C26.6844 11.2359 26.4923 11.5871 26.2362 11.8745L28.573 13.6623L27.1005 14.2689ZM22.9711 10.1824L23.6433 11.7787L24.7317 11.3317C24.9878 11.204 25.1799 11.0444 25.3079 10.8528C25.4039 10.6293 25.4039 10.4058 25.3079 10.1824C25.2439 10.0227 25.1479 9.89501 25.0198 9.79923C24.8918 9.70345 24.7637 9.67153 24.6037 9.6396C24.4436 9.6396 24.2515 9.67153 24.0915 9.73538L22.9711 10.1824Z" fill="white"/>
    <path d="M32.3504 13.1835C31.326 13.3112 30.4297 13.1196 29.6614 12.5449C28.8932 11.9703 28.445 11.204 28.317 10.2143C28.1889 9.22458 28.413 8.33064 28.9892 7.59633C29.5654 6.8301 30.3657 6.38313 31.39 6.25543C32.0623 6.15965 32.6705 6.2235 33.2787 6.44698C33.8869 6.67047 34.3351 7.02166 34.7192 7.50056C35.1033 7.97945 35.3274 8.55413 35.4234 9.19265C35.5515 10.1824 35.3274 11.0444 34.7512 11.8106C34.175 12.5769 33.3747 13.0238 32.3504 13.1835ZM32.1583 11.8106C32.5424 11.7468 32.8946 11.6191 33.1827 11.3956C33.4708 11.1721 33.6948 10.8848 33.8229 10.5336C33.9509 10.1824 34.0149 9.79926 33.9509 9.41614C33.8549 8.80954 33.5988 8.33064 33.1506 7.97945C32.7025 7.62826 32.1903 7.50056 31.5821 7.59633C30.9739 7.69211 30.5257 7.94752 30.1736 8.39449C29.8215 8.84146 29.6934 9.38421 29.7895 9.99081C29.8855 10.5974 30.1416 11.0763 30.5898 11.3956C31.0379 11.7787 31.5821 11.9064 32.1583 11.8106Z" fill="white"/>
    <path d="M41.7296 6.57468L43.1381 6.76623L42.2098 13.4069L41.0254 13.2473L38.5925 8.68182L38.0163 12.8323L36.6079 12.6407L37.5362 6L38.8486 6.19156L41.2175 10.6293L41.7296 6.57468Z" fill="white"/>
    <path d="M45.4109 13.1515L48.0998 14.1731L47.6197 15.4183L42.882 13.5985L42.9461 13.4069L47.4276 9.60767L44.9628 8.64988L45.4429 7.40475L49.9245 9.12877L49.8284 9.38418L45.4109 13.1515Z" fill="white"/>
    <path d="M50.2126 15.4502L52.4854 16.8869L51.7491 18.0363L48.2599 15.8333L51.8452 10.1504L55.2383 12.2895L54.5341 13.4069L52.3573 12.0341L51.6531 13.1515L53.6058 14.3966L52.9015 15.5141L50.9488 14.2689L50.2126 15.4502Z" fill="white"/>
  </g>
  <g filter="url(#filter0_d_1_17190)">
    <path d="M23.4243 37.6514L28.9793 37.6514L31.1621 39.8595H25.6072L23.4243 37.6514Z" fill="white"/>
  </g>
  <g filter="url(#filter1_d_1_17190)">
    <path d="M49.3384 37.6514L43.7834 37.6514L41.6006 39.8595H47.1555L49.3384 37.6514Z" fill="white"/>
  </g>
  <g filter="url(#filter2_d_1_17190)">
    <path d="M36.3636 42.7062L23.8369 30.1795H28.9443L36.3636 37.5988L43.7829 30.1795H48.8903L36.3636 42.7062Z" fill="white"/>
    <path d="M32.1947 30.1693L36.364 26L40.5333 30.1693L36.364 34.3386L32.1947 30.1693Z" fill="white"/>
  </g>
  <g filter="url(#filter3_d_1_17190)">
    <path fill-rule="evenodd" clip-rule="evenodd" d="M36.4189 17C46.0839 17 53.9189 24.835 53.9189 34.5C53.9189 44.165 46.0839 52 36.4189 52C26.754 52 18.9189 44.165 18.9189 34.5C18.9189 24.835 26.754 17 36.4189 17ZM53.1689 34.5C53.1689 25.2492 45.6697 17.75 36.4189 17.75C27.1682 17.75 19.6689 25.2492 19.6689 34.5C19.6689 43.7508 27.1682 51.25 36.4189 51.25C45.6697 51.25 53.1689 43.7508 53.1689 34.5Z" fill="white"/>
    <path fill-rule="evenodd" clip-rule="evenodd" d="M36.4189 17C46.0839 17 53.9189 24.835 53.9189 34.5C53.9189 44.165 46.0839 52 36.4189 52C26.754 52 18.9189 44.165 18.9189 34.5C18.9189 24.835 26.754 17 36.4189 17ZM53.1689 34.5C53.1689 25.2492 45.6697 17.75 36.4189 17.75C27.1682 17.75 19.6689 25.2492 19.6689 34.5C19.6689 43.7508 27.1682 51.25 36.4189 51.25C45.6697 51.25 53.1689 43.7508 53.1689 34.5Z" stroke="white" stroke-width="0.471429"/>
  </g>
  <path opacity="0.5" d="M13.5561 19.7397C10.9212 23.9812 9.4774 29.0262 9.67369 34.3914C9.80325 37.9327 10.6352 41.2825 12.0306 44.3119M58.2733 20.6053C60.2744 24.1246 61.4807 28.1646 61.6389 32.4902C61.7899 36.6163 60.9709 40.5529 59.3861 44.0804" stroke="white" stroke-linecap="round" stroke-linejoin="round"/>
  <defs>
    <filter id="filter0_d_1_17190" x="22.9529" y="37.6514" width="8.68065" height="3.15111" filterUnits="userSpaceOnUse" color-interpolation-filters="sRGB">
      <feFlood flood-opacity="0" result="BackgroundImageFix"/>
      <feColorMatrix in="SourceAlpha" type="matrix" values="0 0 0 0 0 0 0 0 0 0 0 0 0 0 0 0 0 0 127 0" result="hardAlpha"/>
      <feOffset dy="0.471429"/>
      <feGaussianBlur stdDeviation="0.235714"/>
      <feColorMatrix type="matrix" values="0 0 0 0 0 0 0 0 0 0 0 0 0 0 0 0 0 0 0.18 0"/>
      <feBlend mode="normal" in2="BackgroundImageFix" result="effect1_dropShadow_1_17190"/>
      <feBlend mode="normal" in="SourceGraphic" in2="effect1_dropShadow_1_17190" result="shape"/>
    </filter>
    <filter id="filter1_d_1_17190" x="41.1292" y="37.6514" width="8.68065" height="3.15111" filterUnits="userSpaceOnUse" color-interpolation-filters="sRGB">
      <feFlood flood-opacity="0" result="BackgroundImageFix"/>
      <feColorMatrix in="SourceAlpha" type="matrix" values="0 0 0 0 0 0 0 0 0 0 0 0 0 0 0 0 0 0 127 0" result="hardAlpha"/>
      <feOffset dy="0.471429"/>
      <feGaussianBlur stdDeviation="0.235714"/>
      <feColorMatrix type="matrix" values="0 0 0 0 0 0 0 0 0 0 0 0 0 0 0 0 0 0 0.18 0"/>
      <feBlend mode="normal" in2="BackgroundImageFix" result="effect1_dropShadow_1_17190"/>
      <feBlend mode="normal" in="SourceGraphic" in2="effect1_dropShadow_1_17190" result="shape"/>
    </filter>
    <filter id="filter2_d_1_17190" x="23.3655" y="26" width="25.9961" height="17.6492" filterUnits="userSpaceOnUse" color-interpolation-filters="sRGB">
      <feFlood flood-opacity="0" result="BackgroundImageFix"/>
      <feColorMatrix in="SourceAlpha" type="matrix" values="0 0 0 0 0 0 0 0 0 0 0 0 0 0 0 0 0 0 127 0" result="hardAlpha"/>
      <feOffset dy="0.471429"/>
      <feGaussianBlur stdDeviation="0.235714"/>
      <feColorMatrix type="matrix" values="0 0 0 0 0 0 0 0 0 0 0 0 0 0 0 0 0 0 0.18 0"/>
      <feBlend mode="normal" in2="BackgroundImageFix" result="effect1_dropShadow_1_17190"/>
      <feBlend mode="normal" in="SourceGraphic" in2="effect1_dropShadow_1_17190" result="shape"/>
    </filter>
    <filter id="filter3_d_1_17190" x="18.2117" y="16.7644" width="36.4145" height="36.414" filterUnits="userSpaceOnUse" color-interpolation-filters="sRGB">
      <feFlood flood-opacity="0" result="BackgroundImageFix"/>
      <feColorMatrix in="SourceAlpha" type="matrix" values="0 0 0 0 0 0 0 0 0 0 0 0 0 0 0 0 0 0 127 0" result="hardAlpha"/>
      <feOffset dy="0.471429"/>
      <feGaussianBlur stdDeviation="0.235714"/>
      <feColorMatrix type="matrix" values="0 0 0 0 0 0 0 0 0 0 0 0 0 0 0 0 0 0 0.18 0"/>
      <feBlend mode="normal" in2="BackgroundImageFix" result="effect1_dropShadow_1_17190"/>
      <feBlend mode="normal" in="SourceGraphic" in2="effect1_dropShadow_1_17190" result="shape"/>
    </filter>
  </defs>
</svg>
  