<svg width="36" height="36" viewBox="0 0 36 36" fill="none"
  xmlns="http://www.w3.org/2000/svg">
  <path fill-rule="evenodd" clip-rule="evenodd" d="M18 0C8.05887 0 0 8.05887 0 18C0 27.9411 8.05887 36 18 36C27.9411 36 36 27.9411 36 18C36 8.05887 27.9411 0 18 0ZM19.4657 23.6819C19.2883 23.869 18.9417 23.9068 18.9417 23.9068H17.7942C17.7942 23.9068 15.2625 24.0561 13.0322 21.7774C10.6 19.2914 8.4523 14.3589 8.4523 14.3589C8.4523 14.3589 8.32834 14.0353 8.46263 13.8795C8.61382 13.7035 9.02607 13.6924 9.02607 13.6924L11.7691 13.6749C11.7691 13.6749 12.0274 13.7164 12.2123 13.85C12.3654 13.9606 12.4509 14.1662 12.4509 14.1662C12.4509 14.1662 12.8941 15.2668 13.481 16.2624C14.6276 18.2064 15.161 18.6314 15.5498 18.423C16.117 18.1198 15.947 15.6752 15.947 15.6752C15.947 15.6752 15.9574 14.7884 15.6616 14.393C15.4324 14.0869 15.0005 13.9975 14.8098 13.9726C14.6549 13.9524 14.9084 13.6002 15.2371 13.4426C15.7311 13.2057 16.6025 13.1919 17.6327 13.202C18.4356 13.2103 18.6666 13.2592 18.9802 13.3338C19.7082 13.5063 19.6855 14.0589 19.6364 15.2515C19.6217 15.6081 19.6047 16.0221 19.6047 16.5002C19.6047 16.6076 19.6015 16.7221 19.5983 16.84C19.5812 17.451 19.5617 18.1506 19.9719 18.4111C20.1823 18.5438 20.6959 18.4304 21.9815 16.2882C22.591 15.2724 23.0474 14.0786 23.0474 14.0786C23.0474 14.0786 23.1479 13.8657 23.3028 13.7744C23.4615 13.6813 23.6756 13.7099 23.6756 13.7099L26.5623 13.6924C26.5623 13.6924 27.43 13.5901 27.5699 13.9754C27.7174 14.3782 27.246 15.3203 26.0665 16.8634C24.9477 18.3275 24.4032 18.8666 24.4532 19.3433C24.4897 19.6917 24.8436 20.0068 25.5228 20.6252C26.9406 21.9173 27.3206 22.5971 27.4119 22.7604C27.4195 22.774 27.4251 22.784 27.4291 22.7905C28.0648 23.8257 26.7238 23.9068 26.7238 23.9068L24.1592 23.9418C24.1592 23.9418 23.6089 24.0487 22.884 23.5602C22.5042 23.3045 22.1331 22.8869 21.7797 22.4891C21.2399 21.8816 20.7412 21.3204 20.3156 21.453C19.601 21.676 19.6226 23.1868 19.6226 23.1868C19.6226 23.1868 19.6282 23.5104 19.4657 23.6819Z" fill="#5B8388"/>
</svg>
  