<svg width="36" height="36" viewBox="0 0 36 36" fill="none"
  xmlns="http://www.w3.org/2000/svg">
  <path fill-rule="evenodd" clip-rule="evenodd" d="M18 36C27.9411 36 36 27.9411 36 18C36 8.05887 27.9411 0 18 0C8.05887 0 0 8.05887 0 18C0 27.9411 8.05887 36 18 36ZM20.5106 12.2892L20.5509 12.2745H20.5252L20.5106 12.2892ZM15.548 12.2733C15.548 12.2733 13.4744 12.1952 11.2372 13.8233C11.2372 13.8233 9 17.6606 9 22.3913C9 22.3913 10.24 24.515 13.6404 24.5955C13.6404 24.5955 14.1371 23.945 14.6387 23.3726C12.7286 22.8014 11.9854 21.659 11.9854 21.659L12.6237 21.9836C12.7471 22.0337 12.8711 22.0847 12.9959 22.1361C14.7591 22.8613 16.6998 23.6595 19.987 23.126L20.0385 23.1146L20.0385 23.1146C20.7647 22.9537 21.492 22.7926 22.2181 22.4731C22.3513 22.4057 22.4931 22.3384 22.6423 22.2676C23.0342 22.0816 23.477 21.8714 23.95 21.5735C23.95 21.5735 23.2055 22.7159 21.216 23.2871C21.6261 23.8559 22.2022 24.5076 22.2022 24.5076C24.9893 24.4476 26.3801 23.0111 26.8326 22.5437C26.9324 22.4407 26.9866 22.3847 27 22.401C27 17.6777 24.7494 13.8331 24.7494 13.8331C22.738 12.3624 20.8584 12.2965 20.5033 12.2953L20.2762 12.5186C22.8454 13.2509 24.0891 14.3945 24.0891 14.3945C20.3617 12.5589 16.3352 12.4539 12.6481 13.9039C12.0683 14.1517 11.7364 14.314 11.7364 14.314C11.7364 14.314 12.9776 13.091 15.7152 12.4381L15.548 12.2733ZM22.345 19.2901C22.345 20.1932 21.6383 20.9255 20.7706 20.9255C19.9028 20.9255 19.1961 20.1932 19.1961 19.2974C19.1986 18.3942 19.9064 17.6644 20.7706 17.6644V17.6607C21.642 17.6607 22.345 18.393 22.345 19.2901ZM15.1343 20.9255C16.0021 20.9255 16.7087 20.1932 16.7087 19.2901C16.7087 18.393 16.0069 17.6607 15.1392 17.6607L15.1343 17.6644C14.2665 17.6644 13.5598 18.3942 13.5598 19.2974C13.5598 20.1932 14.2665 20.9255 15.1343 20.9255Z" fill="#5B8388"/>
</svg>
  