<svg width="73" height="72" viewBox="0 0 73 72" fill="none"
  xmlns="http://www.w3.org/2000/svg">
  <path d="M72.1436 44.4581V27.0918C72.1436 14.6991 65.8107 3.2422 53.5743 1.28046C48.8199 0.518245 43.0485 0 36.1436 0C29.2386 0 23.4672 0.518247 18.7128 1.28046C6.47639 3.2422 0.143555 14.6991 0.143555 27.0918V44.4582C0.143555 57.4796 7.10674 69.3162 20.0166 71.0175C24.5115 71.6098 29.8579 72 36.1436 72C42.4293 72 47.7757 71.6098 52.2706 71.0175C65.1804 69.3162 72.1436 57.4796 72.1436 44.4581Z" fill="#E9E8E5"/>
  <g opacity="0.5">
    <path d="M13.6879 53.7656C13.3358 53.2225 13.1757 52.6475 13.1437 52.0406C13.1117 51.4337 13.2717 50.8587 13.5598 50.3157C13.8479 49.7726 14.2961 49.3254 14.8403 49.006C15.7046 48.4949 16.5689 48.3351 17.4972 48.5268C18.4255 48.7185 19.1298 49.2615 19.674 50.092C20.1221 50.7948 20.2822 51.5295 20.1541 52.2962C20.0261 53.0628 19.706 53.7336 19.0978 54.2767L18.3295 53.0309C18.4895 52.8073 18.6176 52.5836 18.7136 52.3281C18.7776 52.0725 18.8097 51.817 18.7776 51.5615C18.7456 51.3059 18.6496 51.0504 18.4895 50.8267C18.2014 50.3476 17.7533 50.0601 17.2091 49.9323C16.6649 49.8365 16.1207 49.9323 15.6085 50.2518C15.0964 50.5712 14.7763 50.9865 14.6162 51.5295C14.4882 52.0725 14.5522 52.5837 14.8403 53.0628C15.0644 53.4461 15.3845 53.7017 15.7686 53.8295C16.1527 53.9572 16.5689 53.9892 16.985 53.8614L17.7533 55.1072C16.953 55.4266 16.1847 55.4586 15.4485 55.203C14.7122 54.9475 14.136 54.4683 13.6879 53.7656Z" fill="white"/>
    <path d="M19.1618 57.9821L21.0825 59.7071L20.1861 60.7293L17.1771 58.046L21.6587 53.0628L22.747 54.0211L19.1618 57.9821Z" fill="white"/>
    <path d="M26.1722 63.3806C25.468 63.6042 24.7637 63.5084 24.0595 63.157C23.3552 62.8056 22.8751 62.2626 22.619 61.5918C22.3629 60.9209 22.4269 60.2182 22.779 59.5154L24.6677 55.778L25.9802 56.4488L24.1235 60.1224C23.9314 60.4737 23.8994 60.8251 23.9955 61.1765C24.0915 61.4959 24.3156 61.7515 24.6677 61.9431C25.0198 62.1348 25.3719 62.1668 25.6921 62.039C26.0122 61.9431 26.2683 61.6876 26.4603 61.3362L28.317 57.6627L29.5974 58.3016L27.7088 62.039C27.3887 62.7417 26.8765 63.1889 26.1722 63.3806Z" fill="white"/>
    <path d="M33.7909 62.2626C34.047 62.4542 34.239 62.7098 34.3671 63.0292C34.4951 63.3167 34.4951 63.6681 34.4311 64.0195C34.3351 64.5625 34.047 64.9778 33.5988 65.2653C33.1506 65.5528 32.6065 65.6805 32.0303 65.5847L29.2133 65.1056L30.3657 58.4932L33.1186 58.9724C33.6948 59.0682 34.143 59.3238 34.4631 59.7071C34.7832 60.0904 34.9113 60.5376 34.8152 61.0168C34.7512 61.3043 34.6552 61.5598 34.4631 61.7834C34.271 61.9751 34.047 62.1348 33.7909 62.2626ZM32.1263 64.2111C32.3504 64.2431 32.5744 64.2111 32.7345 64.1153C32.8946 63.9875 33.0226 63.8278 33.0546 63.6042C33.0866 63.3806 33.0546 63.1889 32.9266 63.0292C32.7985 62.8695 32.6385 62.7737 32.3824 62.7098L31.1019 62.4862L30.8458 63.9556L32.1263 64.2111ZM33.3427 60.9529C33.3747 60.857 33.3747 60.7612 33.3427 60.6654C33.3107 60.5696 33.2787 60.5057 33.2467 60.4098C33.1827 60.346 33.1186 60.2821 33.0546 60.2182C32.9586 60.1543 32.8625 60.1223 32.7665 60.1223L31.5821 59.9307L31.326 61.3362L32.5104 61.5279C32.7345 61.5598 32.9266 61.5279 33.0866 61.432C33.2467 61.3362 33.3107 61.1765 33.3427 60.9529Z" fill="white"/>
    <path d="M47.4596 63.5403L46.0511 63.9556L44.1625 59.9307L43.4902 64.6903L43.1381 64.7861L39.969 61.1765L40.5772 65.5528L39.1367 65.9681L38.2404 59.2279L39.6489 58.8127L42.5619 62.2306L43.1381 57.7585L44.5466 57.3433L47.4596 63.5403Z" fill="white"/>
    <path d="M53.2536 59.3238L52.1012 58.5891L49.9885 60.2182L50.4046 61.4959L49.1882 62.4223L47.1715 55.5225L48.2599 54.6919L54.5341 58.3335L53.2536 59.3238ZM48.8041 56.5127L49.5724 58.9404L50.9488 57.8544L48.8041 56.5127Z" fill="white"/>
    <path d="M52.7415 49.3893L53.5417 48.2074L59.1117 51.9448L58.4394 52.935L53.2536 53.1267L56.7429 55.4586L55.9426 56.6405L50.3726 52.9031L51.1089 51.817L56.1667 51.6573L52.7415 49.3893Z" fill="white"/>
    <path d="M24.0595 16.7428C23.3552 17.0942 22.715 17.19 22.1068 17.0623C21.4986 16.9025 21.0184 16.5192 20.6983 15.8803L22.0108 15.2095C22.0748 15.3373 22.1708 15.4651 22.2989 15.5609C22.3949 15.6567 22.5229 15.6887 22.651 15.7206C22.779 15.7526 22.9071 15.7526 23.0351 15.7206C23.1632 15.6887 23.2912 15.6567 23.4513 15.5928C23.7074 15.4651 23.8994 15.2734 24.0275 15.0498C24.1555 14.8262 24.1555 14.6026 24.0595 14.379C24.0275 14.2832 23.9634 14.2193 23.8674 14.1554C23.7714 14.1234 23.7074 14.0915 23.6113 14.0595C23.5153 14.0595 23.4193 14.0595 23.2592 14.0595C23.0991 14.0915 23.0031 14.0915 22.9071 14.1234C22.811 14.1554 22.651 14.1873 22.4589 14.2193C22.2989 14.2512 22.2028 14.2832 22.1068 14.3151C22.0428 14.3151 21.9467 14.347 21.7867 14.347C21.6266 14.379 21.4986 14.379 21.4346 14.4109C21.3385 14.4109 21.2425 14.4109 21.0824 14.4109C20.9544 14.4109 20.8264 14.4109 20.7303 14.379C20.6343 14.347 20.5383 14.3151 20.4102 14.2832C20.2822 14.2512 20.1861 14.1873 20.0901 14.0915C19.9941 14.0276 19.898 13.9318 19.834 13.804C19.738 13.7082 19.674 13.5804 19.5779 13.4526C19.2898 12.8776 19.2578 12.3346 19.4819 11.8235C19.706 11.3124 20.1541 10.8971 20.8264 10.5457C21.4986 10.1944 22.1068 10.0985 22.683 10.2582C23.2272 10.418 23.6753 10.7693 23.9634 11.3763L22.683 12.0152C22.555 11.7596 22.3629 11.6318 22.1388 11.5999C21.9147 11.5679 21.6586 11.5999 21.4026 11.7277C21.1785 11.8554 20.9864 11.9832 20.8904 12.1749C20.7623 12.3665 20.7623 12.5262 20.8584 12.7179C20.8904 12.8137 20.9544 12.8776 21.0504 12.9096C21.1465 12.9415 21.2105 12.9735 21.2745 13.0054C21.3385 13.0054 21.4666 13.0054 21.5946 13.0054C21.7227 13.0054 21.8507 12.9735 21.9467 12.9415C22.0428 12.9096 22.1708 12.8776 22.3629 12.8457C22.555 12.8137 22.715 12.7499 22.8431 12.7499C22.9391 12.7179 23.0992 12.7179 23.2912 12.686C23.4833 12.654 23.6433 12.654 23.7714 12.654C23.8994 12.654 24.0275 12.686 24.2195 12.7179C24.3796 12.7499 24.5397 12.8137 24.6677 12.8776C24.7957 12.9415 24.9238 13.0693 25.0518 13.1971C25.1799 13.3248 25.2759 13.4846 25.3719 13.6762C25.596 14.0915 25.66 14.5068 25.596 14.8901C25.532 15.3054 25.3719 15.6567 25.1159 15.9442C24.8278 16.2637 24.5076 16.5192 24.0595 16.7428Z" fill="white"/>
    <path d="M27.1966 15.2415L25.1479 8.85272L26.5244 8.40551L28.5731 14.7942L27.1966 15.2415Z" fill="white"/>
    <path d="M31.0379 12.8457L33.5668 12.4304L33.7909 13.7721L29.8215 14.4429L28.7011 7.79859L30.1416 7.54304L31.0379 12.8457Z" fill="white"/>
    <path d="M38.1124 7.09583H39.7129L37.056 13.7721L35.6795 13.7401L33.1507 7L34.7512 7.03194L36.3838 11.7916L38.1124 7.09583Z" fill="white"/>
    <path d="M41.8577 13.0693L44.4506 13.7082L44.1305 15.0179L40.0971 14.0595L41.6656 7.54304L45.571 8.50135L45.2509 9.81104L42.754 9.20411L42.4339 10.4819L44.7067 11.0249L44.3866 12.3026L42.1138 11.7596L41.8577 13.0693Z" fill="white"/>
    <path d="M48.3559 16.9025L48.1639 14.2832L47.3316 13.8679L46.3392 15.9442L45.0268 15.3054L47.9398 9.23606L50.4047 10.418C50.7888 10.6096 51.1089 10.8652 51.365 11.1846C51.6211 11.5041 51.7491 11.8554 51.7811 12.2707C51.8131 12.654 51.7491 13.0374 51.5571 13.4526C51.365 13.8679 51.1089 14.1554 50.7568 14.347C50.4047 14.5707 50.0205 14.6665 49.6044 14.6665L49.8285 17.6053L48.3559 16.9025ZM48.644 11.0888L47.8758 12.654L48.9321 13.1651C49.1882 13.2929 49.4443 13.3249 49.6684 13.261C49.8925 13.1971 50.0525 13.0374 50.1806 12.8138C50.2446 12.654 50.2766 12.4943 50.2766 12.3665C50.2766 12.2068 50.2126 12.079 50.1166 11.9513C50.0205 11.8235 49.8605 11.7277 49.7004 11.6318L48.644 11.0888Z" fill="white"/>
  </g>
  <g filter="url(#filter0_d_1_17190)">
    <path d="M23.4243 37.6514L28.9793 37.6514L31.1621 39.8595H25.6072L23.4243 37.6514Z" fill="white"/>
  </g>
  <g filter="url(#filter1_d_1_17190)">
    <path d="M49.3384 37.6514L43.7834 37.6514L41.6006 39.8595H47.1555L49.3384 37.6514Z" fill="white"/>
  </g>
  <g filter="url(#filter2_d_1_17190)">
    <path d="M36.3636 42.7062L23.8369 30.1795H28.9443L36.3636 37.5988L43.7829 30.1795H48.8903L36.3636 42.7062Z" fill="white"/>
    <path d="M32.1947 30.1693L36.364 26L40.5333 30.1693L36.364 34.3386L32.1947 30.1693Z" fill="white"/>
  </g>
  <g filter="url(#filter3_d_1_17190)">
    <path fill-rule="evenodd" clip-rule="evenodd" d="M36.4189 17C46.0839 17 53.9189 24.835 53.9189 34.5C53.9189 44.165 46.0839 52 36.4189 52C26.754 52 18.9189 44.165 18.9189 34.5C18.9189 24.835 26.754 17 36.4189 17ZM53.1689 34.5C53.1689 25.2492 45.6697 17.75 36.4189 17.75C27.1682 17.75 19.6689 25.2492 19.6689 34.5C19.6689 43.7508 27.1682 51.25 36.4189 51.25C45.6697 51.25 53.1689 43.7508 53.1689 34.5Z" fill="white"/>
    <path fill-rule="evenodd" clip-rule="evenodd" d="M36.4189 17C46.0839 17 53.9189 24.835 53.9189 34.5C53.9189 44.165 46.0839 52 36.4189 52C26.754 52 18.9189 44.165 18.9189 34.5C18.9189 24.835 26.754 17 36.4189 17ZM53.1689 34.5C53.1689 25.2492 45.6697 17.75 36.4189 17.75C27.1682 17.75 19.6689 25.2492 19.6689 34.5C19.6689 43.7508 27.1682 51.25 36.4189 51.25C45.6697 51.25 53.1689 43.7508 53.1689 34.5Z" stroke="white" stroke-width="0.471429"/>
  </g>
  <defs xmlns="http://www.w3.org/2000/svg">
    <filter id="filter0_d_1_17190" x="22.9529" y="37.6514" width="8.68065" height="3.15111" filterUnits="userSpaceOnUse" color-interpolation-filters="sRGB">
      <feFlood flood-opacity="0" result="BackgroundImageFix"/>
      <feColorMatrix in="SourceAlpha" type="matrix" values="0 0 0 0 0 0 0 0 0 0 0 0 0 0 0 0 0 0 127 0" result="hardAlpha"/>
      <feOffset dy="0.471429"/>
      <feGaussianBlur stdDeviation="0.235714"/>
      <feColorMatrix type="matrix" values="0 0 0 0 0 0 0 0 0 0 0 0 0 0 0 0 0 0 0.18 0"/>
      <feBlend mode="normal" in2="BackgroundImageFix" result="effect1_dropShadow_1_17190"/>
      <feBlend mode="normal" in="SourceGraphic" in2="effect1_dropShadow_1_17190" result="shape"/>
    </filter>
    <filter id="filter1_d_1_17190" x="41.1292" y="37.6514" width="8.68065" height="3.15111" filterUnits="userSpaceOnUse" color-interpolation-filters="sRGB">
      <feFlood flood-opacity="0" result="BackgroundImageFix"/>
      <feColorMatrix in="SourceAlpha" type="matrix" values="0 0 0 0 0 0 0 0 0 0 0 0 0 0 0 0 0 0 127 0" result="hardAlpha"/>
      <feOffset dy="0.471429"/>
      <feGaussianBlur stdDeviation="0.235714"/>
      <feColorMatrix type="matrix" values="0 0 0 0 0 0 0 0 0 0 0 0 0 0 0 0 0 0 0.18 0"/>
      <feBlend mode="normal" in2="BackgroundImageFix" result="effect1_dropShadow_1_17190"/>
      <feBlend mode="normal" in="SourceGraphic" in2="effect1_dropShadow_1_17190" result="shape"/>
    </filter>
    <filter id="filter2_d_1_17190" x="23.3655" y="26" width="25.9961" height="17.6492" filterUnits="userSpaceOnUse" color-interpolation-filters="sRGB">
      <feFlood flood-opacity="0" result="BackgroundImageFix"/>
      <feColorMatrix in="SourceAlpha" type="matrix" values="0 0 0 0 0 0 0 0 0 0 0 0 0 0 0 0 0 0 127 0" result="hardAlpha"/>
      <feOffset dy="0.471429"/>
      <feGaussianBlur stdDeviation="0.235714"/>
      <feColorMatrix type="matrix" values="0 0 0 0 0 0 0 0 0 0 0 0 0 0 0 0 0 0 0.18 0"/>
      <feBlend mode="normal" in2="BackgroundImageFix" result="effect1_dropShadow_1_17190"/>
      <feBlend mode="normal" in="SourceGraphic" in2="effect1_dropShadow_1_17190" result="shape"/>
    </filter>
    <filter id="filter3_d_1_17190" x="18.2117" y="16.7644" width="36.4145" height="36.414" filterUnits="userSpaceOnUse" color-interpolation-filters="sRGB">
      <feFlood flood-opacity="0" result="BackgroundImageFix"/>
      <feColorMatrix in="SourceAlpha" type="matrix" values="0 0 0 0 0 0 0 0 0 0 0 0 0 0 0 0 0 0 127 0" result="hardAlpha"/>
      <feOffset dy="0.471429"/>
      <feGaussianBlur stdDeviation="0.235714"/>
      <feColorMatrix type="matrix" values="0 0 0 0 0 0 0 0 0 0 0 0 0 0 0 0 0 0 0.18 0"/>
      <feBlend mode="normal" in2="BackgroundImageFix" result="effect1_dropShadow_1_17190"/>
      <feBlend mode="normal" in="SourceGraphic" in2="effect1_dropShadow_1_17190" result="shape"/>
    </filter>
  </defs>
</svg>
  