<svg width="24" height="25" viewBox="0 0 24 25" fill="none"
  xmlns="http://www.w3.org/2000/svg">
  <path d="M21 7.4999H8C7.4 7.4999 7 7.0999 7 6.4999C7 5.8999 7.4 5.4999 8 5.4999H21C21.6 5.4999 22 5.8999 22 6.4999C22 7.0999 21.6 7.4999 21 7.4999Z" fill="#383636"/>
  <path d="M21 13.4999H8C7.4 13.4999 7 13.0999 7 12.4999C7 11.8999 7.4 11.4999 8 11.4999H21C21.6 11.4999 22 11.8999 22 12.4999C22 13.0999 21.6 13.4999 21 13.4999Z" fill="#383636"/>
  <path d="M21 19.4999H8C7.4 19.4999 7 19.0999 7 18.4999C7 17.8999 7.4 17.4999 8 17.4999H21C21.6 17.4999 22 17.8999 22 18.4999C22 19.0999 21.6 19.4999 21 19.4999Z" fill="#383636"/>
  <path d="M3 7.4999C2.9 7.4999 2.9 7.4999 2.8 7.4999C2.7 7.4999 2.7 7.4999 2.6 7.3999C2.5 7.3999 2.5 7.2999 2.4 7.2999C2.3 7.2999 2.3 7.1999 2.3 7.1999C2.2 7.0999 2.1 6.9999 2.1 6.8999C2 6.7999 2 6.5999 2 6.4999C2 6.3999 2 6.1999 2.1 6.0999C2.2 5.9999 2.2 5.8999 2.3 5.7999C2.6 5.4999 3 5.3999 3.4 5.5999C3.5 5.6999 3.6 5.6999 3.7 5.7999C3.9 5.9999 4 6.1999 4 6.4999C4 6.7999 3.9 6.9999 3.7 7.1999C3.5 7.3999 3.3 7.4999 3 7.4999Z" fill="#383636"/>
  <path d="M3 13.4999C2.7 13.4999 2.5 13.3999 2.3 13.1999C2.1 12.9999 2 12.7999 2 12.4999C2 12.3999 2 12.3999 2 12.2999C2 12.1999 2 12.1999 2.1 12.0999C2.1 11.9999 2.2 11.9999 2.2 11.8999C2.2 11.7999 2.3 11.7999 2.3 11.7999C2.4 11.6999 2.5 11.5999 2.6 11.5999C3 11.3999 3.4 11.4999 3.7 11.7999L3.8 11.8999C3.8 11.9999 3.9 11.9999 3.9 12.0999C3.9 12.1999 3.9 12.1999 4 12.2999C4 12.3999 4 12.3999 4 12.4999C4 12.7999 3.9 12.9999 3.7 13.1999C3.5 13.3999 3.3 13.4999 3 13.4999Z" fill="#383636"/>
  <path d="M3 19.4999C2.7 19.4999 2.5 19.3999 2.3 19.1999C2.1 18.9999 2 18.7999 2 18.4999C2 18.3999 2 18.1999 2.1 18.0999C2.2 17.9999 2.2 17.8999 2.3 17.7999C2.7 17.3999 3.3 17.3999 3.7 17.7999C3.9 17.9999 4 18.1999 4 18.4999C4 18.7999 3.9 18.9999 3.7 19.1999C3.5 19.3999 3.3 19.4999 3 19.4999Z" fill="#383636"/>
</svg>
  