<svg width="16" height="16" viewBox="0 0 16 16" fill="none"
  xmlns="http://www.w3.org/2000/svg">
  <path fill-rule="evenodd" clip-rule="evenodd" d="M13.6658 2.33416C12.887 1.55528 11.6242 1.55528 10.8453 2.33416L1.75 11.4294V14.25H4.57057L13.6658 5.15472C14.4447 4.37585 14.4447 3.11304 13.6658 2.33416ZM9.78462 1.2735C11.1493 -0.0911666 13.3618 -0.0911654 14.7265 1.2735C16.0912 2.63816 16.0912 4.85072 14.7265 6.21538L5.41156 15.5303C5.2709 15.671 5.08014 15.75 4.88123 15.75H1C0.585786 15.75 0.25 15.4142 0.25 15V11.1188C0.25 10.9199 0.329018 10.7291 0.46967 10.5884L9.78462 1.2735Z" fill="#383636"/>
</svg>
  