<svg width="90" height="90" viewBox="0 0 90 90" fill="none"
  xmlns="http://www.w3.org/2000/svg">
  <path d="M90 55.5727V33.8647C90 18.3739 82.084 4.05274 66.7884 1.60057C60.8455 0.647806 53.6312 0 45 0C36.3688 0 29.1545 0.647809 23.2116 1.60057C7.91604 4.05275 0 18.3739 0 33.8647V55.5727C0 71.8495 8.70399 86.6453 24.8413 88.7719C30.4599 89.5123 37.1429 90 45 90C52.8571 90 59.5401 89.5123 65.1587 88.7719C81.296 86.6453 90 71.8495 90 55.5727Z" fill="#57788B"/>
  <mask id="path-2-inside-1_1_17046" fill="white">
    <path d="M19.1841 65.4823C18.7598 64.8473 18.5594 64.1702 18.5079 63.4523C18.4565 62.7344 18.6305 62.0499 18.9549 61.4004C19.2793 60.7509 19.7931 60.2112 20.4221 59.8205C21.4211 59.1957 22.4282 58.9869 23.5183 59.1928C24.6083 59.3986 25.4444 60.0255 26.1 60.9965C26.6028 61.8192 26.8443 62.6847 26.7123 63.5954C26.5802 64.506 26.2213 65.3076 25.5225 65.9644L24.5953 64.5068C24.7774 64.2384 24.922 63.9707 25.0284 63.666C25.0974 63.3619 25.1289 63.0586 25.0856 62.7568C25.0423 62.4549 24.9241 62.1545 24.7318 61.8934C24.3838 61.3326 23.8531 61.0024 23.2137 60.8635C22.5751 60.7624 21.9409 60.8883 21.3493 61.2781C20.7577 61.668 20.3929 62.167 20.2182 62.8136C20.081 63.4595 20.1676 64.0632 20.5156 64.624C20.7865 65.0728 21.1667 65.3681 21.6189 65.5106C22.0711 65.6532 22.5585 65.6815 23.0422 65.5208L23.9693 66.9784C23.0408 67.3748 22.1431 67.4301 21.2762 67.1443C20.4093 66.8584 19.7244 66.3042 19.1841 65.4823Z"/>
    <path d="M25.6835 70.3881L27.9694 72.3869L26.9447 73.6176L23.3639 70.5089L28.4901 64.5067L29.785 65.6166L25.6835 70.3881Z"/>
    <path d="M34.0063 76.6207C33.1878 76.9015 32.362 76.804 31.5304 76.404C30.6987 76.004 30.1246 75.3719 29.8097 74.5835C29.4947 73.795 29.5534 72.9615 29.949 72.1213L32.0716 67.6531L33.622 68.4175L31.5353 72.8094C31.3188 73.2298 31.2895 73.6466 31.4099 74.0604C31.5295 74.4365 31.7975 74.734 32.2137 74.9529C32.6299 75.1718 33.0424 75.2016 33.4138 75.043C33.786 74.9223 34.0796 74.6139 34.2961 74.1935L36.3827 69.8016L37.8949 70.5289L35.7723 74.9972C35.4134 75.7987 34.8247 76.3399 34.0063 76.6207Z"/>
    <path d="M42.8902 75.1235C43.1941 75.3446 43.4246 75.6428 43.5817 76.0181C43.7381 76.3556 43.7462 76.7717 43.6794 77.1892C43.5796 77.8343 43.2523 78.3326 42.7348 78.6832C42.1799 79.0345 41.5839 79.1975 40.9078 79.0971L37.6024 78.5939L38.7978 70.7384L42.0283 71.2431C42.7043 71.3434 43.2343 71.6358 43.6175 72.0824C44.0007 72.529 44.1607 73.0556 44.0595 73.6251C43.9912 73.967 43.8848 74.2717 43.6654 74.5409C43.4452 74.7722 43.1868 74.9664 42.8902 75.1235ZM40.9885 77.4686C41.2513 77.5013 41.5126 77.4584 41.6975 77.3412C41.8818 77.1863 42.0278 76.9943 42.0601 76.7288C42.0924 76.4633 42.0506 76.2371 41.8971 76.0509C41.7437 75.8647 41.5543 75.7549 41.2534 75.6851L39.7508 75.4494L39.4852 77.1951L40.9885 77.4686ZM42.336 73.583C42.3712 73.4688 42.369 73.3553 42.3293 73.2426C42.2897 73.1298 42.2508 73.0549 42.2111 72.9422C42.1348 72.868 42.0585 72.7938 41.9821 72.7196C41.8683 72.6462 41.7553 72.6105 41.643 72.6127L40.2535 72.4127L39.9863 74.0827L41.3759 74.2827C41.6387 74.3154 41.8625 74.2733 42.0475 74.1561C42.2325 74.039 42.3029 73.8106 42.336 73.583Z"/>
    <path d="M58.904 76.2876L57.2664 76.8113L54.9657 72.1265L54.2892 77.7774L53.8796 77.8988L50.0903 73.697L50.9024 78.8648L49.2274 79.3893L48.0239 71.4292L49.6615 70.9054L53.1469 74.8861L53.7177 69.5779L55.3553 69.0541L58.904 76.2876Z"/>
    <path d="M65.5828 71.1632L64.2181 70.3195L61.7849 72.2965L62.301 73.7999L60.8998 74.9244L58.3824 66.8007L59.6361 65.7925L67.0574 69.9615L65.5828 71.1632ZM60.3151 67.9738L61.2695 70.8309L62.8543 69.5136L60.3151 67.9738Z"/>
    <path d="M64.7556 59.4498L65.6643 58.0322L72.2642 62.3307L71.5009 63.5185L65.4407 63.8634L69.5749 66.5451L68.6663 67.9627L62.0663 63.6642L62.9024 62.3615L68.8135 62.0573L64.7556 59.4498Z"/>
    <path d="M31.6436 20.6303L28.4311 13.3524L29.9901 12.641L33.1652 19.9196L31.6436 20.6303Z"/>
    <path d="M38.7497 18.2218L36.6084 15.9554L35.5653 16.2405L36.2158 18.8765L34.576 19.2867L32.5908 11.5688L35.684 10.7897C36.1684 10.6668 36.6551 10.6573 37.144 10.7613C37.5954 10.8661 38.0116 11.085 38.3177 11.4196C38.6613 11.7534 38.8565 12.1658 38.9784 12.6553C39.1003 13.1448 39.0724 13.6372 38.9315 14.094C38.7906 14.5508 38.5359 14.9341 38.1674 15.244L40.5752 17.7322L38.7497 18.2218ZM34.6351 12.702L35.1234 14.6978L36.4277 14.3698C36.7632 14.2876 37.0223 14.1312 37.1676 13.9013C37.3129 13.6715 37.3819 13.3674 37.3012 13.0663C37.26 12.8779 37.1815 12.6903 37.0295 12.5797C36.915 12.4684 36.7631 12.3579 36.5752 12.3237C36.3872 12.2895 36.1626 12.2939 35.9388 12.3361L34.6351 12.702Z"/>
    <path d="M44.9956 17.7976C43.7969 17.7831 42.8155 17.3859 42.0139 16.607C41.2123 15.828 40.818 14.8141 40.8327 13.6408C40.8473 12.4676 41.2399 11.4762 42.0488 10.7037C42.8577 9.93127 43.8611 9.53338 45.0598 9.54789C45.8459 9.53259 46.5616 9.74569 47.2054 10.1115C47.8491 10.4774 48.3454 10.9596 48.6948 11.596C49.0442 12.2325 49.2454 12.9474 49.2227 13.7046C49.2081 14.8778 48.8154 15.8692 48.0073 16.6795C47.1977 17.4142 46.1943 17.8121 44.9956 17.7976ZM45.0014 16.1705C45.4506 16.1617 45.8984 16.0773 46.2683 15.8431C46.639 15.6467 46.9326 15.3383 47.1498 14.9557C47.3671 14.5731 47.4713 14.1549 47.4617 13.6632C47.4477 12.9446 47.2488 12.3431 46.7526 11.8608C46.2938 11.3779 45.6896 11.1248 45.0158 11.1379C44.3045 11.1517 43.71 11.3903 43.2321 11.8537C42.7543 12.317 42.504 12.9273 42.518 13.6459C42.532 14.3645 42.7684 14.9653 43.2272 15.4483C43.7234 15.9305 44.2901 16.1843 45.0014 16.1705Z"/>
    <path d="M56.9718 11.6242L58.5537 12.0853L56.3806 19.7328L55.0248 19.3429L52.9655 13.594L51.5975 18.3502L49.9782 17.8898L52.1513 10.2423L53.6201 10.6678L55.6023 16.3048L56.9718 11.6242Z"/>
  </mask>
  <path d="M19.1841 65.4823C18.7598 64.8473 18.5594 64.1702 18.5079 63.4523C18.4565 62.7344 18.6305 62.0499 18.9549 61.4004C19.2793 60.7509 19.7931 60.2112 20.4221 59.8205C21.4211 59.1957 22.4282 58.9869 23.5183 59.1928C24.6083 59.3986 25.4444 60.0255 26.1 60.9965C26.6028 61.8192 26.8443 62.6847 26.7123 63.5954C26.5802 64.506 26.2213 65.3076 25.5225 65.9644L24.5953 64.5068C24.7774 64.2384 24.922 63.9707 25.0284 63.666C25.0974 63.3619 25.1289 63.0586 25.0856 62.7568C25.0423 62.4549 24.9241 62.1545 24.7318 61.8934C24.3838 61.3326 23.8531 61.0024 23.2137 60.8635C22.5751 60.7624 21.9409 60.8883 21.3493 61.2781C20.7577 61.668 20.3929 62.167 20.2182 62.8136C20.081 63.4595 20.1676 64.0632 20.5156 64.624C20.7865 65.0728 21.1667 65.3681 21.6189 65.5106C22.0711 65.6532 22.5585 65.6815 23.0422 65.5208L23.9693 66.9784C23.0408 67.3748 22.1431 67.4301 21.2762 67.1443C20.4093 66.8584 19.7244 66.3042 19.1841 65.4823Z" fill="url(#paint0_linear_1_17046)"/>
  <path d="M25.6835 70.3881L27.9694 72.3869L26.9447 73.6176L23.3639 70.5089L28.4901 64.5067L29.785 65.6166L25.6835 70.3881Z" fill="url(#paint1_linear_1_17046)"/>
  <path d="M34.0063 76.6207C33.1878 76.9015 32.362 76.804 31.5304 76.404C30.6987 76.004 30.1246 75.3719 29.8097 74.5835C29.4947 73.795 29.5534 72.9615 29.949 72.1213L32.0716 67.6531L33.622 68.4175L31.5353 72.8094C31.3188 73.2298 31.2895 73.6466 31.4099 74.0604C31.5295 74.4365 31.7975 74.734 32.2137 74.9529C32.6299 75.1718 33.0424 75.2016 33.4138 75.043C33.786 74.9223 34.0796 74.6139 34.2961 74.1935L36.3827 69.8016L37.8949 70.5289L35.7723 74.9972C35.4134 75.7987 34.8247 76.3399 34.0063 76.6207Z" fill="url(#paint2_linear_1_17046)"/>
  <path d="M42.8902 75.1235C43.1941 75.3446 43.4246 75.6428 43.5817 76.0181C43.7381 76.3556 43.7462 76.7717 43.6794 77.1892C43.5796 77.8343 43.2523 78.3326 42.7348 78.6832C42.1799 79.0345 41.5839 79.1975 40.9078 79.0971L37.6024 78.5939L38.7978 70.7384L42.0283 71.2431C42.7043 71.3434 43.2343 71.6358 43.6175 72.0824C44.0007 72.529 44.1607 73.0556 44.0595 73.6251C43.9912 73.967 43.8848 74.2717 43.6654 74.5409C43.4452 74.7722 43.1868 74.9664 42.8902 75.1235ZM40.9885 77.4686C41.2513 77.5013 41.5126 77.4584 41.6975 77.3412C41.8818 77.1863 42.0278 76.9943 42.0601 76.7288C42.0924 76.4633 42.0506 76.2371 41.8971 76.0509C41.7437 75.8647 41.5543 75.7549 41.2534 75.6851L39.7508 75.4494L39.4852 77.1951L40.9885 77.4686ZM42.336 73.583C42.3712 73.4688 42.369 73.3553 42.3293 73.2426C42.2897 73.1298 42.2508 73.0549 42.2111 72.9422C42.1348 72.868 42.0585 72.7938 41.9821 72.7196C41.8683 72.6462 41.7553 72.6105 41.643 72.6127L40.2535 72.4127L39.9863 74.0827L41.3759 74.2827C41.6387 74.3154 41.8625 74.2733 42.0475 74.1561C42.2325 74.039 42.3029 73.8106 42.336 73.583Z" fill="url(#paint3_linear_1_17046)"/>
  <path d="M58.904 76.2876L57.2664 76.8113L54.9657 72.1265L54.2892 77.7774L53.8796 77.8988L50.0903 73.697L50.9024 78.8648L49.2274 79.3893L48.0239 71.4292L49.6615 70.9054L53.1469 74.8861L53.7177 69.5779L55.3553 69.0541L58.904 76.2876Z" fill="url(#paint4_linear_1_17046)"/>
  <path d="M65.5828 71.1632L64.2181 70.3195L61.7849 72.2965L62.301 73.7999L60.8998 74.9244L58.3824 66.8007L59.6361 65.7925L67.0574 69.9615L65.5828 71.1632ZM60.3151 67.9738L61.2695 70.8309L62.8543 69.5136L60.3151 67.9738Z" fill="url(#paint5_linear_1_17046)"/>
  <path d="M64.7556 59.4498L65.6643 58.0322L72.2642 62.3307L71.5009 63.5185L65.4407 63.8634L69.5749 66.5451L68.6663 67.9627L62.0663 63.6642L62.9024 62.3615L68.8135 62.0573L64.7556 59.4498Z" fill="url(#paint6_linear_1_17046)"/>
  <path d="M31.6436 20.6303L28.4311 13.3524L29.9901 12.641L33.1652 19.9196L31.6436 20.6303Z" fill="url(#paint7_linear_1_17046)"/>
  <path d="M38.7497 18.2218L36.6084 15.9554L35.5653 16.2405L36.2158 18.8765L34.576 19.2867L32.5908 11.5688L35.684 10.7897C36.1684 10.6668 36.6551 10.6573 37.144 10.7613C37.5954 10.8661 38.0116 11.085 38.3177 11.4196C38.6613 11.7534 38.8565 12.1658 38.9784 12.6553C39.1003 13.1448 39.0724 13.6372 38.9315 14.094C38.7906 14.5508 38.5359 14.9341 38.1674 15.244L40.5752 17.7322L38.7497 18.2218ZM34.6351 12.702L35.1234 14.6978L36.4277 14.3698C36.7632 14.2876 37.0223 14.1312 37.1676 13.9013C37.3129 13.6715 37.3819 13.3674 37.3012 13.0663C37.26 12.8779 37.1815 12.6903 37.0295 12.5797C36.915 12.4684 36.7631 12.3579 36.5752 12.3237C36.3872 12.2895 36.1626 12.2939 35.9388 12.3361L34.6351 12.702Z" fill="url(#paint8_linear_1_17046)"/>
  <path d="M44.9956 17.7976C43.7969 17.7831 42.8155 17.3859 42.0139 16.607C41.2123 15.828 40.818 14.8141 40.8327 13.6408C40.8473 12.4676 41.2399 11.4762 42.0488 10.7037C42.8577 9.93127 43.8611 9.53338 45.0598 9.54789C45.8459 9.53259 46.5616 9.74569 47.2054 10.1115C47.8491 10.4774 48.3454 10.9596 48.6948 11.596C49.0442 12.2325 49.2454 12.9474 49.2227 13.7046C49.2081 14.8778 48.8154 15.8692 48.0073 16.6795C47.1977 17.4142 46.1943 17.8121 44.9956 17.7976ZM45.0014 16.1705C45.4506 16.1617 45.8984 16.0773 46.2683 15.8431C46.639 15.6467 46.9326 15.3383 47.1498 14.9557C47.3671 14.5731 47.4713 14.1549 47.4617 13.6632C47.4477 12.9446 47.2488 12.3431 46.7526 11.8608C46.2938 11.3779 45.6896 11.1248 45.0158 11.1379C44.3045 11.1517 43.71 11.3903 43.2321 11.8537C42.7543 12.317 42.504 12.9273 42.518 13.6459C42.532 14.3645 42.7684 14.9653 43.2272 15.4483C43.7234 15.9305 44.2901 16.1843 45.0014 16.1705Z" fill="url(#paint9_linear_1_17046)"/>
  <path d="M56.9718 11.6242L58.5537 12.0853L56.3806 19.7328L55.0248 19.3429L52.9655 13.594L51.5975 18.3502L49.9782 17.8898L52.1513 10.2423L53.6201 10.6678L55.6023 16.3048L56.9718 11.6242Z" fill="url(#paint10_linear_1_17046)"/>
  <path d="M19.1841 65.4823C18.7598 64.8473 18.5594 64.1702 18.5079 63.4523C18.4565 62.7344 18.6305 62.0499 18.9549 61.4004C19.2793 60.7509 19.7931 60.2112 20.4221 59.8205C21.4211 59.1957 22.4282 58.9869 23.5183 59.1928C24.6083 59.3986 25.4444 60.0255 26.1 60.9965C26.6028 61.8192 26.8443 62.6847 26.7123 63.5954C26.5802 64.506 26.2213 65.3076 25.5225 65.9644L24.5953 64.5068C24.7774 64.2384 24.922 63.9707 25.0284 63.666C25.0974 63.3619 25.1289 63.0586 25.0856 62.7568C25.0423 62.4549 24.9241 62.1545 24.7318 61.8934C24.3838 61.3326 23.8531 61.0024 23.2137 60.8635C22.5751 60.7624 21.9409 60.8883 21.3493 61.2781C20.7577 61.668 20.3929 62.167 20.2182 62.8136C20.081 63.4595 20.1676 64.0632 20.5156 64.624C20.7865 65.0728 21.1667 65.3681 21.6189 65.5106C22.0711 65.6532 22.5585 65.6815 23.0422 65.5208L23.9693 66.9784C23.0408 67.3748 22.1431 67.4301 21.2762 67.1443C20.4093 66.8584 19.7244 66.3042 19.1841 65.4823Z" stroke="white" stroke-width="2" mask="url(#path-2-inside-1_1_17046)"/>
  <path d="M19.1841 65.4823C18.7598 64.8473 18.5594 64.1702 18.5079 63.4523C18.4565 62.7344 18.6305 62.0499 18.9549 61.4004C19.2793 60.7509 19.7931 60.2112 20.4221 59.8205C21.4211 59.1957 22.4282 58.9869 23.5183 59.1928C24.6083 59.3986 25.4444 60.0255 26.1 60.9965C26.6028 61.8192 26.8443 62.6847 26.7123 63.5954C26.5802 64.506 26.2213 65.3076 25.5225 65.9644L24.5953 64.5068C24.7774 64.2384 24.922 63.9707 25.0284 63.666C25.0974 63.3619 25.1289 63.0586 25.0856 62.7568C25.0423 62.4549 24.9241 62.1545 24.7318 61.8934C24.3838 61.3326 23.8531 61.0024 23.2137 60.8635C22.5751 60.7624 21.9409 60.8883 21.3493 61.2781C20.7577 61.668 20.3929 62.167 20.2182 62.8136C20.081 63.4595 20.1676 64.0632 20.5156 64.624C20.7865 65.0728 21.1667 65.3681 21.6189 65.5106C22.0711 65.6532 22.5585 65.6815 23.0422 65.5208L23.9693 66.9784C23.0408 67.3748 22.1431 67.4301 21.2762 67.1443C20.4093 66.8584 19.7244 66.3042 19.1841 65.4823Z" stroke="url(#paint11_linear_1_17046)" stroke-width="2" mask="url(#path-2-inside-1_1_17046)"/>
  <path d="M25.6835 70.3881L27.9694 72.3869L26.9447 73.6176L23.3639 70.5089L28.4901 64.5067L29.785 65.6166L25.6835 70.3881Z" stroke="white" stroke-width="2" mask="url(#path-2-inside-1_1_17046)"/>
  <path d="M25.6835 70.3881L27.9694 72.3869L26.9447 73.6176L23.3639 70.5089L28.4901 64.5067L29.785 65.6166L25.6835 70.3881Z" stroke="url(#paint12_linear_1_17046)" stroke-width="2" mask="url(#path-2-inside-1_1_17046)"/>
  <path d="M34.0063 76.6207C33.1878 76.9015 32.362 76.804 31.5304 76.404C30.6987 76.004 30.1246 75.3719 29.8097 74.5835C29.4947 73.795 29.5534 72.9615 29.949 72.1213L32.0716 67.6531L33.622 68.4175L31.5353 72.8094C31.3188 73.2298 31.2895 73.6466 31.4099 74.0604C31.5295 74.4365 31.7975 74.734 32.2137 74.9529C32.6299 75.1718 33.0424 75.2016 33.4138 75.043C33.786 74.9223 34.0796 74.6139 34.2961 74.1935L36.3827 69.8016L37.8949 70.5289L35.7723 74.9972C35.4134 75.7987 34.8247 76.3399 34.0063 76.6207Z" stroke="white" stroke-width="2" mask="url(#path-2-inside-1_1_17046)"/>
  <path d="M34.0063 76.6207C33.1878 76.9015 32.362 76.804 31.5304 76.404C30.6987 76.004 30.1246 75.3719 29.8097 74.5835C29.4947 73.795 29.5534 72.9615 29.949 72.1213L32.0716 67.6531L33.622 68.4175L31.5353 72.8094C31.3188 73.2298 31.2895 73.6466 31.4099 74.0604C31.5295 74.4365 31.7975 74.734 32.2137 74.9529C32.6299 75.1718 33.0424 75.2016 33.4138 75.043C33.786 74.9223 34.0796 74.6139 34.2961 74.1935L36.3827 69.8016L37.8949 70.5289L35.7723 74.9972C35.4134 75.7987 34.8247 76.3399 34.0063 76.6207Z" stroke="url(#paint13_linear_1_17046)" stroke-width="2" mask="url(#path-2-inside-1_1_17046)"/>
  <path d="M42.8902 75.1235C43.1941 75.3446 43.4246 75.6428 43.5817 76.0181C43.7381 76.3556 43.7462 76.7717 43.6794 77.1892C43.5796 77.8343 43.2523 78.3326 42.7348 78.6832C42.1799 79.0345 41.5839 79.1975 40.9078 79.0971L37.6024 78.5939L38.7978 70.7384L42.0283 71.2431C42.7043 71.3434 43.2343 71.6358 43.6175 72.0824C44.0007 72.529 44.1607 73.0556 44.0595 73.6251C43.9912 73.967 43.8848 74.2717 43.6654 74.5409C43.4452 74.7722 43.1868 74.9664 42.8902 75.1235ZM40.9885 77.4686C41.2513 77.5013 41.5126 77.4584 41.6975 77.3412C41.8818 77.1863 42.0278 76.9943 42.0601 76.7288C42.0924 76.4633 42.0506 76.2371 41.8971 76.0509C41.7437 75.8647 41.5543 75.7549 41.2534 75.6851L39.7508 75.4494L39.4852 77.1951L40.9885 77.4686ZM42.336 73.583C42.3712 73.4688 42.369 73.3553 42.3293 73.2426C42.2897 73.1298 42.2508 73.0549 42.2111 72.9422C42.1348 72.868 42.0585 72.7938 41.9821 72.7196C41.8683 72.6462 41.7553 72.6105 41.643 72.6127L40.2535 72.4127L39.9863 74.0827L41.3759 74.2827C41.6387 74.3154 41.8625 74.2733 42.0475 74.1561C42.2325 74.039 42.3029 73.8106 42.336 73.583Z" stroke="white" stroke-width="2" mask="url(#path-2-inside-1_1_17046)"/>
  <path d="M42.8902 75.1235C43.1941 75.3446 43.4246 75.6428 43.5817 76.0181C43.7381 76.3556 43.7462 76.7717 43.6794 77.1892C43.5796 77.8343 43.2523 78.3326 42.7348 78.6832C42.1799 79.0345 41.5839 79.1975 40.9078 79.0971L37.6024 78.5939L38.7978 70.7384L42.0283 71.2431C42.7043 71.3434 43.2343 71.6358 43.6175 72.0824C44.0007 72.529 44.1607 73.0556 44.0595 73.6251C43.9912 73.967 43.8848 74.2717 43.6654 74.5409C43.4452 74.7722 43.1868 74.9664 42.8902 75.1235ZM40.9885 77.4686C41.2513 77.5013 41.5126 77.4584 41.6975 77.3412C41.8818 77.1863 42.0278 76.9943 42.0601 76.7288C42.0924 76.4633 42.0506 76.2371 41.8971 76.0509C41.7437 75.8647 41.5543 75.7549 41.2534 75.6851L39.7508 75.4494L39.4852 77.1951L40.9885 77.4686ZM42.336 73.583C42.3712 73.4688 42.369 73.3553 42.3293 73.2426C42.2897 73.1298 42.2508 73.0549 42.2111 72.9422C42.1348 72.868 42.0585 72.7938 41.9821 72.7196C41.8683 72.6462 41.7553 72.6105 41.643 72.6127L40.2535 72.4127L39.9863 74.0827L41.3759 74.2827C41.6387 74.3154 41.8625 74.2733 42.0475 74.1561C42.2325 74.039 42.3029 73.8106 42.336 73.583Z" stroke="url(#paint14_linear_1_17046)" stroke-width="2" mask="url(#path-2-inside-1_1_17046)"/>
  <path d="M58.904 76.2876L57.2664 76.8113L54.9657 72.1265L54.2892 77.7774L53.8796 77.8988L50.0903 73.697L50.9024 78.8648L49.2274 79.3893L48.0239 71.4292L49.6615 70.9054L53.1469 74.8861L53.7177 69.5779L55.3553 69.0541L58.904 76.2876Z" stroke="white" stroke-width="2" mask="url(#path-2-inside-1_1_17046)"/>
  <path d="M58.904 76.2876L57.2664 76.8113L54.9657 72.1265L54.2892 77.7774L53.8796 77.8988L50.0903 73.697L50.9024 78.8648L49.2274 79.3893L48.0239 71.4292L49.6615 70.9054L53.1469 74.8861L53.7177 69.5779L55.3553 69.0541L58.904 76.2876Z" stroke="url(#paint15_linear_1_17046)" stroke-width="2" mask="url(#path-2-inside-1_1_17046)"/>
  <path d="M65.5828 71.1632L64.2181 70.3195L61.7849 72.2965L62.301 73.7999L60.8998 74.9244L58.3824 66.8007L59.6361 65.7925L67.0574 69.9615L65.5828 71.1632ZM60.3151 67.9738L61.2695 70.8309L62.8543 69.5136L60.3151 67.9738Z" stroke="white" stroke-width="2" mask="url(#path-2-inside-1_1_17046)"/>
  <path d="M65.5828 71.1632L64.2181 70.3195L61.7849 72.2965L62.301 73.7999L60.8998 74.9244L58.3824 66.8007L59.6361 65.7925L67.0574 69.9615L65.5828 71.1632ZM60.3151 67.9738L61.2695 70.8309L62.8543 69.5136L60.3151 67.9738Z" stroke="url(#paint16_linear_1_17046)" stroke-width="2" mask="url(#path-2-inside-1_1_17046)"/>
  <path d="M64.7556 59.4498L65.6643 58.0322L72.2642 62.3307L71.5009 63.5185L65.4407 63.8634L69.5749 66.5451L68.6663 67.9627L62.0663 63.6642L62.9024 62.3615L68.8135 62.0573L64.7556 59.4498Z" stroke="white" stroke-width="2" mask="url(#path-2-inside-1_1_17046)"/>
  <path d="M64.7556 59.4498L65.6643 58.0322L72.2642 62.3307L71.5009 63.5185L65.4407 63.8634L69.5749 66.5451L68.6663 67.9627L62.0663 63.6642L62.9024 62.3615L68.8135 62.0573L64.7556 59.4498Z" stroke="url(#paint17_linear_1_17046)" stroke-width="2" mask="url(#path-2-inside-1_1_17046)"/>
  <path d="M31.6436 20.6303L28.4311 13.3524L29.9901 12.641L33.1652 19.9196L31.6436 20.6303Z" stroke="white" stroke-width="2" mask="url(#path-2-inside-1_1_17046)"/>
  <path d="M31.6436 20.6303L28.4311 13.3524L29.9901 12.641L33.1652 19.9196L31.6436 20.6303Z" stroke="url(#paint18_linear_1_17046)" stroke-width="2" mask="url(#path-2-inside-1_1_17046)"/>
  <path d="M38.7497 18.2218L36.6084 15.9554L35.5653 16.2405L36.2158 18.8765L34.576 19.2867L32.5908 11.5688L35.684 10.7897C36.1684 10.6668 36.6551 10.6573 37.144 10.7613C37.5954 10.8661 38.0116 11.085 38.3177 11.4196C38.6613 11.7534 38.8565 12.1658 38.9784 12.6553C39.1003 13.1448 39.0724 13.6372 38.9315 14.094C38.7906 14.5508 38.5359 14.9341 38.1674 15.244L40.5752 17.7322L38.7497 18.2218ZM34.6351 12.702L35.1234 14.6978L36.4277 14.3698C36.7632 14.2876 37.0223 14.1312 37.1676 13.9013C37.3129 13.6715 37.3819 13.3674 37.3012 13.0663C37.26 12.8779 37.1815 12.6903 37.0295 12.5797C36.915 12.4684 36.7631 12.3579 36.5752 12.3237C36.3872 12.2895 36.1626 12.2939 35.9388 12.3361L34.6351 12.702Z" stroke="white" stroke-width="2" mask="url(#path-2-inside-1_1_17046)"/>
  <path d="M38.7497 18.2218L36.6084 15.9554L35.5653 16.2405L36.2158 18.8765L34.576 19.2867L32.5908 11.5688L35.684 10.7897C36.1684 10.6668 36.6551 10.6573 37.144 10.7613C37.5954 10.8661 38.0116 11.085 38.3177 11.4196C38.6613 11.7534 38.8565 12.1658 38.9784 12.6553C39.1003 13.1448 39.0724 13.6372 38.9315 14.094C38.7906 14.5508 38.5359 14.9341 38.1674 15.244L40.5752 17.7322L38.7497 18.2218ZM34.6351 12.702L35.1234 14.6978L36.4277 14.3698C36.7632 14.2876 37.0223 14.1312 37.1676 13.9013C37.3129 13.6715 37.3819 13.3674 37.3012 13.0663C37.26 12.8779 37.1815 12.6903 37.0295 12.5797C36.915 12.4684 36.7631 12.3579 36.5752 12.3237C36.3872 12.2895 36.1626 12.2939 35.9388 12.3361L34.6351 12.702Z" stroke="url(#paint19_linear_1_17046)" stroke-width="2" mask="url(#path-2-inside-1_1_17046)"/>
  <path d="M44.9956 17.7976C43.7969 17.7831 42.8155 17.3859 42.0139 16.607C41.2123 15.828 40.818 14.8141 40.8327 13.6408C40.8473 12.4676 41.2399 11.4762 42.0488 10.7037C42.8577 9.93127 43.8611 9.53338 45.0598 9.54789C45.8459 9.53259 46.5616 9.74569 47.2054 10.1115C47.8491 10.4774 48.3454 10.9596 48.6948 11.596C49.0442 12.2325 49.2454 12.9474 49.2227 13.7046C49.2081 14.8778 48.8154 15.8692 48.0073 16.6795C47.1977 17.4142 46.1943 17.8121 44.9956 17.7976ZM45.0014 16.1705C45.4506 16.1617 45.8984 16.0773 46.2683 15.8431C46.639 15.6467 46.9326 15.3383 47.1498 14.9557C47.3671 14.5731 47.4713 14.1549 47.4617 13.6632C47.4477 12.9446 47.2488 12.3431 46.7526 11.8608C46.2938 11.3779 45.6896 11.1248 45.0158 11.1379C44.3045 11.1517 43.71 11.3903 43.2321 11.8537C42.7543 12.317 42.504 12.9273 42.518 13.6459C42.532 14.3645 42.7684 14.9653 43.2272 15.4483C43.7234 15.9305 44.2901 16.1843 45.0014 16.1705Z" stroke="white" stroke-width="2" mask="url(#path-2-inside-1_1_17046)"/>
  <path d="M44.9956 17.7976C43.7969 17.7831 42.8155 17.3859 42.0139 16.607C41.2123 15.828 40.818 14.8141 40.8327 13.6408C40.8473 12.4676 41.2399 11.4762 42.0488 10.7037C42.8577 9.93127 43.8611 9.53338 45.0598 9.54789C45.8459 9.53259 46.5616 9.74569 47.2054 10.1115C47.8491 10.4774 48.3454 10.9596 48.6948 11.596C49.0442 12.2325 49.2454 12.9474 49.2227 13.7046C49.2081 14.8778 48.8154 15.8692 48.0073 16.6795C47.1977 17.4142 46.1943 17.8121 44.9956 17.7976ZM45.0014 16.1705C45.4506 16.1617 45.8984 16.0773 46.2683 15.8431C46.639 15.6467 46.9326 15.3383 47.1498 14.9557C47.3671 14.5731 47.4713 14.1549 47.4617 13.6632C47.4477 12.9446 47.2488 12.3431 46.7526 11.8608C46.2938 11.3779 45.6896 11.1248 45.0158 11.1379C44.3045 11.1517 43.71 11.3903 43.2321 11.8537C42.7543 12.317 42.504 12.9273 42.518 13.6459C42.532 14.3645 42.7684 14.9653 43.2272 15.4483C43.7234 15.9305 44.2901 16.1843 45.0014 16.1705Z" stroke="url(#paint20_linear_1_17046)" stroke-width="2" mask="url(#path-2-inside-1_1_17046)"/>
  <path d="M56.9718 11.6242L58.5537 12.0853L56.3806 19.7328L55.0248 19.3429L52.9655 13.594L51.5975 18.3502L49.9782 17.8898L52.1513 10.2423L53.6201 10.6678L55.6023 16.3048L56.9718 11.6242Z" stroke="white" stroke-width="2" mask="url(#path-2-inside-1_1_17046)"/>
  <path d="M56.9718 11.6242L58.5537 12.0853L56.3806 19.7328L55.0248 19.3429L52.9655 13.594L51.5975 18.3502L49.9782 17.8898L52.1513 10.2423L53.6201 10.6678L55.6023 16.3048L56.9718 11.6242Z" stroke="url(#paint21_linear_1_17046)" stroke-width="2" mask="url(#path-2-inside-1_1_17046)"/>
  <g filter="url(#filter0_d_1_17046)">
    <path d="M44.5 53L33 41.7527H37.6888L44.5 48.4143L51.3112 41.7527H56L44.5 53Z" fill="url(#paint22_linear_1_17046)"/>
    <path d="M40.6728 41.7435L44.5003 38L48.3279 41.7435L44.5003 45.487L40.6728 41.7435Z" fill="url(#paint23_linear_1_17046)"/>
  </g>
  <g filter="url(#filter1_d_1_17046)">
    <path fill-rule="evenodd" clip-rule="evenodd" d="M44.5 26C54.7173 26 63 34.2827 63 44.5C63 54.7173 54.7173 63 44.5 63C34.2827 63 26 54.7173 26 44.5C26 34.2827 34.2827 26 44.5 26ZM62.2071 44.5C62.2071 34.7206 54.2794 26.7929 44.5 26.7929C34.7206 26.7929 26.7929 34.7206 26.7929 44.5C26.7929 54.2794 34.7206 62.2071 44.5 62.2071C54.2794 62.2071 62.2071 54.2794 62.2071 44.5Z" fill="white"/>
    <path fill-rule="evenodd" clip-rule="evenodd" d="M44.5 26C54.7173 26 63 34.2827 63 44.5C63 54.7173 54.7173 63 44.5 63C34.2827 63 26 54.7173 26 44.5C26 34.2827 34.2827 26 44.5 26ZM62.2071 44.5C62.2071 34.7206 54.2794 26.7929 44.5 26.7929C34.7206 26.7929 26.7929 34.7206 26.7929 44.5C26.7929 54.2794 34.7206 62.2071 44.5 62.2071C54.2794 62.2071 62.2071 54.2794 62.2071 44.5Z" fill="url(#paint24_linear_1_17046)"/>
    <path fill-rule="evenodd" clip-rule="evenodd" d="M44.5 26C54.7173 26 63 34.2827 63 44.5C63 54.7173 54.7173 63 44.5 63C34.2827 63 26 54.7173 26 44.5C26 34.2827 34.2827 26 44.5 26ZM62.2071 44.5C62.2071 34.7206 54.2794 26.7929 44.5 26.7929C34.7206 26.7929 26.7929 34.7206 26.7929 44.5C26.7929 54.2794 34.7206 62.2071 44.5 62.2071C54.2794 62.2071 62.2071 54.2794 62.2071 44.5Z" stroke="white" stroke-width="0.5"/>
    <path fill-rule="evenodd" clip-rule="evenodd" d="M44.5 26C54.7173 26 63 34.2827 63 44.5C63 54.7173 54.7173 63 44.5 63C34.2827 63 26 54.7173 26 44.5C26 34.2827 34.2827 26 44.5 26ZM62.2071 44.5C62.2071 34.7206 54.2794 26.7929 44.5 26.7929C34.7206 26.7929 26.7929 34.7206 26.7929 44.5C26.7929 54.2794 34.7206 62.2071 44.5 62.2071C54.2794 62.2071 62.2071 54.2794 62.2071 44.5Z" stroke="url(#paint25_linear_1_17046)" stroke-width="0.5"/>
  </g>
  <path d="M25.9162 20.1073C18.414 25.835 13.6477 34.9371 13.8454 45.0973C13.919 48.8831 14.6757 52.4953 15.9954 55.8186M72.814 56.3276C74.4112 52.5107 75.2576 48.3067 75.172 43.9041C74.9712 33.5852 69.6965 24.556 61.7746 19.1505" stroke="url(#paint26_linear_1_17046)" stroke-linecap="round" stroke-linejoin="round"/>
  <path d="M25.9162 20.1073C18.414 25.835 13.6477 34.9371 13.8454 45.0973C13.919 48.8831 14.6757 52.4953 15.9954 55.8186M72.814 56.3276C74.4112 52.5107 75.2576 48.3067 75.172 43.9041C74.9712 33.5852 69.6965 24.556 61.7746 19.1505" stroke="url(#paint27_linear_1_17046)" stroke-linecap="round" stroke-linejoin="round"/>
  <defs>
    <filter id="filter0_d_1_17046" x="32.5" y="38" width="24" height="16" filterUnits="userSpaceOnUse" color-interpolation-filters="sRGB">
      <feFlood flood-opacity="0" result="BackgroundImageFix"/>
      <feColorMatrix in="SourceAlpha" type="matrix" values="0 0 0 0 0 0 0 0 0 0 0 0 0 0 0 0 0 0 127 0" result="hardAlpha"/>
      <feOffset dy="0.5"/>
      <feGaussianBlur stdDeviation="0.25"/>
      <feColorMatrix type="matrix" values="0 0 0 0 0 0 0 0 0 0 0 0 0 0 0 0 0 0 0.18 0"/>
      <feBlend mode="normal" in2="BackgroundImageFix" result="effect1_dropShadow_1_17046"/>
      <feBlend mode="normal" in="SourceGraphic" in2="effect1_dropShadow_1_17046" result="shape"/>
    </filter>
    <filter id="filter1_d_1_17046" x="25.25" y="25.75" width="38.5" height="38.5" filterUnits="userSpaceOnUse" color-interpolation-filters="sRGB">
      <feFlood flood-opacity="0" result="BackgroundImageFix"/>
      <feColorMatrix in="SourceAlpha" type="matrix" values="0 0 0 0 0 0 0 0 0 0 0 0 0 0 0 0 0 0 127 0" result="hardAlpha"/>
      <feOffset dy="0.5"/>
      <feGaussianBlur stdDeviation="0.25"/>
      <feColorMatrix type="matrix" values="0 0 0 0 0 0 0 0 0 0 0 0 0 0 0 0 0 0 0.18 0"/>
      <feBlend mode="normal" in2="BackgroundImageFix" result="effect1_dropShadow_1_17046"/>
      <feBlend mode="normal" in="SourceGraphic" in2="effect1_dropShadow_1_17046" result="shape"/>
    </filter>
    <linearGradient id="paint0_linear_1_17046" x1="27.5001" y1="13.5" x2="68.4189" y2="72.9897" gradientUnits="userSpaceOnUse">
      <stop stop-color="#E3EEF0"/>
      <stop offset="0.510417" stop-color="#CFDDDF"/>
      <stop offset="1" stop-color="#9AACAE"/>
    </linearGradient>
    <linearGradient id="paint1_linear_1_17046" x1="27.5001" y1="13.5" x2="68.4189" y2="72.9897" gradientUnits="userSpaceOnUse">
      <stop stop-color="#E3EEF0"/>
      <stop offset="0.510417" stop-color="#CFDDDF"/>
      <stop offset="1" stop-color="#9AACAE"/>
    </linearGradient>
    <linearGradient id="paint2_linear_1_17046" x1="27.5001" y1="13.5" x2="68.4189" y2="72.9897" gradientUnits="userSpaceOnUse">
      <stop stop-color="#E3EEF0"/>
      <stop offset="0.510417" stop-color="#CFDDDF"/>
      <stop offset="1" stop-color="#9AACAE"/>
    </linearGradient>
    <linearGradient id="paint3_linear_1_17046" x1="27.5001" y1="13.5" x2="68.4189" y2="72.9897" gradientUnits="userSpaceOnUse">
      <stop stop-color="#E3EEF0"/>
      <stop offset="0.510417" stop-color="#CFDDDF"/>
      <stop offset="1" stop-color="#9AACAE"/>
    </linearGradient>
    <linearGradient id="paint4_linear_1_17046" x1="27.5001" y1="13.5" x2="68.4189" y2="72.9897" gradientUnits="userSpaceOnUse">
      <stop stop-color="#E3EEF0"/>
      <stop offset="0.510417" stop-color="#CFDDDF"/>
      <stop offset="1" stop-color="#9AACAE"/>
    </linearGradient>
    <linearGradient id="paint5_linear_1_17046" x1="27.5001" y1="13.5" x2="68.4189" y2="72.9897" gradientUnits="userSpaceOnUse">
      <stop stop-color="#E3EEF0"/>
      <stop offset="0.510417" stop-color="#CFDDDF"/>
      <stop offset="1" stop-color="#9AACAE"/>
    </linearGradient>
    <linearGradient id="paint6_linear_1_17046" x1="27.5001" y1="13.5" x2="68.4189" y2="72.9897" gradientUnits="userSpaceOnUse">
      <stop stop-color="#E3EEF0"/>
      <stop offset="0.510417" stop-color="#CFDDDF"/>
      <stop offset="1" stop-color="#9AACAE"/>
    </linearGradient>
    <linearGradient id="paint7_linear_1_17046" x1="27.5001" y1="13.5" x2="68.4189" y2="72.9897" gradientUnits="userSpaceOnUse">
      <stop stop-color="#E3EEF0"/>
      <stop offset="0.510417" stop-color="#CFDDDF"/>
      <stop offset="1" stop-color="#9AACAE"/>
    </linearGradient>
    <linearGradient id="paint8_linear_1_17046" x1="27.5001" y1="13.5" x2="68.4189" y2="72.9897" gradientUnits="userSpaceOnUse">
      <stop stop-color="#E3EEF0"/>
      <stop offset="0.510417" stop-color="#CFDDDF"/>
      <stop offset="1" stop-color="#9AACAE"/>
    </linearGradient>
    <linearGradient id="paint9_linear_1_17046" x1="27.5001" y1="13.5" x2="68.4189" y2="72.9897" gradientUnits="userSpaceOnUse">
      <stop stop-color="#E3EEF0"/>
      <stop offset="0.510417" stop-color="#CFDDDF"/>
      <stop offset="1" stop-color="#9AACAE"/>
    </linearGradient>
    <linearGradient id="paint10_linear_1_17046" x1="27.5001" y1="13.5" x2="68.4189" y2="72.9897" gradientUnits="userSpaceOnUse">
      <stop stop-color="#E3EEF0"/>
      <stop offset="0.510417" stop-color="#CFDDDF"/>
      <stop offset="1" stop-color="#9AACAE"/>
    </linearGradient>
    <linearGradient id="paint11_linear_1_17046" x1="28.2324" y1="17.0496" x2="66.6639" y2="74.9216" gradientUnits="userSpaceOnUse">
      <stop stop-color="#E3EEF0"/>
      <stop offset="0.510417" stop-color="#CFDDDF"/>
      <stop offset="1" stop-color="#9AACAE"/>
    </linearGradient>
    <linearGradient id="paint12_linear_1_17046" x1="28.2324" y1="17.0496" x2="66.6639" y2="74.9216" gradientUnits="userSpaceOnUse">
      <stop stop-color="#E3EEF0"/>
      <stop offset="0.510417" stop-color="#CFDDDF"/>
      <stop offset="1" stop-color="#9AACAE"/>
    </linearGradient>
    <linearGradient id="paint13_linear_1_17046" x1="28.2324" y1="17.0496" x2="66.6639" y2="74.9216" gradientUnits="userSpaceOnUse">
      <stop stop-color="#E3EEF0"/>
      <stop offset="0.510417" stop-color="#CFDDDF"/>
      <stop offset="1" stop-color="#9AACAE"/>
    </linearGradient>
    <linearGradient id="paint14_linear_1_17046" x1="28.2324" y1="17.0496" x2="66.6639" y2="74.9216" gradientUnits="userSpaceOnUse">
      <stop stop-color="#E3EEF0"/>
      <stop offset="0.510417" stop-color="#CFDDDF"/>
      <stop offset="1" stop-color="#9AACAE"/>
    </linearGradient>
    <linearGradient id="paint15_linear_1_17046" x1="28.2324" y1="17.0496" x2="66.6639" y2="74.9216" gradientUnits="userSpaceOnUse">
      <stop stop-color="#E3EEF0"/>
      <stop offset="0.510417" stop-color="#CFDDDF"/>
      <stop offset="1" stop-color="#9AACAE"/>
    </linearGradient>
    <linearGradient id="paint16_linear_1_17046" x1="28.2324" y1="17.0496" x2="66.6639" y2="74.9216" gradientUnits="userSpaceOnUse">
      <stop stop-color="#E3EEF0"/>
      <stop offset="0.510417" stop-color="#CFDDDF"/>
      <stop offset="1" stop-color="#9AACAE"/>
    </linearGradient>
    <linearGradient id="paint17_linear_1_17046" x1="28.2324" y1="17.0496" x2="66.6639" y2="74.9216" gradientUnits="userSpaceOnUse">
      <stop stop-color="#E3EEF0"/>
      <stop offset="0.510417" stop-color="#CFDDDF"/>
      <stop offset="1" stop-color="#9AACAE"/>
    </linearGradient>
    <linearGradient id="paint18_linear_1_17046" x1="28.2324" y1="17.0496" x2="66.6639" y2="74.9216" gradientUnits="userSpaceOnUse">
      <stop stop-color="#E3EEF0"/>
      <stop offset="0.510417" stop-color="#CFDDDF"/>
      <stop offset="1" stop-color="#9AACAE"/>
    </linearGradient>
    <linearGradient id="paint19_linear_1_17046" x1="28.2324" y1="17.0496" x2="66.6639" y2="74.9216" gradientUnits="userSpaceOnUse">
      <stop stop-color="#E3EEF0"/>
      <stop offset="0.510417" stop-color="#CFDDDF"/>
      <stop offset="1" stop-color="#9AACAE"/>
    </linearGradient>
    <linearGradient id="paint20_linear_1_17046" x1="28.2324" y1="17.0496" x2="66.6639" y2="74.9216" gradientUnits="userSpaceOnUse">
      <stop stop-color="#E3EEF0"/>
      <stop offset="0.510417" stop-color="#CFDDDF"/>
      <stop offset="1" stop-color="#9AACAE"/>
    </linearGradient>
    <linearGradient id="paint21_linear_1_17046" x1="28.2324" y1="17.0496" x2="66.6639" y2="74.9216" gradientUnits="userSpaceOnUse">
      <stop stop-color="#E3EEF0"/>
      <stop offset="0.510417" stop-color="#CFDDDF"/>
      <stop offset="1" stop-color="#9AACAE"/>
    </linearGradient>
    <linearGradient id="paint22_linear_1_17046" x1="37.1638" y1="39.6113" x2="42.5378" y2="55.73" gradientUnits="userSpaceOnUse">
      <stop stop-color="#E3EEF0"/>
      <stop offset="0.510417" stop-color="#CFDDDF"/>
      <stop offset="1" stop-color="#9AACAE"/>
    </linearGradient>
    <linearGradient id="paint23_linear_1_17046" x1="37.1638" y1="39.6113" x2="42.5378" y2="55.73" gradientUnits="userSpaceOnUse">
      <stop stop-color="#E3EEF0"/>
      <stop offset="0.510417" stop-color="#CFDDDF"/>
      <stop offset="1" stop-color="#9AACAE"/>
    </linearGradient>
    <linearGradient id="paint24_linear_1_17046" x1="32.6983" y1="29.9746" x2="50.6038" y2="65" gradientUnits="userSpaceOnUse">
      <stop stop-color="#E3EEF0"/>
      <stop offset="0.510417" stop-color="#CFDDDF"/>
      <stop offset="1" stop-color="#9AACAE"/>
    </linearGradient>
    <linearGradient id="paint25_linear_1_17046" x1="32.6983" y1="29.9746" x2="50.6038" y2="65" gradientUnits="userSpaceOnUse">
      <stop stop-color="#E3EEF0"/>
      <stop offset="0.510417" stop-color="#CFDDDF"/>
      <stop offset="1" stop-color="#9AACAE"/>
    </linearGradient>
    <linearGradient id="paint26_linear_1_17046" x1="30.8272" y1="21.655" x2="38.3248" y2="60.378" gradientUnits="userSpaceOnUse">
      <stop stop-color="#F0F4FF"/>
      <stop offset="0.510417" stop-color="#D3DEFB"/>
      <stop offset="1" stop-color="#C1CEF0"/>
    </linearGradient>
    <linearGradient id="paint27_linear_1_17046" x1="24.5392" y1="23.8917" x2="38.0059" y2="64.3257" gradientUnits="userSpaceOnUse">
      <stop stop-color="#E3EEF0"/>
      <stop offset="0.510417" stop-color="#CFDDDF"/>
      <stop offset="1" stop-color="#9AACAE"/>
    </linearGradient>
  </defs>
</svg>
  