<svg width="24" height="25" viewBox="0 0 24 25" fill="none"
  xmlns="http://www.w3.org/2000/svg">
  <path fill-rule="evenodd" clip-rule="evenodd" d="M7 4.5C6.44772 4.5 6 4.94772 6 5.5V19.1683L11.4592 15.6588C11.7887 15.4471 12.2114 15.4471 12.5408 15.6588L18 19.1683V5.5C18 4.94772 17.5523 4.5 17 4.5H7ZM4 5.5C4 3.84315 5.34315 2.5 7 2.5H17C18.6569 2.5 20 3.84315 20 5.5V21C20 21.3658 19.8003 21.7024 19.4792 21.8777C19.1581 22.053 18.767 22.039 18.4592 21.8412L12 17.6888L5.54076 21.8412C5.23305 22.039 4.84189 22.053 4.52081 21.8777C4.19974 21.7024 4 21.3658 4 21V5.5Z" fill="#383636"/>
</svg>
  