<svg width="73" height="72" viewBox="0 0 73 72" fill="none"
  xmlns="http://www.w3.org/2000/svg">
  <path d="M72.1436 44.4581V27.0918C72.1436 14.6991 65.8107 3.24219 53.5743 1.28046C48.8199 0.518245 43.0485 0 36.1436 0C29.2386 0 23.4672 0.518247 18.7128 1.28046C6.47639 3.2422 0.143555 14.6991 0.143555 27.0918V44.4581C0.143555 57.4796 7.10675 69.3162 20.0166 71.0175C24.5115 71.6098 29.8579 72 36.1436 72C42.4293 72 47.7757 71.6098 52.2706 71.0175C65.1804 69.3162 72.1436 57.4796 72.1436 44.4581Z" fill="#E9E8E5"/>
  <path opacity="0.5" d="M13.2338 44.8575C11.791 41.8192 10.9126 38.4512 10.7402 34.8819C10.5244 30.4151 11.4396 26.1555 13.2338 22.3805M60.9821 44.0656C62.5385 40.49 63.318 36.5108 63.1171 32.3521C62.9448 28.7844 62.0671 25.4177 60.6254 22.3805" stroke="white" stroke-linecap="round" stroke-linejoin="round"/>
  <g opacity="0.5" clip-path="url(#clip0_1_17076)">
    <path d="M14.4539 52.7521C14.1009 52.2085 13.9404 51.6329 13.9083 51.0253C13.8763 50.4177 14.0367 49.8421 14.3255 49.2985C14.6143 48.7548 15.0636 48.3072 15.6091 47.9874C16.4755 47.4757 17.3419 47.3158 18.2725 47.5077C19.203 47.6996 19.909 48.2432 20.4545 49.0746C20.9038 49.7782 21.0642 50.5137 20.9359 51.2811C20.8075 52.0486 20.4866 52.7202 19.8769 53.2638L19.1068 52.0166C19.2672 51.7928 19.3956 51.5689 19.4918 51.3131C19.556 51.0573 19.5881 50.8015 19.556 50.5456C19.5239 50.2898 19.4277 50.034 19.2672 49.8101C18.9784 49.3305 18.5292 49.0427 17.9837 48.9147C17.4381 48.8188 16.8926 48.9147 16.3792 49.2345C15.8658 49.5543 15.5449 49.97 15.3844 50.5137C15.2561 51.0573 15.3203 51.5689 15.6091 52.0486C15.8337 52.4324 16.1546 52.6882 16.5396 52.8161C16.9247 52.944 17.3419 52.976 17.759 52.8481L18.5292 54.0952C17.7269 54.415 16.9568 54.447 16.2188 54.1912C15.5128 53.9353 14.9031 53.4557 14.4539 52.7521Z" fill="white"/>
    <path d="M19.9412 57.0052L21.8665 58.7321L20.968 59.7554L17.9517 57.0692L22.4441 52.0806L23.5352 53.0399L19.9412 57.0052Z" fill="white"/>
    <path d="M26.9685 62.4097C26.2626 62.6335 25.5566 62.5376 24.8506 62.1858C24.1447 61.834 23.6633 61.2904 23.4066 60.6189C23.1499 59.9473 23.2141 59.2438 23.5671 58.5403L25.4603 54.7988L26.776 55.4704L24.9148 59.1479C24.7223 59.4996 24.6902 59.8514 24.7865 60.2032C24.8827 60.5229 25.1074 60.7788 25.4603 60.9706C25.8133 61.1625 26.1663 61.1945 26.4872 61.0666C26.8081 60.9706 27.0648 60.7148 27.2573 60.363L29.1185 56.6855L30.402 57.3251L28.5088 61.0666C28.1879 61.7381 27.6745 62.1858 26.9685 62.4097Z" fill="white"/>
    <path d="M34.6058 61.2905C34.8625 61.4824 35.0551 61.7382 35.1834 62.058C35.3118 62.3458 35.3118 62.6976 35.2476 63.0493C35.1513 63.593 34.8625 64.0087 34.4133 64.2965C33.932 64.5843 33.4185 64.7122 32.8409 64.6163L30.0171 64.1366L31.1723 57.5171L33.932 57.9968C34.5096 58.0927 34.9588 58.3485 35.2797 58.7323C35.6006 59.116 35.7289 59.5637 35.6327 60.0434C35.5685 60.3312 35.4722 60.587 35.2797 60.8109C35.0872 60.9707 34.8946 61.1626 34.6058 61.2905ZM32.9372 63.2412C33.1618 63.2732 33.3864 63.2412 33.5469 63.1453C33.7073 63.0174 33.8357 62.8575 33.8678 62.6336C33.8999 62.4098 33.8678 62.2179 33.7394 62.058C33.6111 61.8981 33.4506 61.8022 33.1939 61.7382L31.9103 61.5144L31.6536 62.9854L32.9372 63.2412ZM34.1887 59.9794C34.2208 59.8835 34.2208 59.7875 34.1887 59.6916C34.1566 59.5957 34.1245 59.5317 34.0924 59.4358C34.0282 59.3718 33.964 59.3079 33.8999 59.2439C33.8036 59.18 33.7073 59.148 33.6111 59.148L32.4238 58.9561L32.1671 60.3632L33.3543 60.555C33.579 60.587 33.7715 60.555 33.932 60.4591C34.0924 60.3632 34.1566 60.1713 34.1887 59.9794Z" fill="white"/>
    <path d="M48.3077 62.5375L46.8958 62.9533L45.0025 58.924L44.3287 63.6888L43.9757 63.7847L40.7989 60.1711L41.4086 64.5522L39.9645 64.9679L39.0981 58.2844L40.5101 57.8687L43.4302 61.2904L44.0078 56.8134L45.4197 56.3977L48.3077 62.5375Z" fill="white"/>
    <path d="M54.116 58.3165L52.9608 57.581L50.8429 59.2119L51.26 60.4911L50.0407 61.4184L48.019 54.5111L49.1101 53.6797L55.3995 57.3252L54.116 58.3165ZM49.6556 55.5344L50.4257 57.9648L51.8055 56.8775L49.6556 55.5344Z" fill="white"/>
    <path d="M53.6348 48.4032L54.4371 47.22L60.0206 50.9614L59.3467 51.9528L54.1483 52.1446L57.646 54.4791L56.8437 55.6623L51.2603 51.9208L51.9983 50.8335L57.0684 50.6736L53.6348 48.4032Z" fill="white"/>
    <path d="M14.0047 15.0819C14.4861 14.6023 15.0637 14.3784 15.6734 14.3784C16.3151 14.3784 16.8606 14.6023 17.3099 15.0819C17.7591 15.5616 17.9838 16.1052 17.9838 16.7448C17.9517 17.3844 17.7271 17.928 17.2136 18.4077L16.4114 19.2071L17.8875 20.7101L16.8606 21.6695L12.1436 16.8727L14.0047 15.0819ZM16.251 17.4483C16.4435 17.2565 16.5718 17.0326 16.5718 16.7768C16.5718 16.521 16.4756 16.2971 16.283 16.1052C16.0905 15.9134 15.8659 15.7855 15.6092 15.7855C15.3525 15.7855 15.1278 15.8814 14.9032 16.0733L14.1331 16.8088L15.4808 18.1838L16.251 17.4483Z" fill="white"/>
    <path d="M21.5134 15.9452L23.6633 14.5382L24.4014 15.6574L20.9999 17.8639L17.3418 12.2357L18.5612 11.4363L21.5134 15.9452Z" fill="white"/>
    <path d="M29.1829 13.7707L28.2844 12.7474L25.7814 13.7068L25.8135 15.0499L24.3374 15.5615L24.4337 8.36639L25.7172 7.88672L30.6589 13.1951L29.1829 13.7707ZM25.7172 9.77344L25.7493 12.3317L27.3859 11.7241L25.7172 9.77344Z" fill="white"/>
    <path d="M34.1245 6L34.3491 7.34309L32.4879 7.63089L33.3223 12.9393L31.8783 13.1631L31.0439 7.85474L29.2149 8.14255L28.9902 6.79946L34.1245 6Z" fill="white"/>
    <path d="M35.9214 12.7154V6H37.3975V12.7154H35.9214Z" fill="white"/>
    <path d="M44.072 6.79946L45.4839 7.05529L44.2645 13.6748L43.0772 13.451L40.831 8.78212L40.0608 12.9073L38.6489 12.6515L39.8683 6.03198L41.1519 6.25583L43.3018 10.8287L44.072 6.79946Z" fill="white"/>
    <path d="M49.8804 15.4656C49.2065 15.6894 48.4684 15.6255 47.7625 15.3057C47.0244 14.9539 46.5431 14.4743 46.2864 13.7707C46.0297 13.0992 46.0618 12.3957 46.3826 11.6921L48.1475 7.9187L49.4632 8.52629L47.6983 12.2678C47.5379 12.6515 47.5058 13.0033 47.602 13.323C47.7304 13.6428 47.955 13.8986 48.308 14.0585C48.661 14.2184 49.0139 14.2504 49.3348 14.1225C49.6557 13.9946 49.9124 13.7388 50.105 13.387L51.8699 9.64553L53.1855 10.2531L51.3885 14.0585C51.0676 14.794 50.5863 15.2417 49.8804 15.4656Z" fill="white"/>
    <path d="M57.4211 22.277L56.3301 21.2857L58.7688 17.5762L54.3405 19.4949L54.0838 19.2711L55.5278 14.6662L52.0943 17.4803L50.9712 16.489L56.2659 12.2039L57.3569 13.1632L55.945 17.4483L60.0524 15.5936L61.1434 16.5529L57.4211 22.277Z" fill="white"/>
  </g>
  <g filter="url(#filter0_d_1_17076)">
    <path d="M30.2397 50.913L36.7263 51.6943L43.2436 50.5857L42.7477 48.4505H31.1825L30.2397 50.913Z" fill="white"/>
    <path d="M30.2397 20.0033L36.7263 19.222L43.2436 20.3306L42.7477 22.4657H31.1825L30.2397 20.0033Z" fill="white"/>
    <path fill-rule="evenodd" clip-rule="evenodd" d="M36.6436 19C45.7563 19 53.1436 26.3873 53.1436 35.5C53.1436 44.6127 45.7563 52 36.6436 52C27.5309 52 20.1436 44.6127 20.1436 35.5C20.1436 26.3873 27.5309 19 36.6436 19ZM52.4364 35.5C52.4364 26.7778 45.3657 19.7071 36.6436 19.7071C27.9214 19.7071 20.8507 26.7778 20.8507 35.5C20.8507 44.2222 27.9214 51.2929 36.6436 51.2929C45.3657 51.2929 52.4364 44.2222 52.4364 35.5Z" fill="white"/>
    <path d="M30.2397 50.913L30.0195 50.8287L29.9115 51.1109L30.2115 51.147L30.2397 50.913ZM43.2436 50.5857L43.2831 50.8181L43.5298 50.7761L43.4732 50.5324L43.2436 50.5857ZM42.7477 48.4505L42.9773 48.3972L42.935 48.2148H42.7477V48.4505ZM31.1825 48.4505V48.2148H31.0204L30.9624 48.3663L31.1825 48.4505ZM36.7263 51.6943L36.6981 51.9283L36.7321 51.9324L36.7659 51.9267L36.7263 51.6943ZM30.2397 20.0033L30.2115 19.7693L29.9115 19.8054L30.0195 20.0876L30.2397 20.0033ZM43.2436 20.3306L43.4732 20.3839L43.5298 20.1401L43.2831 20.0982L43.2436 20.3306ZM42.7477 22.4657V22.7014H42.935L42.9773 22.519L42.7477 22.4657ZM31.1825 22.4657L30.9624 22.55L31.0204 22.7014H31.1825V22.4657ZM36.7263 19.222L36.7659 18.9896L36.7321 18.9838L36.6981 18.9879L36.7263 19.222ZM43.4732 50.5324L42.9773 48.3972L42.5181 48.5039L43.014 50.639L43.4732 50.5324ZM42.7477 48.2148H31.1825V48.6863H42.7477V48.2148ZM30.9624 48.3663L30.0195 50.8287L30.4598 50.9973L31.4027 48.5348L30.9624 48.3663ZM30.2115 51.147L36.6981 51.9283L36.7545 51.4603L30.2679 50.6789L30.2115 51.147ZM36.7659 51.9267L43.2831 50.8181L43.204 50.3533L36.6868 51.4619L36.7659 51.9267ZM43.014 20.2772L42.5181 22.4124L42.9773 22.519L43.4732 20.3839L43.014 20.2772ZM42.7477 22.23H31.1825V22.7014H42.7477V22.23ZM31.4027 22.3814L30.4598 19.919L30.0195 20.0876L30.9624 22.55L31.4027 22.3814ZM30.2679 20.2373L36.7545 19.456L36.6981 18.9879L30.2115 19.7693L30.2679 20.2373ZM36.6868 19.4543L43.204 20.5629L43.2831 20.0982L36.7659 18.9896L36.6868 19.4543ZM36.6436 19.9429C45.2355 19.9429 52.2007 26.908 52.2007 35.5H52.6721C52.6721 26.6477 45.4959 19.4714 36.6436 19.4714V19.9429ZM21.0864 35.5C21.0864 26.908 28.0516 19.9429 36.6436 19.9429V19.4714C27.7912 19.4714 20.615 26.6477 20.615 35.5H21.0864ZM36.6436 19.2357C45.6261 19.2357 52.9078 26.5175 52.9078 35.5H53.3793C53.3793 26.2571 45.8864 18.7643 36.6436 18.7643V19.2357ZM20.3793 35.5C20.3793 26.5175 27.661 19.2357 36.6436 19.2357V18.7643C27.4007 18.7643 19.9078 26.2571 19.9078 35.5H20.3793ZM36.6436 51.5286C45.4959 51.5286 52.6721 44.3523 52.6721 35.5H52.2007C52.2007 44.092 45.2355 51.0571 36.6436 51.0571V51.5286ZM20.615 35.5C20.615 44.3523 27.7912 51.5286 36.6436 51.5286V51.0571C28.0516 51.0571 21.0864 44.092 21.0864 35.5H20.615ZM36.6436 52.2357C45.8864 52.2357 53.3793 44.7429 53.3793 35.5H52.9078C52.9078 44.4825 45.6261 51.7643 36.6436 51.7643V52.2357ZM19.9078 35.5C19.9078 44.7429 27.4007 52.2357 36.6436 52.2357V51.7643C27.661 51.7643 20.3793 44.4825 20.3793 35.5H19.9078Z" fill="white"/>
  </g>
  <g filter="url(#filter1_d_1_17076)">
    <path d="M49.1718 38.0607H43.9343L41.8762 40.1426H47.1137L49.1718 38.0607Z" fill="white"/>
    <path d="M36.938 42.8266L25.1271 31.0158H29.9426L36.938 38.0111L43.9333 31.0158H48.7489L36.938 42.8266Z" fill="white"/>
    <path d="M52.0504 34.9372H46.8129L44.7547 37.0192H49.9923L52.0504 34.9372Z" fill="white"/>
    <path d="M24.9079 38.0607H30.1454L32.2035 40.1426H26.966L24.9079 38.0607Z" fill="white"/>
    <path d="M22.0293 34.9372H27.2668L29.325 37.0192H24.0874L22.0293 34.9372Z" fill="white"/>
    <path d="M33.0073 31.4167L36.9383 27.4856L40.8694 31.4167L36.9383 35.3477L33.0073 31.4167Z" fill="white"/>
  </g>
  <defs>
    <filter id="filter0_d_1_17076" x="19.4363" y="18.7644" width="34.4145" height="34.414" filterUnits="userSpaceOnUse" color-interpolation-filters="sRGB">
      <feFlood flood-opacity="0" result="BackgroundImageFix"/>
      <feColorMatrix in="SourceAlpha" type="matrix" values="0 0 0 0 0 0 0 0 0 0 0 0 0 0 0 0 0 0 127 0" result="hardAlpha"/>
      <feOffset dy="0.471429"/>
      <feGaussianBlur stdDeviation="0.235714"/>
      <feColorMatrix type="matrix" values="0 0 0 0 0 0 0 0 0 0 0 0 0 0 0 0 0 0 0.18 0"/>
      <feBlend mode="normal" in2="BackgroundImageFix" result="effect1_dropShadow_1_17076"/>
      <feBlend mode="normal" in="SourceGraphic" in2="effect1_dropShadow_1_17076" result="shape"/>
    </filter>
    <filter id="filter1_d_1_17076" x="21.5579" y="27.4856" width="30.9639" height="16.2839" filterUnits="userSpaceOnUse" color-interpolation-filters="sRGB">
      <feFlood flood-opacity="0" result="BackgroundImageFix"/>
      <feColorMatrix in="SourceAlpha" type="matrix" values="0 0 0 0 0 0 0 0 0 0 0 0 0 0 0 0 0 0 127 0" result="hardAlpha"/>
      <feOffset dy="0.471429"/>
      <feGaussianBlur stdDeviation="0.235714"/>
      <feColorMatrix type="matrix" values="0 0 0 0 0 0 0 0 0 0 0 0 0 0 0 0 0 0 0.18 0"/>
      <feBlend mode="normal" in2="BackgroundImageFix" result="effect1_dropShadow_1_17076"/>
      <feBlend mode="normal" in="SourceGraphic" in2="effect1_dropShadow_1_17076" result="shape"/>
    </filter>
    <clipPath id="clip0_1_17076">
      <rect width="49" height="59" fill="white" transform="translate(12.1436 6)"/>
    </clipPath>
  </defs>
</svg>
  