<svg width="17" height="17" viewBox="0 0 17 17" fill="none"
  xmlns="http://www.w3.org/2000/svg">
  <path fill-rule="evenodd" clip-rule="evenodd" d="M4.4054 3.08721C4.78796 2.69272 5.33017 2.46875 5.96653 2.46875C6.76159 2.46875 7.29591 2.93376 7.69448 3.44523C7.87315 3.6745 8.05364 3.95263 8.23926 4.2563C8.42488 3.95263 8.60537 3.6745 8.78403 3.44523C9.1826 2.93376 9.71692 2.46875 10.512 2.46875C11.1483 2.46875 11.6906 2.69272 12.0731 3.08721C12.4471 3.4729 12.6256 3.97772 12.6256 4.46865C12.6256 4.63542 12.605 4.80379 12.5632 4.96855H13.2393C13.6535 4.96855 13.9893 5.30434 13.9893 5.71855V8.21862C13.9893 8.63283 13.6535 8.96862 13.2393 8.96862H13.0802V13.2188C13.0802 13.633 12.7444 13.9688 12.3302 13.9688H4.14835C3.73414 13.9688 3.39835 13.633 3.39835 13.2188V8.96862H3.23926C2.82504 8.96862 2.48926 8.63283 2.48926 8.21862V5.71855C2.48926 5.30434 2.82504 4.96855 3.23926 4.96855H3.91535C3.87349 4.80379 3.85289 4.63542 3.85289 4.46865C3.85289 3.97772 4.03137 3.4729 4.4054 3.08721ZM5.96653 4.96855C5.6938 4.96855 5.55419 4.88005 5.48221 4.80583C5.40169 4.7228 5.35289 4.60267 5.35289 4.46865C5.35289 4.33463 5.40169 4.2145 5.48221 4.13147C5.55419 4.05725 5.6938 3.96875 5.96653 3.96875C6.08056 3.96875 6.22806 4.00375 6.5113 4.36724C6.64274 4.5359 6.77266 4.73384 6.91679 4.96855H5.96653ZM7.48926 6.46855V7.46862H3.98926V6.46855H7.48926ZM4.89835 8.96862V12.4688H7.48926V8.96862H4.89835ZM8.98926 8.96862V12.4688H11.5802V8.96862H8.98926ZM12.4893 7.46862V6.46855H8.98926V7.46862H12.4893ZM10.512 4.96855C10.7847 4.96855 10.9243 4.88005 10.9963 4.80583C11.0768 4.7228 11.1256 4.60267 11.1256 4.46865C11.1256 4.33463 11.0768 4.2145 10.9963 4.13147C10.9243 4.05725 10.7847 3.96875 10.512 3.96875C10.398 3.96875 10.2505 4.00375 9.96721 4.36724C9.83578 4.5359 9.70586 4.73384 9.56173 4.96855H10.512Z" fill="#383636"/>
</svg>
  