<svg width="73" height="72" viewBox="0 0 73 72" fill="none"
  xmlns="http://www.w3.org/2000/svg">
  <path d="M68 44.5787V36.8583C68 24.4656 61.5825 13.0549 49.2733 11.6182C46.0078 11.2371 42.2631 11 38 11C33.7369 11 29.9923 11.2371 26.7267 11.6182C14.4175 13.0549 8 24.4657 8 36.8584V44.5787C8 57.6002 15.0405 69.374 28.0073 70.565C30.9617 70.8364 34.2838 71 38 71C41.7162 71 45.0383 70.8364 47.9927 70.565C60.9595 69.374 68 57.6001 68 44.5787Z" fill="#655D5D"/>
  <path d="M68 44.5787V36.8583C68 24.4656 61.5825 13.0549 49.2733 11.6182C46.0078 11.2371 42.2631 11 38 11C33.7369 11 29.9923 11.2371 26.7267 11.6182C14.4175 13.0549 8 24.4657 8 36.8584V44.5787C8 57.6002 15.0405 69.374 28.0073 70.565C30.9617 70.8364 34.2838 71 38 71C41.7162 71 45.0383 70.8364 47.9927 70.565C60.9595 69.374 68 57.6001 68 44.5787Z" fill="url(#paint0_linear_1_17132)"/>
  <path d="M72.1436 44.4581V27.0918C72.1436 14.6991 65.8107 3.24219 53.5743 1.28046C48.8199 0.518245 43.0485 0 36.1436 0C29.2386 0 23.4672 0.518247 18.7128 1.28046C6.47639 3.2422 0.143555 14.6991 0.143555 27.0918V44.4581C0.143555 57.4796 7.10675 69.3162 20.0166 71.0175C24.5115 71.6098 29.8579 72 36.1436 72C42.4293 72 47.7757 71.6098 52.2706 71.0175C65.1804 69.3162 72.1436 57.4796 72.1436 44.4581Z" fill="#E9E8E5"/>
  <path opacity="0.5" d="M14.5561 23.7397C11.9212 27.9812 10.4774 33.0262 10.6737 38.3914C10.8033 41.9327 11.6352 45.2825 13.0306 48.3119M59.2733 24.6053C61.2744 28.1246 62.4807 32.1646 62.6389 36.4902C62.7899 40.6163 61.9709 44.5529 60.3861 48.0804" stroke="white" stroke-linecap="round" stroke-linejoin="round"/>
  <g opacity="0.5" clip-path="url(#clip0_1_17132)">
    <path d="M13.6879 53.7723C13.3358 53.2296 13.1757 52.6549 13.1437 52.0483C13.1117 51.4417 13.2717 50.867 13.5598 50.3243C13.8479 49.7815 14.2961 49.3345 14.8403 49.0153C15.7046 48.5044 16.5689 48.3448 17.4972 48.5364C18.4255 48.7279 19.1298 49.2707 19.674 50.1008C20.1221 50.8031 20.2822 51.5375 20.1541 52.3037C20.0261 53.0699 19.706 53.7404 19.0978 54.2831L18.3295 53.038C18.4895 52.8145 18.6176 52.591 18.7136 52.3356C18.7776 52.0802 18.8097 51.8248 18.7776 51.5694C18.7456 51.314 18.6496 51.0586 18.4895 50.8351C18.2014 50.3562 17.7533 50.0688 17.2091 49.9411C16.6649 49.8454 16.1207 49.9411 15.6085 50.2604C15.0964 50.5797 14.7763 50.9947 14.6162 51.5375C14.4882 52.0802 14.5522 52.591 14.8403 53.0699C15.0644 53.453 15.3845 53.7085 15.7686 53.8362C16.1527 53.9639 16.5689 53.9958 16.985 53.8681L17.7533 55.1132C16.953 55.4325 16.1847 55.4644 15.4485 55.209C14.7122 54.9536 14.136 54.4747 13.6879 53.7723Z" fill="white"/>
    <path d="M19.1619 57.9865L21.0826 59.7105L20.1863 60.7322L17.1772 58.0503L21.6588 53.0698L22.7472 54.0276L19.1619 57.9865Z" fill="white"/>
    <path d="M26.1724 63.3822C25.4681 63.6057 24.7639 63.5099 24.0596 63.1587C23.3554 62.8075 22.8752 62.2647 22.6191 61.5943C22.3631 60.9238 22.4271 60.2215 22.7792 59.5191L24.6679 55.7837L25.9803 56.4541L24.1237 60.1257C23.9316 60.4769 23.8996 60.8281 23.9956 61.1792C24.0917 61.4985 24.3157 61.7539 24.6679 61.9455C25.02 62.137 25.3721 62.169 25.6922 62.0413C26.0123 61.9455 26.2684 61.6901 26.4605 61.3389L28.3171 57.6673L29.5976 58.3059L27.7089 62.0413C27.3888 62.7436 26.8766 63.1906 26.1724 63.3822Z" fill="white"/>
    <path d="M33.791 62.2646C34.0471 62.4562 34.2391 62.7116 34.3672 63.0309C34.4952 63.3182 34.4952 63.6694 34.4312 64.0206C34.3352 64.5633 34.0471 64.9784 33.5989 65.2657C33.1507 65.553 32.6066 65.6808 32.0304 65.585L29.2134 65.1061L30.3658 58.4973L33.1187 58.9762C33.6949 59.072 34.1431 59.3274 34.4632 59.7105C34.7833 60.0936 34.9114 60.5406 34.8153 61.0195C34.7513 61.3068 34.6553 61.5623 34.4632 61.7857C34.2711 61.9773 34.0471 62.1369 33.791 62.2646ZM32.1264 64.2121C32.3505 64.2441 32.5745 64.2121 32.7346 64.1164C32.8947 63.9887 33.0227 63.829 33.0547 63.6055C33.0867 63.3821 33.0547 63.1905 32.9267 63.0309C32.7986 62.8712 32.6386 62.7755 32.3825 62.7116L31.102 62.4881L30.8459 63.9567L32.1264 64.2121ZM33.3428 60.9556C33.3748 60.8599 33.3748 60.7641 33.3428 60.6683C33.3108 60.5725 33.2788 60.5087 33.2468 60.4129C33.1828 60.349 33.1187 60.2852 33.0547 60.2213C32.9587 60.1575 32.8626 60.1256 32.7666 60.1256L31.5822 59.934L31.3261 61.3388L32.5105 61.5303C32.7346 61.5622 32.9267 61.5303 33.0867 61.4345C33.2468 61.3388 33.3108 61.1791 33.3428 60.9556Z" fill="white"/>
    <path d="M47.4594 63.5416L46.051 63.9567L44.1623 59.9339L43.4901 64.691L43.1379 64.7868L39.9688 61.1791L40.577 65.553L39.1365 65.968L38.2402 59.2316L39.6487 58.8165L42.5617 62.2326L43.1379 57.7629L44.5464 57.3479L47.4594 63.5416Z" fill="white"/>
    <path d="M53.2535 59.3273L52.1011 58.593L49.9884 60.2213L50.4045 61.4983L49.1881 62.4242L47.1714 55.5281L48.2598 54.698L54.5339 58.3376L53.2535 59.3273ZM48.804 56.5178L49.5722 58.9442L50.9487 57.8587L48.804 56.5178Z" fill="white"/>
    <path d="M52.7414 49.3983L53.5417 48.217L59.1116 51.9524L58.4394 52.9421L53.2536 53.1337L56.7428 55.4643L55.9425 56.6456L50.3726 52.9102L51.1088 51.8247L56.1666 51.6651L52.7414 49.3983Z" fill="white"/>
    <path d="M20.1221 14.7262C20.4422 14.6943 20.7623 14.7262 21.0504 14.8539C21.3385 14.9816 21.5946 15.2051 21.8186 15.4924C22.1388 15.9394 22.2348 16.4183 22.1067 16.9611C21.9787 17.5038 21.6906 17.9508 21.2104 18.27L18.8736 19.9302L14.9683 14.4708L17.2411 12.8745C17.7212 12.5552 18.2014 12.3956 18.7136 12.4594C19.2257 12.4914 19.6099 12.7148 19.898 13.1299C20.058 13.3534 20.1541 13.6088 20.2181 13.8961C20.2501 14.1835 20.2181 14.4708 20.1221 14.7262ZM18.8736 14.1196C18.8096 14.0238 18.7456 13.96 18.6495 13.8961C18.5855 13.8323 18.4895 13.8003 18.3935 13.8003C18.2974 13.8003 18.2014 13.8003 18.1054 13.8003C18.0093 13.8323 17.9133 13.8642 17.8173 13.928L16.8569 14.6624L17.6892 15.8117L18.6816 15.1093C18.8736 14.9816 18.9697 14.822 19.0017 14.6304C19.0337 14.4708 19.0017 14.2792 18.8736 14.1196ZM20.3141 17.2803C20.5062 17.1526 20.6342 16.9611 20.6662 16.7695C20.6983 16.5779 20.6662 16.3864 20.5382 16.1948C20.4102 16.0033 20.2501 15.9075 20.058 15.8756C19.866 15.8436 19.6739 15.9075 19.4818 16.0352L18.4255 16.7695L19.2898 17.9827L20.3141 17.2803Z" fill="white"/>
    <path d="M27.1003 15.2689L25.0196 13.6407L24.1553 14.0238L25.0196 16.1309L23.6751 16.6737L21.1143 10.48L23.6111 9.45833C24.0273 9.2987 24.4434 9.23484 24.8275 9.26677C25.2437 9.2987 25.5958 9.4264 25.9159 9.68181C26.236 9.9053 26.4601 10.2246 26.6202 10.6396C26.7802 11.0227 26.8442 11.4378 26.7482 11.8209C26.6842 12.2359 26.4921 12.5871 26.236 12.8745L28.5729 14.6623L27.1003 15.2689ZM22.9709 11.1824L23.6431 12.7787L24.7315 12.3317C24.9876 12.204 25.1797 12.0444 25.3077 11.8528C25.4037 11.6293 25.4037 11.4058 25.3077 11.1824C25.2437 11.0227 25.1477 10.895 25.0196 10.7992C24.8916 10.7035 24.7635 10.6715 24.6035 10.6396C24.4434 10.6396 24.2513 10.6715 24.0913 10.7354L22.9709 11.1824Z" fill="white"/>
    <path d="M32.3501 14.1835C31.3257 14.3112 30.4294 14.1197 29.6611 13.545C28.8929 12.9703 28.4447 12.2041 28.3167 11.2144C28.1886 10.2247 28.4127 9.33072 28.9889 8.59641C29.5651 7.83018 30.3654 7.38321 31.3897 7.2555C32.062 7.15972 32.6702 7.22358 33.2784 7.44706C33.8866 7.67055 34.3348 8.02174 34.7189 8.50063C35.103 8.97953 35.3271 9.5542 35.4231 10.1927C35.5512 11.1825 35.3271 12.0445 34.7509 12.8107C34.1747 13.5769 33.3744 14.0239 32.3501 14.1835ZM32.158 12.8107C32.5421 12.7468 32.8942 12.6191 33.1823 12.3957C33.4704 12.1722 33.6945 11.8848 33.8226 11.5336C33.9506 11.1825 34.0146 10.7993 33.9506 10.4162C33.8546 9.80962 33.5985 9.33072 33.1503 8.97953C32.7022 8.62834 32.19 8.50063 31.5818 8.59641C30.9736 8.69219 30.5254 8.9476 30.1733 9.39457C29.8212 9.84154 29.6931 10.3843 29.7892 10.9909C29.8852 11.5975 30.1413 12.0764 30.5894 12.3957C31.0376 12.7788 31.5818 12.9065 32.158 12.8107Z" fill="white"/>
    <path d="M41.7297 7.57468L43.1382 7.76623L42.2099 14.4069L41.0254 14.2473L38.5926 9.68182L38.0164 13.8323L36.6079 13.6407L37.5362 7L38.8487 7.19156L41.2175 11.6293L41.7297 7.57468Z" fill="white"/>
    <path d="M45.4107 14.1515L48.0996 15.1732L47.6195 16.4183L42.8818 14.5985L42.9459 14.4069L47.4274 10.6077L44.9626 9.64991L45.4427 8.40479L49.9243 10.1288L49.8282 10.3842L45.4107 14.1515Z" fill="white"/>
    <path d="M50.2124 16.4502L52.4852 17.8869L51.749 19.0362L48.2598 16.8333L51.845 11.1504L55.2382 13.2895L54.534 14.4069L52.3572 13.034L51.6529 14.1515L53.6056 15.3966L52.9014 16.514L50.9487 15.2689L50.2124 16.4502Z" fill="white"/>
  </g>
  <g filter="url(#filter0_d_1_17132)">
    <path fill-rule="evenodd" clip-rule="evenodd" d="M18.1436 36C18.1436 26.0589 26.2024 18 36.1436 18C46.0847 18 54.1436 26.0589 54.1436 36C54.1436 45.9411 46.0847 54 36.1436 54C26.2024 54 18.1436 45.9411 18.1436 36ZM20.9127 28.8845C19.9015 31.0453 19.3366 33.4567 19.3366 36C19.3366 38.5419 19.9009 40.9521 20.9111 43.1119L22.0747 42.5927L29.5486 50.0665L29.0289 51.2312C31.1895 52.2422 33.6005 52.807 36.1436 52.807C38.6865 52.807 41.0975 52.2422 43.2581 51.2313L42.7384 50.0666L50.2122 42.5928L51.376 43.1121C52.3862 40.9522 52.9505 38.542 52.9505 36C52.9505 33.4566 52.3856 31.0452 51.3743 28.8844L50.2121 29.403L42.7383 21.9291L43.2564 20.7679C41.0963 19.7575 38.6858 19.193 36.1436 19.193C33.6012 19.193 31.1907 19.7575 29.0305 20.768L29.5487 21.9292L22.0748 29.4031L20.9127 28.8845Z" fill="white"/>
  </g>
  <g filter="url(#filter1_d_1_17132)">
    <path d="M46.7725 38.4264H41.9794L40.0959 40.2633H44.889L46.7725 38.4264Z" fill="white"/>
    <path d="M35.5767 42.6315L24.7681 32.2104H29.175L35.5767 38.3826L41.9785 32.2104H46.3854L35.5767 42.6315Z" fill="white"/>
    <path d="M49.4068 35.6705H44.6137L42.7302 37.5074H47.5233L49.4068 35.6705Z" fill="white"/>
    <path d="M24.5674 38.4264H29.3605L31.244 40.2633H26.4509L24.5674 38.4264Z" fill="white"/>
    <path d="M21.9331 35.6705H26.7262L28.6097 37.5074H23.8166L21.9331 35.6705Z" fill="white"/>
  </g>
  <g filter="url(#filter2_d_1_17132)">
    <path fill-rule="evenodd" clip-rule="evenodd" d="M35.6698 29.3684L32.354 32.6842L35.6698 36L38.9856 32.6842L35.6698 29.3684ZM35.6698 31.2572L34.243 32.684L35.6698 34.1109L37.0966 32.684L35.6698 31.2572Z" fill="white"/>
  </g>
  <defs>
    <filter id="filter0_d_1_17132" x="17.6699" y="18" width="36.9474" height="36.9474" filterUnits="userSpaceOnUse" color-interpolation-filters="sRGB">
      <feFlood flood-opacity="0" result="BackgroundImageFix"/>
      <feColorMatrix in="SourceAlpha" type="matrix" values="0 0 0 0 0 0 0 0 0 0 0 0 0 0 0 0 0 0 127 0" result="hardAlpha"/>
      <feOffset dy="0.473684"/>
      <feGaussianBlur stdDeviation="0.236842"/>
      <feColorMatrix type="matrix" values="0 0 0 0 0 0 0 0 0 0 0 0 0 0 0 0 0 0 0.18 0"/>
      <feBlend mode="normal" in2="BackgroundImageFix" result="effect1_dropShadow_1_17132"/>
      <feBlend mode="normal" in="SourceGraphic" in2="effect1_dropShadow_1_17132" result="shape"/>
    </filter>
    <filter id="filter1_d_1_17132" x="21.4594" y="32.2104" width="28.421" height="11.3685" filterUnits="userSpaceOnUse" color-interpolation-filters="sRGB">
      <feFlood flood-opacity="0" result="BackgroundImageFix"/>
      <feColorMatrix in="SourceAlpha" type="matrix" values="0 0 0 0 0 0 0 0 0 0 0 0 0 0 0 0 0 0 127 0" result="hardAlpha"/>
      <feOffset dy="0.473684"/>
      <feGaussianBlur stdDeviation="0.236842"/>
      <feColorMatrix type="matrix" values="0 0 0 0 0 0 0 0 0 0 0 0 0 0 0 0 0 0 0.18 0"/>
      <feBlend mode="normal" in2="BackgroundImageFix" result="effect1_dropShadow_1_17132"/>
      <feBlend mode="normal" in="SourceGraphic" in2="effect1_dropShadow_1_17132" result="shape"/>
    </filter>
    <filter id="filter2_d_1_17132" x="31.8803" y="29.3684" width="7.57872" height="7.57896" filterUnits="userSpaceOnUse" color-interpolation-filters="sRGB">
      <feFlood flood-opacity="0" result="BackgroundImageFix"/>
      <feColorMatrix in="SourceAlpha" type="matrix" values="0 0 0 0 0 0 0 0 0 0 0 0 0 0 0 0 0 0 127 0" result="hardAlpha"/>
      <feOffset dy="0.473684"/>
      <feGaussianBlur stdDeviation="0.236842"/>
      <feColorMatrix type="matrix" values="0 0 0 0 0 0 0 0 0 0 0 0 0 0 0 0 0 0 0.18 0"/>
      <feBlend mode="normal" in2="BackgroundImageFix" result="effect1_dropShadow_1_17132"/>
      <feBlend mode="normal" in="SourceGraphic" in2="effect1_dropShadow_1_17132" result="shape"/>
    </filter>
    <linearGradient id="paint0_linear_1_17132" x1="68" y1="-11.8369" x2="14.0164" y2="73.9479" gradientUnits="userSpaceOnUse">
      <stop stop-color="#FFECEA"/>
      <stop offset="0.297056" stop-color="#EEA69F"/>
      <stop offset="0.706" stop-color="#BE6459"/>
      <stop offset="1" stop-color="#451918"/>
    </linearGradient>
    <clipPath id="clip0_1_17132">
      <rect width="46" height="59" fill="white" transform="translate(13.1436 7)"/>
    </clipPath>
  </defs>
</svg>
  