<svg width="24" height="25" viewBox="0 0 24 25" fill="none"
  xmlns="http://www.w3.org/2000/svg">
  <path fill-rule="evenodd" clip-rule="evenodd" d="M1.46447 15.9645C2.40215 15.0268 3.67392 14.5 5 14.5H13C14.3261 14.5 15.5979 15.0268 16.5355 15.9645C17.4732 16.9021 18 18.1739 18 19.5V21.5C18 22.0523 17.5523 22.5 17 22.5C16.4477 22.5 16 22.0523 16 21.5V19.5C16 18.7044 15.6839 17.9413 15.1213 17.3787C14.5587 16.8161 13.7956 16.5 13 16.5H5C4.20435 16.5 3.44129 16.8161 2.87868 17.3787C2.31607 17.9413 2 18.7044 2 19.5V21.5C2 22.0523 1.55228 22.5 1 22.5C0.447715 22.5 0 22.0523 0 21.5V19.5C0 18.1739 0.526784 16.9021 1.46447 15.9645Z" fill="#383636"/>
  <path fill-rule="evenodd" clip-rule="evenodd" d="M9 4.5C7.34315 4.5 6 5.84315 6 7.5C6 9.15685 7.34315 10.5 9 10.5C10.6569 10.5 12 9.15685 12 7.5C12 5.84315 10.6569 4.5 9 4.5ZM4 7.5C4 4.73858 6.23858 2.5 9 2.5C11.7614 2.5 14 4.73858 14 7.5C14 10.2614 11.7614 12.5 9 12.5C6.23858 12.5 4 10.2614 4 7.5Z" fill="#383636"/>
  <path fill-rule="evenodd" clip-rule="evenodd" d="M19.032 15.3801C19.1701 14.8454 19.7155 14.5238 20.2502 14.6619C21.3229 14.9388 22.2732 15.5642 22.9519 16.4398C23.6307 17.3153 23.9994 18.3915 24.0002 19.4994L24.0002 21.5001C24.0002 22.0524 23.5525 22.5001 23.0002 22.5001C22.448 22.5001 22.0002 22.0524 22.0002 21.5001L22.0002 19.5009C22.0002 19.5008 22.0002 19.501 22.0002 19.5009C21.9997 18.8363 21.7784 18.1904 21.3713 17.6651C20.964 17.1398 20.3938 16.7645 19.7502 16.5984C19.2155 16.4603 18.8939 15.9149 19.032 15.3801Z" fill="#383636"/>
  <path fill-rule="evenodd" clip-rule="evenodd" d="M15.0315 3.38208C15.1685 2.84706 15.7133 2.52439 16.2483 2.66137C17.3238 2.93675 18.2771 3.56225 18.9578 4.43926C19.6386 5.31627 20.0081 6.39491 20.0081 7.50512C20.0081 8.61534 19.6386 9.69397 18.9578 10.571C18.2771 11.448 17.3238 12.0735 16.2483 12.3489C15.7133 12.4859 15.1685 12.1632 15.0315 11.6282C14.8945 11.0931 15.2172 10.5484 15.7522 10.4114C16.3975 10.2461 16.9695 9.87085 17.3779 9.34464C17.7864 8.81843 18.0081 8.17125 18.0081 7.50512C18.0081 6.839 17.7864 6.19181 17.3779 5.66561C16.9695 5.1394 16.3975 4.7641 15.7522 4.59887C15.2172 4.46189 14.8945 3.91711 15.0315 3.38208Z" fill="#383636"/>
</svg>
  