<svg width="24" height="24" viewBox="0 0 24 24" fill="none"
  xmlns="http://www.w3.org/2000/svg">
  <path fill-rule="evenodd" clip-rule="evenodd" d="M12 3C8.68629 3 6 5.68629 6 9V14C6 14.7286 5.80521 15.4117 5.46487 16H18.5351C18.1948 15.4117 18 14.7286 18 14V9C18 5.68629 15.3137 3 12 3ZM22 16C20.8954 16 20 15.1046 20 14V9C20 4.58172 16.4183 1 12 1C7.58172 1 4 4.58172 4 9V14C4 15.1046 3.10457 16 2 16C1.44772 16 1 16.4477 1 17C1 17.5523 1.44772 18 2 18H22C22.5523 18 23 17.5523 23 17C23 16.4477 22.5523 16 22 16ZM9.5 19C10.0523 19 10.5 19.4477 10.5 20C10.5 20.8284 11.1716 21.5 12 21.5C12.8284 21.5 13.5 20.8284 13.5 20C13.5 19.4477 13.9477 19 14.5 19C15.0523 19 15.5 19.4477 15.5 20C15.5 21.933 13.933 23.5 12 23.5C10.067 23.5 8.5 21.933 8.5 20C8.5 19.4477 8.94772 19 9.5 19Z" fill="#383636"/>
</svg>
  