<?xml version="1.0" encoding="utf-8"?>
<!-- Generator: Adobe Illustrator 24.1.2, SVG Export Plug-In . SVG Version: 6.00 Build 0)  -->
<svg version="1.1" id="Слой_1" xmlns="http://www.w3.org/2000/svg" xmlns:xlink="http://www.w3.org/1999/xlink" x="0px" y="0px"
	 width="191px" height="32px" viewBox="0 0 191 32" enable-background="new 0 0 191 32" xml:space="preserve">
<path fill="#5B8388" d="M104.93,32c-0.09-0.19-0.07-0.38,0.02-0.57c0.43-0.86,0.85-1.73,1.27-2.59c0.27-0.54,0.55-1.08,0.81-1.63
	c0.3-0.64,0.63-1.26,0.94-1.9c0.41-0.86,0.83-1.71,1.25-2.56c0.57-1.15,1.13-2.3,1.69-3.45c0.35-0.73,0.73-1.44,1.07-2.17
	c0.27-0.58,0.57-1.14,0.84-1.72c0.37-0.8,0.78-1.58,1.16-2.37c0.28-0.58,0.59-1.15,0.85-1.74c0.34-0.76,0.74-1.48,1.08-2.24
	c0.26-0.58,0.56-1.14,0.85-1.71c0.1-0.21,0.29-0.3,0.51-0.31c0.08,0,0.17,0,0.26,0c0.96,0,1.93,0,2.89,0c0.09,0,0.19,0.01,0.28,0.02
	c0.24,0.01,0.36,0.15,0.45,0.34c0.56,1.14,1.13,2.28,1.69,3.42c0.31,0.62,0.62,1.24,0.92,1.87c0.3,0.61,0.64,1.21,0.93,1.82
	c0.16,0.34,0.33,0.68,0.49,1.01c0.31,0.63,0.61,1.26,0.93,1.88c0.34,0.66,0.64,1.34,0.97,2.01c0.3,0.61,0.62,1.21,0.92,1.81
	c0.25,0.5,0.48,1.02,0.73,1.52c0.22,0.46,0.46,0.92,0.69,1.38c0.1,0.2,0.22,0.39,0.31,0.6c0.14,0.34-0.05,0.62-0.39,0.7
	c-0.07,0.02-0.14,0.01-0.21,0.01c-1.13,0-2.27,0-3.4,0c-0.21,0-0.37-0.07-0.52-0.2c-0.09-0.08-0.13-0.19-0.16-0.27
	c-0.1-0.31-0.27-0.59-0.41-0.88c-0.26-0.56-0.53-1.11-0.79-1.66c-0.06-0.13-0.14-0.2-0.28-0.2c-0.06,0-0.11,0-0.17,0
	c-2.13,0-4.26,0-6.39,0c-0.26,0-0.47-0.07-0.58-0.33c-0.05-0.12-0.05-0.22,0.01-0.34c0.09-0.2,0.19-0.39,0.28-0.59
	c0.17-0.37,0.33-0.75,0.52-1.12c0.24-0.49,0.46-0.99,0.71-1.47c0.07-0.13,0.18-0.24,0.36-0.26c0.16-0.02,0.32-0.03,0.49-0.03
	c0.87,0,1.74,0,2.61,0c0.06,0,0.13,0.01,0.19-0.01c0.06-0.01,0.12-0.04,0.07-0.13c-0.27-0.5-0.49-1.03-0.73-1.54
	c-0.26-0.55-0.53-1.09-0.79-1.64c-0.19-0.4-0.4-0.78-0.59-1.18c-0.07-0.15-0.14-0.3-0.2-0.45c-0.07-0.18-0.23-0.23-0.39-0.27
	c-0.15-0.04-0.26,0.08-0.36,0.18c-0.14,0.14-0.19,0.34-0.28,0.51c-0.26,0.51-0.5,1.03-0.75,1.54c-0.28,0.57-0.56,1.15-0.83,1.72
	c-0.29,0.6-0.58,1.2-0.87,1.8c-0.28,0.6-0.6,1.18-0.87,1.79c-0.27,0.6-0.58,1.18-0.85,1.77c-0.27,0.59-0.57,1.17-0.85,1.75
	c-0.33,0.7-0.67,1.4-1.01,2.1c-0.24,0.49-0.48,0.98-0.71,1.47c-0.3,0.61-0.59,1.23-0.89,1.85c-0.24,0.5-0.49,0.99-0.73,1.48
	c-0.18,0.37-0.35,0.73-0.53,1.1c-0.01,0.02-0.01,0.05-0.01,0.07C107.93,32,106.43,32,104.93,32z"/>
<path fill="#383636" d="M18.81,31.86c-0.04,0.09-0.12,0.09-0.2,0.09c-0.52,0-1.05,0.01-1.57-0.05c-0.3-0.04-0.6-0.06-0.91-0.05
	c-0.27-0.01-0.55,0.02-0.81-0.08c-0.04-0.01-0.08-0.01-0.12-0.01c-0.38,0.02-0.75-0.12-1.13-0.12c-0.25-0.13-0.53-0.08-0.8-0.15
	c-0.23-0.06-0.47-0.1-0.71-0.14c-0.23-0.04-0.46-0.07-0.68-0.15c-0.13-0.05-0.27-0.07-0.41-0.1c-0.6-0.13-1.18-0.33-1.76-0.53
	c-0.53-0.18-1.05-0.4-1.56-0.63c-0.9-0.4-1.76-0.89-2.57-1.45c-0.91-0.63-1.72-1.37-2.44-2.21c-0.6-0.69-1.1-1.44-1.53-2.24
	c-0.27-0.5-0.5-1.01-0.68-1.55c-0.14-0.39-0.27-0.79-0.38-1.19c-0.17-0.63-0.29-1.26-0.39-1.9c-0.06-0.39-0.07-0.78-0.11-1.17
	c-0.07-0.66-0.08-1.32-0.03-1.97c0.03-0.43,0.04-0.86,0.12-1.29c0.05-0.29,0.08-0.59,0.14-0.88c0.08-0.34,0.14-0.68,0.25-1.02
	c0.08-0.24,0.13-0.48,0.22-0.71c0.17-0.5,0.38-0.99,0.61-1.47c0.21-0.44,0.46-0.85,0.73-1.26c0.25-0.37,0.52-0.72,0.81-1.07
	c0.53-0.64,1.13-1.22,1.78-1.73c0.78-0.62,1.62-1.15,2.51-1.6c0.42-0.21,0.84-0.4,1.27-0.58c0.28-0.12,0.57-0.24,0.86-0.34
	c0.24-0.08,0.49-0.16,0.73-0.23c0.28-0.09,0.58-0.14,0.85-0.25c0.12-0.05,0.26-0.07,0.38-0.09c0.21-0.03,0.42-0.11,0.64-0.13
	c0.21-0.02,0.41-0.08,0.62-0.11c0.48-0.08,0.95-0.16,1.44-0.18c0.24-0.01,0.48,0,0.72-0.06c0.07-0.02,0.16,0,0.24,0
	c-0.01,0.09-0.06,0.13-0.13,0.18c-0.45,0.3-0.89,0.6-1.3,0.94C12.74,5.03,12,5.69,11.35,6.43c-0.44,0.51-0.87,1.03-1.25,1.58
	c-0.45,0.65-0.84,1.33-1.17,2.04c-0.26,0.55-0.46,1.13-0.62,1.72c-0.1,0.36-0.18,0.71-0.24,1.07c-0.07,0.42-0.15,0.83-0.14,1.26
	c0,0.4,0,0.8,0.01,1.2c0.01,0.34,0.09,0.66,0.16,0.99c0.08,0.36,0.18,0.71,0.31,1.06c0.18,0.5,0.42,0.97,0.7,1.42
	c0.36,0.57,0.79,1.09,1.28,1.56c0.51,0.49,1.08,0.9,1.7,1.25c0.47,0.26,0.96,0.48,1.47,0.64c0.5,0.16,1.02,0.27,1.55,0.34
	c0.71,0.09,1.42,0.09,2.13,0.04c0.55-0.04,1.11-0.09,1.65-0.18c0.37-0.06,0.73-0.14,1.09-0.25c0.32-0.1,0.31-0.07,0.29,0.23
	c-0.02,0.48-0.21,0.9-0.44,1.3c-0.42,0.71-1.01,1.26-1.61,1.81c-0.47,0.43-0.99,0.81-1.45,1.25c-0.42,0.4-0.85,0.79-1.14,1.31
	c-0.21,0.38-0.28,0.79-0.23,1.21c0.01,0.12,0.1,0.23,0.09,0.36c-0.01,0.08-0.04,0.16,0.08,0.18c0.01,0.03,0.01,0.06,0.02,0.1
	c0.05,0.17,0.12,0.32,0.27,0.42l0,0.01c-0.01,0.07,0.03,0.08,0.08,0.08c0.01,0.02,0.01,0.03,0.02,0.05
	c0.06,0.11,0.13,0.21,0.26,0.23l0.01,0.02c0.14,0.22,0.36,0.33,0.59,0.42c0,0,0.02,0.01,0.02,0.01c0.04,0.05,0.08,0.09,0.14,0.12
	c0.29,0.12,0.57,0.27,0.87,0.36c0.14,0.04,0.27,0.16,0.44,0.11c0.03,0,0.07,0.01,0.1,0.01c0.05,0.1,0.13,0.11,0.23,0.08
	C18.68,31.85,18.74,31.86,18.81,31.86z"/>
<path fill="#5B8388" d="M14.82,0.03c0.17-0.05,0.34-0.02,0.51-0.02c0.05,0,0.09,0.02,0.14,0.02c0.61-0.02,1.22,0.04,1.82,0.09
	c0.49,0.03,1,0.03,1.48,0.15c0.04,0.01,0.09,0.01,0.14,0.01c0.34-0.02,0.67,0.08,1,0.12c0.35,0.04,0.7,0.11,1.05,0.19
	c0.32,0.07,0.65,0.1,0.96,0.2c0.29,0.09,0.58,0.14,0.87,0.24c0.22,0.08,0.46,0.13,0.68,0.21c0.31,0.11,0.64,0.18,0.94,0.31
	c0.35,0.15,0.72,0.28,1.06,0.44c0.43,0.2,0.85,0.41,1.27,0.64c0.85,0.46,1.63,1.01,2.37,1.62c0.49,0.41,0.94,0.87,1.37,1.34
	c0.21,0.23,0.41,0.49,0.6,0.75c0.22,0.3,0.43,0.61,0.63,0.92c0.24,0.38,0.46,0.78,0.66,1.19c0.12,0.26,0.25,0.52,0.35,0.79
	c0.1,0.29,0.24,0.56,0.31,0.86c0.06,0.28,0.2,0.55,0.21,0.84c0.15,0.17,0.03,0.42,0.17,0.6c0.03,0.04,0.02,0.11,0.02,0.16
	c-0.01,0.11,0,0.2,0.06,0.29c0.02,0.03,0.03,0.06,0.03,0.09c-0.03,0.34,0.14,0.66,0.1,1c-0.01,0.08,0,0.16,0.02,0.23
	c0.06,0.21,0.08,0.42,0.08,0.63c0.01,0.69,0.01,1.38-0.01,2.07c0,0.04-0.01,0.08-0.02,0.12c-0.05,0.21-0.09,0.43-0.07,0.65
	c0.01,0.12,0,0.25-0.06,0.37c-0.03,0.07-0.04,0.15-0.04,0.23c0.01,0.13,0,0.25-0.07,0.36c-0.03,0.05-0.04,0.11-0.03,0.16
	c0.02,0.12-0.01,0.23-0.07,0.34c-0.01,0.02-0.02,0.05-0.02,0.07c-0.01,0.31-0.13,0.6-0.21,0.89c-0.09,0.31-0.22,0.61-0.33,0.92
	c-0.17,0.45-0.39,0.86-0.6,1.3c-0.08,0.18-0.19,0.34-0.3,0.51c-0.14,0.22-0.27,0.45-0.43,0.66c-0.15,0.19-0.29,0.38-0.44,0.58
	c-0.02,0.02-0.04,0.05-0.06,0.07c-0.33,0.48-0.76,0.89-1.18,1.28c-0.39,0.37-0.81,0.7-1.25,1.01c-0.52,0.37-1.05,0.71-1.61,1.01
	c-0.41,0.23-0.84,0.41-1.27,0.61c-0.47,0.22-0.96,0.39-1.45,0.57c-0.33,0.12-0.67,0.21-1.01,0.31c-0.37,0.1-0.73,0.21-1.11,0.27
	c-0.23,0.04-0.46,0.07-0.69,0.13c-0.33,0.08-0.68,0.05-1.01,0.16c-0.08,0.03-0.17,0.01-0.26,0.02c-0.3,0-0.59,0.04-0.88,0.08
	c-0.11,0.02-0.22,0.01-0.33,0.01c-0.04,0-0.09,0-0.1-0.04c-0.01-0.05,0.02-0.09,0.06-0.11c0.08-0.05,0.15-0.1,0.23-0.16
	c0.56-0.4,1.11-0.83,1.64-1.27c0.51-0.42,0.96-0.89,1.42-1.36c0.38-0.39,0.73-0.81,1.07-1.24c0.4-0.5,0.75-1.04,1.07-1.59
	c0.27-0.46,0.5-0.95,0.69-1.45c0.11-0.3,0.25-0.59,0.32-0.9c0.08-0.32,0.21-0.63,0.25-0.96c0.02-0.19,0.08-0.39,0.11-0.59
	c0.03-0.15,0.1-0.3,0.03-0.46c-0.02-0.05,0.01-0.11,0.02-0.16c0.11-0.48,0.12-0.96,0.1-1.45c-0.01-0.16-0.05-0.32-0.08-0.48
	c-0.01-0.09-0.05-0.18-0.01-0.28c0.01-0.04,0-0.09-0.01-0.14c-0.09-0.26-0.1-0.53-0.18-0.79c-0.05-0.17-0.12-0.34-0.17-0.5
	c-0.09-0.26-0.21-0.5-0.32-0.74c-0.18-0.41-0.41-0.79-0.67-1.16c-0.29-0.41-0.61-0.8-0.97-1.15c-0.44-0.42-0.92-0.79-1.44-1.11
	c-0.42-0.27-0.87-0.48-1.33-0.67c-0.23-0.09-0.48-0.16-0.72-0.24c-0.18-0.05-0.37-0.05-0.53-0.15c-0.01-0.01-0.03-0.01-0.04-0.01
	c-0.29,0.01-0.56-0.12-0.85-0.12c-0.39,0-0.77-0.11-1.17-0.08c-0.56,0.04-1.12,0.06-1.68,0.11c-0.41,0.04-0.82,0.09-1.22,0.19
	c-0.27,0.06-0.56,0.11-0.82,0.23c-0.09,0.04-0.14,0-0.15-0.08c-0.01-0.06-0.03-0.13-0.01-0.19c0.09-0.27,0.11-0.56,0.23-0.83
	c0.3-0.72,0.8-1.3,1.35-1.82c0.35-0.33,0.72-0.66,1.1-0.96c0.61-0.5,1.19-1.02,1.71-1.62c0.3-0.34,0.46-0.75,0.54-1.19
	c0.02-0.1,0.02-0.2-0.02-0.3c-0.03-0.06-0.04-0.14-0.05-0.21c-0.04-0.44-0.23-0.8-0.52-1.11c-0.45-0.49-0.99-0.83-1.61-1.06
	c-0.44-0.16-0.88-0.31-1.33-0.4C14.85,0.07,14.84,0.05,14.82,0.03z"/>
<path fill="#383636" d="M61.7,16.22c0-2.85,0-5.71,0-8.56c0-0.2,0.03-0.39,0.21-0.51c0.12-0.08,0.25-0.14,0.4-0.14
	c0.54,0,1.08,0,1.62,0c3.08,0,6.17-0.01,9.25,0.01c0.32,0,0.65,0.05,0.97,0.09c0.37,0.05,0.75,0.15,1.11,0.28
	c0.74,0.27,1.42,0.65,2.01,1.19c0.41,0.38,0.78,0.8,1.07,1.28c0.29,0.47,0.51,0.97,0.67,1.5c0.26,0.89,0.32,1.79,0.24,2.7
	c-0.03,0.42-0.12,0.83-0.24,1.24c-0.21,0.72-0.53,1.37-0.97,1.98c-0.42,0.58-0.94,1.05-1.55,1.43c-0.16,0.1-0.33,0.38-0.18,0.61
	c0.11,0.17,0.21,0.34,0.33,0.51c0.57,0.85,1.13,1.69,1.7,2.54c0.39,0.58,0.78,1.15,1.17,1.73c0.13,0.19,0.27,0.37,0.38,0.57
	c0.14,0.26,0.09,0.74-0.37,0.77c-0.09,0.01-0.17,0.01-0.26,0.01c-1.12,0-2.24-0.01-3.36,0c-0.32,0-0.52-0.1-0.7-0.39
	c-0.26-0.43-0.55-0.84-0.82-1.26c-0.52-0.79-1.02-1.58-1.54-2.37c-0.34-0.51-0.68-1.02-1.01-1.53c-0.11-0.16-0.24-0.23-0.42-0.23
	c-0.41,0-0.81,0-1.22,0c-0.69,0-1.38,0-2.07,0c-0.17,0-0.3-0.07-0.41-0.18c-0.07-0.07-0.12-0.16-0.11-0.27c0.01-0.28,0-0.57,0-0.85
	c0-0.72,0-1.43,0-2.15c0-0.19,0.07-0.33,0.22-0.44c0.05-0.04,0.1-0.06,0.17-0.07c0.09-0.01,0.19-0.01,0.28-0.01
	c1.35,0,2.69,0.01,4.04-0.01c0.3,0,0.6-0.06,0.9-0.15c0.42-0.12,0.76-0.35,1.04-0.68c0.18-0.21,0.27-0.46,0.35-0.72
	c0.12-0.35,0.1-0.7,0.07-1.05c-0.07-0.77-0.44-1.36-1.17-1.69c-0.3-0.13-0.61-0.18-0.92-0.22c-0.35-0.05-0.7-0.04-1.05-0.04
	c-1.47,0-2.94,0-4.41,0c-0.08,0-0.16-0.01-0.23,0c-0.39,0.05-0.55,0.18-0.56,0.58c0,0.07,0,0.14,0,0.21c0,4.27,0,8.54,0,12.81
	c0,0.09,0,0.19-0.01,0.28c-0.02,0.22-0.17,0.37-0.39,0.4c-0.08,0.01-0.17,0.01-0.26,0.01c-1.08,0-2.16,0-3.24,0
	c-0.03,0-0.06,0-0.09,0c-0.43-0.01-0.62-0.21-0.62-0.64C61.7,21.95,61.7,19.08,61.7,16.22z"/>
<path fill="#383636" d="M100.52,25.45c-0.63,0-1.25,0-1.88,0c-0.36,0-0.47-0.05-0.66-0.46c-0.18-0.4-0.36-0.8-0.54-1.21
	c-0.16-0.37-0.32-0.75-0.49-1.11c-0.19-0.41-0.36-0.83-0.54-1.24c-0.22-0.49-0.43-0.99-0.65-1.47c-0.24-0.53-0.48-1.07-0.71-1.6
	c-0.21-0.47-0.41-0.93-0.61-1.41c-0.28-0.68-0.6-1.34-0.9-2.01c-0.22-0.49-0.41-0.99-0.64-1.47c-0.25-0.52-0.46-1.06-0.71-1.58
	c-0.22-0.46-0.4-0.93-0.6-1.39c-0.24-0.54-0.49-1.08-0.73-1.62c-0.17-0.37-0.34-0.74-0.49-1.11c-0.14-0.35,0.01-0.74,0.5-0.75
	c1.18-0.02,2.36,0,3.55-0.01c0.23,0,0.4,0.12,0.5,0.31c0.18,0.34,0.33,0.71,0.49,1.06c0.17,0.37,0.35,0.74,0.52,1.11
	c0.21,0.45,0.43,0.91,0.64,1.36c0.17,0.35,0.33,0.71,0.49,1.06c0.14,0.3,0.29,0.6,0.44,0.9c0.18,0.39,0.36,0.78,0.54,1.17
	c0.44,0.95,0.88,1.89,1.32,2.83c0.25,0.54,0.5,1.08,0.76,1.62c0.08,0.16,0.21,0.27,0.41,0.27c0.21,0.01,0.34-0.1,0.42-0.26
	c0.22-0.43,0.43-0.87,0.65-1.3c0.25-0.49,0.49-0.99,0.74-1.48c0.3-0.61,0.6-1.22,0.91-1.82c0.21-0.41,0.43-0.81,0.63-1.22
	c0.28-0.6,0.58-1.19,0.88-1.78c0.3-0.61,0.61-1.22,0.91-1.83c0.24-0.47,0.48-0.94,0.72-1.41c0.27-0.54,0.53-1.09,0.8-1.63
	c0.27-0.55,0.55-1.09,0.82-1.64c0.38-0.75,0.76-1.49,1.13-2.24c0.1-0.2,0.19-0.4,0.3-0.59c0.11-0.18,0.24-0.27,0.46-0.27
	c1.21,0.01,2.41,0.02,3.62,0c0.56-0.01,0.68,0.46,0.5,0.82c-0.22,0.44-0.42,0.89-0.63,1.33c-0.21,0.43-0.41,0.86-0.62,1.29
	c-0.22,0.46-0.43,0.91-0.64,1.37c-0.22,0.49-0.5,0.96-0.71,1.45c-0.19,0.45-0.41,0.89-0.62,1.33c-0.26,0.55-0.52,1.1-0.79,1.64
	c-0.22,0.44-0.42,0.89-0.63,1.33c-0.13,0.28-0.26,0.57-0.4,0.85c-0.22,0.47-0.45,0.93-0.67,1.4c-0.22,0.47-0.45,0.93-0.67,1.39
	c-0.33,0.68-0.65,1.37-0.97,2.05c-0.23,0.48-0.48,0.97-0.7,1.45c-0.23,0.51-0.48,1.01-0.71,1.52c-0.29,0.65-0.62,1.27-0.93,1.91
	c-0.3,0.64-0.59,1.28-0.89,1.92c-0.13,0.27-0.26,0.53-0.38,0.8c-0.11,0.24-0.29,0.38-0.58,0.37
	C101.8,25.44,101.16,25.45,100.52,25.45z"/>
<path fill="#383636" d="M41.07,16.22c0-2.86,0-5.72,0-8.58c0-0.11-0.02-0.23,0.05-0.34c0.11-0.18,0.29-0.26,0.49-0.28
	c0.08-0.01,0.16,0,0.23,0c3.56,0,7.12-0.01,10.68,0.01c0.33,0,0.67,0.03,0.99,0.09c0.46,0.09,0.92,0.18,1.34,0.37
	c0.65,0.29,1.27,0.65,1.8,1.15c0.45,0.42,0.83,0.89,1.14,1.42c0.29,0.51,0.5,1.05,0.64,1.62c0.2,0.8,0.23,1.6,0.15,2.41
	c-0.09,1.04-0.4,2.01-0.99,2.89c-0.54,0.81-1.23,1.44-2.07,1.92c-0.44,0.25-0.91,0.44-1.4,0.56c-0.51,0.13-1.04,0.22-1.57,0.22
	c-1.67,0-3.35,0-5.02,0c-0.25,0-0.42-0.09-0.53-0.3c-0.04-0.07-0.04-0.14-0.04-0.2c0-0.98,0-1.97,0-2.95c0-0.3,0.18-0.49,0.48-0.5
	c0.23-0.01,0.45,0,0.68,0c1.17,0,2.33,0.01,3.5,0c0.3,0,0.6-0.07,0.9-0.15c0.5-0.14,0.88-0.43,1.16-0.86
	c0.14-0.22,0.22-0.46,0.27-0.72c0.07-0.38,0.07-0.77-0.01-1.14c-0.1-0.5-0.35-0.91-0.76-1.2c-0.35-0.24-0.74-0.37-1.17-0.42
	c-0.37-0.04-0.75-0.06-1.12-0.06c-1.53,0-3.07,0-4.6,0c-0.08,0-0.16-0.01-0.23,0.02c-0.28,0.09-0.39,0.19-0.42,0.56
	c0,0.06,0,0.13,0,0.19c0,4.27,0,8.54,0,12.81c0,0.05-0.01,0.11,0,0.16c0.04,0.32-0.2,0.56-0.54,0.56c-0.49-0.01-0.97,0-1.46,0
	c-0.66,0-1.31,0-1.97,0c-0.12,0-0.25,0.01-0.36-0.06c-0.2-0.12-0.26-0.28-0.26-0.51c0.01-2,0-4.01,0-6.01
	C41.07,17.98,41.07,17.1,41.07,16.22z"/>
<path fill="#383636" d="M156.38,18.62c-0.46,0.48-0.92,0.96-1.37,1.43c-0.23,0.24-0.45,0.5-0.7,0.73c-0.19,0.18-0.25,0.4-0.25,0.65
	c0,1.04,0,2.08,0,3.11c0,0.13-0.01,0.25,0,0.38c0.02,0.3-0.19,0.53-0.52,0.52c-0.06,0-0.11,0-0.17,0c-1.06,0-2.11,0-3.17,0
	c-0.06,0-0.13,0-0.19,0c-0.37-0.01-0.57-0.22-0.57-0.59c0-5.75,0-11.5,0-17.24c0-0.37,0.23-0.6,0.61-0.6c1.13,0,2.27,0,3.4,0
	c0.37,0,0.61,0.24,0.6,0.59c-0.01,2.08-0.01,4.15-0.01,6.23c0,0.11,0,0.22,0.04,0.32c0.13,0.35,0.46,0.44,0.73,0.19
	c0.36-0.33,0.7-0.68,1.05-1.02c0.92-0.89,1.81-1.8,2.74-2.69c1.04-1,2.06-2.01,3.08-3.02c0.13-0.13,0.27-0.26,0.4-0.39
	c0.15-0.15,0.32-0.22,0.54-0.22c1.17,0,2.33,0,3.5,0c0.2,0,0.38,0.07,0.5,0.22c0.16,0.21,0.13,0.47-0.06,0.68
	c-0.15,0.17-0.31,0.33-0.47,0.49c-0.65,0.68-1.31,1.36-1.96,2.05c-0.76,0.8-1.51,1.59-2.27,2.39c-0.7,0.74-1.41,1.48-2.11,2.22
	c-0.13,0.13-0.25,0.27-0.38,0.4c-0.07,0.07-0.07,0.13,0,0.22c0.51,0.62,1.01,1.25,1.52,1.87c0.37,0.46,0.74,0.92,1.12,1.39
	c0.31,0.38,0.62,0.77,0.93,1.15c0.37,0.45,0.73,0.89,1.1,1.34c0.56,0.69,1.13,1.39,1.69,2.08c0.28,0.34,0.54,0.68,0.82,1.02
	c0.06,0.07,0.1,0.14,0.14,0.21c0.15,0.28-0.05,0.65-0.37,0.69c-0.09,0.01-0.17,0.01-0.26,0.01c-1.12,0-2.24-0.01-3.36,0
	c-0.28,0-0.5-0.07-0.69-0.3c-0.5-0.6-1.04-1.18-1.54-1.78c-0.58-0.68-1.16-1.36-1.75-2.03c-0.56-0.63-1.1-1.28-1.64-1.92
	c-0.19-0.22-0.38-0.44-0.57-0.67C156.49,18.7,156.43,18.66,156.38,18.62z"/>
<path fill="#383636" d="M182.88,18c-0.34-0.66-0.68-1.31-1.02-1.97c-0.3-0.59-0.6-1.19-0.9-1.79c-0.19-0.37-0.38-0.74-0.57-1.12
	c-0.09-0.17-0.21-0.29-0.43-0.28c-0.21,0.01-0.33,0.13-0.42,0.31c-0.29,0.56-0.57,1.13-0.86,1.7c-0.45,0.88-0.9,1.75-1.34,2.63
	c-0.47,0.92-0.94,1.84-1.4,2.76c-0.46,0.91-0.92,1.82-1.38,2.73c-0.36,0.7-0.73,1.4-1.1,2.1c-0.04,0.07-0.05,0.14-0.1,0.2
	c-0.08,0.1-0.17,0.16-0.29,0.17c-0.08,0-0.16,0.01-0.23,0.01c-1.13,0-2.27,0-3.4,0c-0.16,0-0.31-0.01-0.44-0.12
	c-0.15-0.13-0.21-0.47-0.11-0.67c0.23-0.43,0.45-0.86,0.68-1.29c0.34-0.64,0.66-1.28,1-1.91c0.33-0.63,0.64-1.27,0.97-1.9
	c0.47-0.93,0.95-1.85,1.43-2.78c0.33-0.64,0.67-1.27,0.98-1.92c0.19-0.39,0.39-0.76,0.59-1.14c0.19-0.36,0.37-0.71,0.55-1.07
	c0.26-0.53,0.55-1.04,0.82-1.56c0.2-0.39,0.4-0.77,0.6-1.16c0.21-0.4,0.4-0.81,0.6-1.21c0.24-0.46,0.5-0.92,0.73-1.39
	c0.12-0.24,0.31-0.31,0.54-0.32c0.79-0.01,1.58,0,2.37,0c0.25,0,0.5,0.02,0.75,0c0.41-0.04,0.67,0.15,0.83,0.52
	c0.24,0.55,0.54,1.07,0.8,1.6c0.34,0.68,0.69,1.35,1.04,2.03c0.29,0.57,0.57,1.15,0.87,1.71c0.34,0.63,0.66,1.28,0.99,1.92
	c0.37,0.71,0.73,1.41,1.09,2.12c0.24,0.48,0.49,0.96,0.74,1.44c0.35,0.7,0.71,1.4,1.07,2.1c0.42,0.83,0.84,1.66,1.27,2.49
	c0.26,0.51,0.52,1.02,0.79,1.53c0.03,0.07,0.05,0.13,0.05,0.2c0,0.17,0,0.33,0,0.5c0,0.15-0.06,0.23-0.21,0.26
	c-0.1,0.02-0.2,0.02-0.3,0.02c-1.11,0-2.22-0.01-3.33,0.01c-0.37,0.01-0.59-0.14-0.74-0.47c-0.28-0.62-0.6-1.22-0.92-1.82
	c-0.14-0.26-0.27-0.54-0.39-0.81c-0.05-0.1-0.1-0.13-0.19-0.14c-0.06,0-0.13,0-0.19,0c-2.3,0-4.6,0-6.9,0
	c-0.14,0-0.27-0.01-0.39-0.07c-0.23-0.12-0.34-0.43-0.23-0.65c0.38-0.78,0.74-1.57,1.11-2.36c0.11-0.24,0.25-0.46,0.35-0.7
	c0.12-0.3,0.37-0.4,0.65-0.4c0.81-0.01,1.61,0,2.42,0c0.31,0,0.63,0,0.94,0C182.73,18.05,182.8,18.07,182.88,18z"/>
<path fill="#383636" d="M137.09,7.01c2.68,0,5.37,0,8.05,0c0.44,0,0.68,0.31,0.67,0.66c-0.01,0.96,0,1.92,0,2.88
	c0,0.21-0.05,0.4-0.24,0.53c-0.06,0.04-0.12,0.07-0.19,0.07c-0.08,0.01-0.16,0.01-0.24,0.01c-1.71,0-3.41,0-5.12,0
	c-0.19,0-0.37,0.03-0.51,0.17c-0.06,0.06-0.1,0.12-0.1,0.2c0,0.12-0.01,0.24-0.01,0.35c0,4.3,0,8.6,0,12.9
	c0,0.13-0.01,0.25-0.06,0.37c-0.07,0.16-0.2,0.26-0.37,0.28c-0.08,0.01-0.17,0.01-0.26,0.01c-1.1,0-2.19,0-3.29,0
	c-0.14,0-0.28,0.02-0.41-0.07c-0.17-0.12-0.23-0.28-0.26-0.48c-0.01-0.08,0-0.16,0-0.24c0-4.31,0-8.62,0-12.93
	c0-0.12,0.02-0.25-0.06-0.37c-0.1-0.16-0.26-0.18-0.42-0.21c-0.08-0.01-0.16-0.01-0.23-0.01c-1.68,0-3.35,0-5.03,0
	c-0.07,0-0.14,0-0.21,0c-0.23-0.01-0.41-0.18-0.44-0.41c-0.01-0.05-0.01-0.11-0.01-0.16c0-0.99,0-1.98,0-2.97
	c0-0.14,0.01-0.27,0.1-0.38c0.11-0.13,0.26-0.2,0.43-0.21c0.09-0.01,0.19,0,0.28,0C131.82,7.01,134.46,7.01,137.09,7.01z"/>
<path fill="#383636" d="M82.7,16.24c0-2.85,0-5.71,0-8.56c0-0.13-0.02-0.26,0.06-0.39c0.13-0.2,0.31-0.28,0.53-0.28
	c1.1,0,2.21,0,3.31,0c0.13,0,0.25,0,0.38,0.07c0.17,0.09,0.29,0.2,0.3,0.39c0.01,0.07,0.01,0.14,0.01,0.21c0,5.71,0,11.41,0,17.12
	c0,0.12,0.02,0.25-0.05,0.37c-0.08,0.15-0.2,0.26-0.38,0.27c-0.07,0-0.14,0.01-0.21,0.01c-1.1,0-2.19,0-3.29,0
	c-0.02,0-0.05,0-0.07,0c-0.4,0.04-0.6-0.26-0.6-0.6C82.71,21.98,82.7,19.11,82.7,16.24z"/>
<path fill="#5B8388" d="M18.28,31.75c-0.17,0.06-0.3-0.06-0.44-0.11c-0.3-0.09-0.58-0.24-0.87-0.36c-0.06-0.03-0.1-0.07-0.14-0.12
	c0.21,0.01,0.36,0.15,0.54,0.23c0.26,0.1,0.51,0.2,0.78,0.28C18.21,31.68,18.26,31.69,18.28,31.75z"/>
<path fill="#5B8388" d="M16.82,31.15c-0.23-0.09-0.45-0.19-0.59-0.42C16.44,30.84,16.63,30.99,16.82,31.15z"/>
<path fill="#5B8388" d="M15.85,30.34c-0.15-0.1-0.22-0.25-0.27-0.42c0.02,0,0.04,0,0.04,0.01C15.67,30.08,15.82,30.17,15.85,30.34z"
	/>
<path fill="#5B8388" d="M16.22,30.72c-0.13-0.03-0.2-0.12-0.26-0.23C16.08,30.52,16.13,30.63,16.22,30.72z"/>
<path fill="#5B8388" d="M18.62,31.84c-0.09,0.02-0.18,0.02-0.23-0.08C18.48,31.74,18.57,31.74,18.62,31.84z"/>
<path fill="#5B8388" d="M15.56,29.83c-0.12-0.02-0.09-0.1-0.08-0.18C15.56,29.68,15.59,29.74,15.56,29.83z"/>
<path fill="#5B8388" d="M15.94,30.44c-0.05,0-0.1-0.02-0.08-0.09C15.89,30.37,15.94,30.38,15.94,30.44z"/>
</svg>
