<svg width="59" height="15" viewBox="0 0 59 15" fill="none"
  xmlns="http://www.w3.org/2000/svg">
  <path d="M10.8203 0.664673H0.313232V14.711H3.06572V11.0976H8.49129V8.4512H3.06572V3.28563H8.43835L8.49129 3.26018L10.8203 0.995473L11.1908 0.664673H10.8203Z" fill="white"/>
  <path d="M11.9219 2.44449L11.075 3.28422V14.7095H13.8275V0.637817L11.9219 2.44449Z" fill="white"/>
  <path d="M37.8865 3.23143V14.6822H40.6389V0.610474L37.8865 3.23143Z" fill="white"/>
  <path d="M31.9368 8.93527V5.90718H33.5512L36.3036 3.26078H31.9368V0.61438H29.1844V8.93527C29.1844 10.7419 29.6872 12.1415 30.6664 13.083C32.1485 14.508 34.3981 14.6861 35.986 14.6861V12.0397C34.2922 12.0397 33.1807 11.7598 32.6249 11.2254C32.1485 10.7674 31.9368 10.0295 31.9368 8.93527Z" fill="white"/>
  <path d="M51.2442 9.548C52.6469 8.19935 52.8586 7.05427 52.8586 5.8583C52.8586 2.95744 50.3973 0.590942 47.3802 0.590942C44.3631 0.590942 41.9018 2.95744 41.9018 5.8583C41.9018 7.63953 42.8016 9.24264 44.3102 10.235L46.3216 8.30113C45.1835 7.89399 44.6277 6.8507 44.6277 5.8583C44.6277 4.40787 45.8716 3.2119 47.3802 3.2119C48.8887 3.2119 50.0797 4.40787 50.1326 5.8583C50.1591 6.69802 49.8415 7.33418 46.7715 10.1587L41.8753 14.7645H52.8057V12.1435H48.4653L51.2442 9.548Z" fill="white"/>
  <path d="M56.7503 4.99122C57.9927 4.99122 58.9999 4.00006 58.9999 2.77741C58.9999 1.55475 57.9927 0.563599 56.7503 0.563599C55.5079 0.563599 54.5008 1.55475 54.5008 2.77741C54.5008 4.00006 55.5079 4.99122 56.7503 4.99122Z" fill="white"/>
  <path d="M27.5263 9.09189C27.5263 5.88567 24.8268 3.29016 21.4921 3.29016C18.1574 3.29016 15.4578 5.88567 15.4578 9.09189C15.4578 12.2981 18.1574 14.8936 21.4921 14.8936C22.7095 14.8936 23.8475 14.5374 24.7738 13.9521V14.7155H27.5263V9.21912C27.5263 9.16823 27.5263 9.14278 27.5263 9.09189ZM21.4921 12.2472C19.6659 12.2472 18.2103 10.8222 18.2103 9.09189C18.2103 7.36155 19.6659 5.91112 21.4921 5.91112C23.3182 5.91112 24.7738 7.33611 24.7738 9.06645C24.7738 10.7968 23.2918 12.2472 21.4921 12.2472Z" fill="white"/>
</svg>
