<svg width="161" height="27" viewBox="0 0 161 27" fill="none" xmlns="http://www.w3.org/2000/svg">
	<path d="M87.9304 26.8164C87.8584 26.6551 87.8714 26.4991 87.9489 26.3419C88.3054 25.6188 88.6586 24.8937 89.0149 24.1706C89.24 23.714 89.4769 23.2628 89.694 22.8024C89.9466 22.2667 90.2225 21.7427 90.4784 21.2089C90.8226 20.4917 91.1758 19.7791 91.5286 19.0663C92.0051 18.1036 92.4764 17.1383 92.949 16.1738C93.2469 15.5657 93.5572 14.9634 93.847 14.352C94.0762 13.8686 94.3289 13.3974 94.554 12.9128C94.8648 12.2433 95.2094 11.5907 95.5295 10.9259C95.764 10.4389 96.0257 9.96422 96.2447 9.471C96.5269 8.83605 96.8655 8.22996 97.1471 7.59501C97.3633 7.10752 97.6189 6.63744 97.8592 6.16083C97.9471 5.98647 98.1 5.91313 98.2877 5.90404C98.3597 5.90048 98.4319 5.90325 98.5041 5.90325C99.3109 5.90325 100.117 5.90305 100.924 5.90344C101.002 5.90344 101.081 5.91432 101.158 5.91629C101.359 5.92124 101.458 6.0436 101.537 6.20353C102.009 7.15971 102.483 8.1153 102.955 9.07129C103.213 9.59218 103.472 10.1121 103.725 10.6353C103.974 11.1495 104.261 11.6455 104.502 12.1632C104.635 12.4491 104.775 12.731 104.916 13.0129C105.177 13.5367 105.43 14.0651 105.696 14.5868C105.979 15.1421 106.232 15.713 106.507 16.2726C106.757 16.7819 107.024 17.2828 107.276 17.7916C107.485 18.2141 107.678 18.6442 107.885 19.068C108.074 19.4557 108.27 19.8396 108.465 20.2245C108.55 20.3931 108.649 20.5554 108.723 20.7288C108.844 21.0128 108.681 21.2491 108.395 21.3163C108.339 21.3295 108.278 21.3212 108.219 21.3212C107.268 21.3214 106.317 21.3177 105.366 21.325C105.189 21.3264 105.058 21.2692 104.928 21.1544C104.854 21.0882 104.818 20.9976 104.795 20.9257C104.713 20.662 104.567 20.4317 104.453 20.1853C104.236 19.7182 104.007 19.2568 103.789 18.7903C103.739 18.6824 103.673 18.6205 103.552 18.6239C103.506 18.625 103.46 18.6244 103.415 18.6244C101.631 18.6244 99.8469 18.6241 98.063 18.6252C97.8448 18.6254 97.6715 18.5651 97.5752 18.3451C97.5308 18.2433 97.5357 18.1569 97.5804 18.063C97.6587 17.8986 97.7356 17.7333 97.8119 17.568C97.9566 17.2551 98.0923 16.9376 98.2468 16.6296C98.4518 16.221 98.6348 15.802 98.8416 15.3949C98.8969 15.286 98.9892 15.1949 99.1428 15.1804C99.2796 15.1678 99.4155 15.153 99.5529 15.153C100.281 15.153 101.009 15.1532 101.737 15.1528C101.789 15.1528 101.843 15.1577 101.893 15.1464C101.946 15.1348 101.992 15.1128 101.951 15.0369C101.724 14.617 101.544 14.1744 101.338 13.7445C101.118 13.2867 100.895 12.8302 100.674 12.373C100.514 12.0413 100.341 11.7157 100.177 11.3857C100.117 11.2634 100.061 11.1382 100.01 11.0113C99.9509 10.8635 99.8152 10.8178 99.6877 10.7844C99.5619 10.7516 99.4714 10.8518 99.3894 10.9376C99.2747 11.0574 99.2314 11.2187 99.1592 11.3616C98.9435 11.7892 98.7428 12.2243 98.5321 12.6545C98.297 13.1344 98.0636 13.6154 97.8332 14.0977C97.5929 14.6008 97.3442 15.0998 97.1071 15.6039C96.8702 16.1074 96.6054 16.5968 96.3768 17.1035C96.1507 17.6044 95.8939 18.0899 95.6667 18.5897C95.4414 19.0852 95.1873 19.566 94.9522 20.0565C94.6708 20.6432 94.3912 21.2309 94.1091 21.8174C93.9115 22.228 93.7103 22.637 93.5121 23.0474C93.2632 23.5627 93.0175 24.0795 92.7676 24.594C92.5659 25.0096 92.3589 25.4225 92.1562 25.8377C92.0069 26.1437 91.8603 26.4509 91.7137 26.7583C91.7058 26.7749 91.7096 26.7972 91.708 26.8168C90.4489 26.8164 89.1897 26.8164 87.9304 26.8164Z" fill="#5B8388"/>
	<path d="M15.7593 26.7032C15.7249 26.7778 15.6572 26.7754 15.5911 26.7756C15.1527 26.777 14.7129 26.7867 14.2775 26.7355C14.0235 26.7056 13.7716 26.6876 13.517 26.6965C13.2896 26.6859 13.0588 26.7137 12.8376 26.6321C12.8081 26.6212 12.7725 26.623 12.74 26.6242C12.4183 26.6376 12.11 26.5206 11.7891 26.5277C11.5813 26.4164 11.3438 26.4609 11.1224 26.4042C10.9312 26.3551 10.7279 26.3225 10.5296 26.2875C10.3395 26.2539 10.1457 26.2274 9.96114 26.1584C9.85233 26.1177 9.73368 26.1017 9.62034 26.0762C9.11801 25.9633 8.62984 25.8034 8.14581 25.6344C7.70211 25.4794 7.26864 25.2954 6.83793 25.1026C6.08099 24.764 5.36537 24.3589 4.68536 23.8871C3.92448 23.3591 3.24703 22.7372 2.63982 22.0368C2.13985 21.4601 1.71878 20.8287 1.3589 20.1566C1.13577 19.7399 0.943731 19.3086 0.787305 18.8604C0.672199 18.5307 0.561815 18.2014 0.468353 17.8639C0.322553 17.3383 0.222991 16.8067 0.144287 16.2676C0.0966701 15.9411 0.0874223 15.6131 0.0504311 15.2871C-0.0121393 14.7356 -0.0131231 14.1829 0.028984 13.6335C0.0565307 13.2751 0.0626303 12.9138 0.129726 12.5564C0.175768 12.312 0.195248 12.0602 0.249161 11.817C0.312518 11.531 0.369776 11.2432 0.459499 10.9623C0.522463 10.7652 0.572441 10.5631 0.640914 10.3672C0.787305 9.94717 0.959275 9.53856 1.15623 9.13945C1.33627 8.77433 1.53992 8.42325 1.76403 8.08541C1.97043 7.77426 2.19986 7.47853 2.43892 7.1905C2.88518 6.65261 3.38751 6.17106 3.93333 5.73992C4.58757 5.22298 5.28686 4.77207 6.03396 4.39865C6.38282 4.22429 6.7364 4.06338 7.09687 3.91393C7.33535 3.81509 7.5754 3.71368 7.81761 3.63184C8.0189 3.56384 8.22648 3.49801 8.43072 3.43515C8.66703 3.3622 8.91338 3.32188 9.14418 3.22521C9.24197 3.18429 9.35845 3.17006 9.46234 3.15306C9.64179 3.1238 9.81238 3.05896 9.99577 3.04176C10.1681 3.02555 10.3391 2.9785 10.5123 2.95063C10.9119 2.88619 11.3099 2.82036 11.7157 2.80178C11.9171 2.79249 12.1212 2.79822 12.3211 2.75295C12.3831 2.73891 12.4512 2.75078 12.5249 2.75078C12.5206 2.83005 12.4769 2.86365 12.4142 2.90576C12.0407 3.15523 11.6702 3.41064 11.3217 3.69431C10.6799 4.21718 10.0595 4.76475 9.51153 5.38883C9.13906 5.81306 8.78529 6.25073 8.46004 6.71488C8.08029 7.25673 7.75642 7.82783 7.47898 8.42483C7.26353 8.88859 7.09156 9.37093 6.95599 9.86751C6.87492 10.165 6.80606 10.4649 6.75372 10.7664C6.69331 11.1149 6.62917 11.4658 6.63291 11.8232C6.63645 12.159 6.63448 12.4951 6.64255 12.8309C6.64924 13.1138 6.71909 13.3874 6.77654 13.663C6.8397 13.9656 6.9312 14.2578 7.03607 14.5478C7.18699 14.9655 7.38532 15.3609 7.61986 15.7341C7.92091 16.2131 8.27902 16.65 8.69064 17.0402C9.12096 17.448 9.59476 17.7957 10.1121 18.0835C10.506 18.3028 10.9178 18.486 11.3459 18.6202C11.7688 18.7529 12.2023 18.8462 12.6448 18.9051C13.2396 18.9842 13.8336 18.9804 14.4278 18.9427C14.8906 18.9132 15.3544 18.8675 15.8117 18.7914C16.1184 18.7404 16.4244 18.6701 16.7258 18.5805C16.9954 18.5005 16.9832 18.5192 16.9727 18.7701C16.9562 19.1698 16.8002 19.5219 16.6028 19.8605C16.2546 20.4583 15.7526 20.9179 15.2517 21.3771C14.8581 21.7379 14.4257 22.054 14.0396 22.4236C13.688 22.7605 13.3246 23.0863 13.0832 23.5222C12.9057 23.8426 12.8526 24.182 12.8947 24.5394C12.9067 24.6412 12.9767 24.732 12.9684 24.8409C12.9594 24.9053 12.9385 24.9753 13.0351 24.9931C13.0411 25.02 13.0472 25.0469 13.0531 25.0738C13.0952 25.2123 13.1508 25.3418 13.2803 25.4231L13.2829 25.4347C13.2711 25.493 13.3075 25.5039 13.3527 25.5059C13.3582 25.5197 13.3635 25.5336 13.3689 25.5474C13.4179 25.6399 13.4775 25.7202 13.5888 25.7415L13.5963 25.7544C13.7112 25.943 13.8999 26.027 14.092 26.1059C14.092 26.1059 14.1077 26.1169 14.1075 26.1167C14.1388 26.159 14.1758 26.1956 14.2248 26.2166C14.467 26.3203 14.7037 26.4425 14.9544 26.518C15.072 26.5534 15.1836 26.654 15.3231 26.6068C15.3522 26.6103 15.3815 26.6139 15.4107 26.6175C15.452 26.7013 15.5216 26.7064 15.6005 26.6859C15.6535 26.6926 15.7064 26.6979 15.7593 26.7032Z" fill="white"/>
	<path d="M12.4204 0.0238925C12.5652 -0.0152484 12.7057 0.00511279 12.845 0.00669424C12.884 0.0070896 12.9231 0.0213227 12.9619 0.0201366C13.4729 0.00451974 13.9823 0.0567077 14.4895 0.091895C14.9033 0.120559 15.3256 0.11621 15.7339 0.220783C15.7714 0.23047 15.8122 0.232842 15.8511 0.230865C16.1353 0.216237 16.4088 0.298867 16.6868 0.333659C16.9809 0.370428 17.2767 0.424 17.5669 0.488839C17.8335 0.548341 18.108 0.574633 18.3675 0.655089C18.6074 0.72922 18.8545 0.77271 19.0926 0.857713C19.2787 0.924134 19.4761 0.964263 19.665 1.03068C19.9253 1.12241 20.1974 1.18428 20.4508 1.29123C20.747 1.41636 21.0502 1.5235 21.342 1.66129C21.7018 1.8311 22.0582 2.00585 22.4088 2.19404C23.1201 2.57576 23.7743 3.0417 24.3975 3.55251C24.8115 3.89193 25.1837 4.278 25.5424 4.67395C25.7203 4.87045 25.8842 5.08315 26.0416 5.29981C26.2254 5.55285 26.4047 5.80805 26.5717 6.07215C26.7746 6.39299 26.9587 6.7251 27.1209 7.06886C27.224 7.2875 27.3322 7.50554 27.4129 7.73268C27.4979 7.97207 27.6145 8.20375 27.6689 8.44927C27.7216 8.68728 27.8396 8.90849 27.8442 9.15737C27.966 9.30187 27.8709 9.50845 27.9862 9.6579C28.0098 9.68854 28.0041 9.74784 28.0002 9.79292C27.9923 9.88128 28.0039 9.96272 28.0512 10.0392C28.0645 10.0608 28.0767 10.089 28.0746 10.113C28.0484 10.3978 28.193 10.6651 28.1578 10.9513C28.1499 11.0152 28.1568 11.0848 28.1739 11.147C28.2216 11.32 28.2369 11.4953 28.2399 11.6737C28.2493 12.2533 28.2515 12.8329 28.234 13.4125C28.233 13.4449 28.2271 13.4777 28.2202 13.5095C28.1812 13.6888 28.1423 13.8667 28.16 14.0541C28.1698 14.1577 28.1604 14.2653 28.1137 14.3637C28.0846 14.425 28.0787 14.4894 28.0821 14.5562C28.0872 14.6622 28.0852 14.767 28.0244 14.8611C27.9984 14.9012 27.9912 14.9492 27.9967 14.9945C28.0094 15.0969 27.9911 15.1902 27.9366 15.2778C27.9268 15.2936 27.9227 15.3155 27.9221 15.3347C27.9144 15.5957 27.8121 15.8366 27.745 16.0818C27.6736 16.3429 27.5604 16.5969 27.4664 16.8531C27.3279 17.2299 27.1356 17.578 26.9668 17.9384C26.897 18.0876 26.8057 18.2272 26.7163 18.3675C26.5985 18.5528 26.4883 18.7425 26.3539 18.9169C26.2305 19.0766 26.1103 19.2387 25.9883 19.3996C25.9724 19.4206 25.9521 19.4382 25.9373 19.4595C25.6587 19.865 25.3032 20.2022 24.9478 20.5337C24.6192 20.8401 24.2651 21.1218 23.8979 21.3832C23.4654 21.6912 23.017 21.9756 22.5525 22.231C22.2081 22.4202 21.8457 22.5764 21.4903 22.7452C21.096 22.9324 20.6824 23.071 20.2739 23.2212C19.9983 23.3226 19.7134 23.3999 19.43 23.4778C19.1227 23.5624 18.8152 23.6518 18.5021 23.7071C18.3097 23.7411 18.1129 23.769 17.9256 23.8156C17.6456 23.8854 17.3534 23.8564 17.0787 23.9505C17.013 23.973 16.9357 23.9625 16.8637 23.9637C16.615 23.9677 16.369 23.9961 16.1231 24.0315C16.0329 24.0446 15.9399 24.0372 15.8482 24.0378C15.8161 24.038 15.776 24.0412 15.7655 24.0027C15.7539 23.9596 15.7838 23.9299 15.8175 23.9064C15.881 23.8621 15.9452 23.8186 16.0081 23.7735C16.4798 23.4353 16.9369 23.0795 17.3825 22.7059C17.8058 22.351 18.1887 21.9576 18.5753 21.5664C18.8976 21.2405 19.1876 20.887 19.4715 20.5262C19.8047 20.1032 20.1014 19.6558 20.3708 19.1933C20.5964 18.8058 20.792 18.3984 20.953 17.9755C21.0478 17.7265 21.1621 17.4811 21.2253 17.2248C21.2916 16.9555 21.4014 16.6993 21.4354 16.4172C21.4551 16.2547 21.4988 16.0867 21.5285 15.9208C21.5509 15.7951 21.6161 15.6712 21.5557 15.5364C21.5372 15.4952 21.5645 15.4472 21.5749 15.4021C21.668 15.0018 21.6713 14.5944 21.6556 14.1872C21.6503 14.0512 21.6113 13.9166 21.5907 13.7807C21.5791 13.7044 21.5482 13.6303 21.5781 13.5485C21.5901 13.5155 21.5797 13.4692 21.5675 13.433C21.4947 13.2183 21.4795 12.9894 21.415 12.7751C21.3727 12.635 21.3144 12.4923 21.2692 12.3543C21.1975 12.1358 21.0917 11.9376 21.0014 11.7302C20.851 11.3846 20.6612 11.0642 20.4408 10.7572C20.1939 10.4132 19.929 10.089 19.625 9.79469C19.2575 9.43867 18.8508 9.13483 18.4208 8.86203C18.0675 8.63766 17.6889 8.45817 17.3026 8.30101C17.1088 8.22214 16.9032 8.16343 16.7006 8.10294C16.553 8.05905 16.3908 8.06241 16.2551 7.9778C16.2445 7.97108 16.2299 7.96673 16.2175 7.96733C15.9741 7.97919 15.7486 7.87007 15.5044 7.86849C15.1782 7.86631 14.8561 7.78032 14.5269 7.80523C14.0576 7.84061 13.5862 7.85326 13.1187 7.89636C12.7783 7.92779 12.434 7.97425 12.0995 8.05154C11.8696 8.10472 11.6318 8.14227 11.4147 8.24448C11.3366 8.28124 11.3016 8.24428 11.2874 8.17806C11.2766 8.12745 11.2664 8.06854 11.2817 8.02189C11.3571 7.79396 11.3762 7.55338 11.4714 7.32743C11.7264 6.72253 12.1408 6.2392 12.6053 5.79817C12.9009 5.51746 13.2102 5.24921 13.5264 4.99005C14.0356 4.57274 14.5277 4.13448 14.9606 3.63514C15.2083 3.34949 15.3494 3.00987 15.4159 2.63942C15.4308 2.55659 15.4324 2.4704 15.399 2.38638C15.3773 2.33222 15.3634 2.27252 15.3586 2.2144C15.3291 1.8481 15.1625 1.54742 14.9212 1.28293C14.547 0.872341 14.0899 0.591436 13.5722 0.396522C13.2063 0.258738 12.8373 0.136966 12.4542 0.0588821C12.4448 0.0569053 12.4375 0.0418815 12.4204 0.0238925Z" fill="#5B8388"/>
	<path d="M51.7076 13.5955C51.7076 11.2037 51.7078 8.81178 51.707 6.42003C51.707 6.25082 51.7328 6.09148 51.8812 5.98908C51.9803 5.92049 52.0907 5.87384 52.2192 5.87502C52.6718 5.87898 53.1243 5.8768 53.5769 5.8768C56.1609 5.8768 58.745 5.87225 61.3289 5.88313C61.5971 5.88431 61.8716 5.92187 62.1386 5.96101C62.4526 6.00707 62.7668 6.08654 63.0655 6.19467C63.6867 6.41944 64.2567 6.74186 64.748 7.19237C65.0949 7.51044 65.3993 7.86429 65.646 8.26717C65.8877 8.66154 66.0775 9.07648 66.2096 9.52284C66.4294 10.2657 66.4758 11.0229 66.4126 11.7865C66.3837 12.1366 66.3125 12.4843 66.2143 12.8267C66.0411 13.43 65.7692 13.978 65.3993 14.4819C65.0436 14.9664 64.6099 15.3628 64.1011 15.6777C63.9645 15.7621 63.8286 15.9979 63.9492 16.1881C64.0401 16.3312 64.1288 16.4759 64.2231 16.617C64.6975 17.3269 65.1722 18.0366 65.6492 18.7449C65.975 19.2286 66.305 19.7094 66.6326 20.1919C66.7406 20.3511 66.8609 20.5039 66.9502 20.6731C67.0647 20.8893 67.022 21.2962 66.6434 21.3213C66.5716 21.326 66.4994 21.3276 66.4272 21.3276C65.4892 21.328 64.5515 21.3229 63.6137 21.3312C63.3481 21.3335 63.1775 21.2509 63.0301 21.008C62.8127 20.65 62.5726 20.3036 62.3424 19.9523C61.9103 19.2927 61.4843 18.629 61.0524 17.969C60.7713 17.5392 60.4797 17.1164 60.2028 16.6839C60.1147 16.5461 60.0013 16.4905 59.849 16.4901C59.5081 16.4895 59.1669 16.4899 58.8259 16.4897C58.2488 16.4897 57.6715 16.4864 57.0944 16.4917C56.95 16.4931 56.8417 16.435 56.7485 16.3375C56.689 16.2756 56.6509 16.2053 56.653 16.1094C56.6584 15.8724 56.6501 15.6352 56.6499 15.3979C56.6495 14.7984 56.6524 14.1988 56.6495 13.599C56.6487 13.4409 56.7075 13.3256 56.835 13.2327C56.8809 13.1993 56.9224 13.1798 56.9745 13.177C57.0531 13.1726 57.1318 13.1683 57.2103 13.1683C58.3383 13.1677 59.4665 13.1758 60.5944 13.162C60.8454 13.1588 61.0983 13.1108 61.3474 13.0388C61.7031 12.936 61.9857 12.7441 62.22 12.4659C62.368 12.2904 62.4434 12.0828 62.5154 11.8668C62.6126 11.5754 62.6015 11.2777 62.5746 10.9883C62.514 10.3393 62.2021 9.84724 61.5916 9.56969C61.3438 9.45701 61.0839 9.41669 60.8181 9.38229C60.5241 9.34414 60.2304 9.3475 59.9358 9.3473C58.7029 9.34691 57.4698 9.3471 56.2369 9.3471C56.1714 9.3471 56.1047 9.34018 56.0403 9.34908C55.7174 9.39376 55.5809 9.5011 55.5707 9.83399C55.5689 9.8933 55.5703 9.9526 55.5703 10.0119C55.5703 13.5897 55.5703 17.1678 55.5701 20.7456C55.5701 20.8247 55.5716 20.9042 55.5634 20.9825C55.5437 21.1657 55.4199 21.2926 55.2387 21.3169C55.1675 21.3264 55.0949 21.3276 55.0229 21.3278C54.1178 21.3284 53.2127 21.3282 52.3075 21.3282C52.2814 21.3282 52.255 21.3286 52.2288 21.328C51.8707 21.3207 51.7074 21.1536 51.7074 20.7913C51.7074 18.3924 51.7076 15.994 51.7076 13.5955Z" fill="white"/>
	<path d="M84.2356 21.3263C83.7109 21.3265 83.1863 21.3237 82.6617 21.3275C82.3595 21.3297 82.2678 21.286 82.1118 20.9418C81.9593 20.6056 81.806 20.2693 81.6612 19.9295C81.5278 19.6166 81.3917 19.3052 81.2492 18.9962C81.0914 18.6538 80.9513 18.3034 80.798 17.9588C80.6148 17.5474 80.4391 17.1325 80.2508 16.7239C80.046 16.2797 79.8504 15.831 79.6531 15.384C79.4805 14.9928 79.3054 14.6016 79.1417 14.2058C78.907 13.6383 78.6386 13.0848 78.3889 12.5235C78.2069 12.1145 78.0426 11.6974 77.8507 11.2932C77.6432 10.8555 77.4645 10.4054 77.254 9.96891C77.0698 9.58738 76.9197 9.18925 76.7481 8.8012C76.5472 8.34693 76.3384 7.89622 76.1354 7.44294C75.9965 7.13277 75.8503 6.82538 75.7275 6.50869C75.6142 6.21632 75.7377 5.886 76.1495 5.87987C77.1396 5.86524 78.1301 5.87572 79.1204 5.87473C79.3141 5.87453 79.4589 5.97693 79.5403 6.13112C79.6924 6.41914 79.8138 6.72337 79.9508 7.0195C80.0948 7.33085 80.2426 7.64042 80.3882 7.95117C80.5664 8.33151 80.7445 8.71185 80.922 9.09239C81.0603 9.38911 81.1955 9.68741 81.3356 9.98334C81.4548 10.235 81.5821 10.4827 81.7004 10.7347C81.8533 11.0605 81.9995 11.3894 82.1508 11.7158C82.5181 12.5081 82.8865 13.2998 83.255 14.0916C83.4657 14.5442 83.6745 14.9977 83.8903 15.4478C83.9566 15.586 84.0629 15.671 84.2329 15.6768C84.4058 15.6827 84.5148 15.5922 84.5825 15.4613C84.7697 15.0999 84.943 14.7315 85.1307 14.3699C85.3438 13.9595 85.5435 13.5422 85.7497 13.1281C86.0034 12.6188 86.2556 12.109 86.5122 11.6014C86.6853 11.2588 86.874 10.9241 87.0395 10.578C87.2782 10.0784 87.5261 9.58363 87.7738 9.08863C88.029 8.57881 88.2809 8.06741 88.537 7.55799C88.736 7.16203 88.9418 6.76963 89.1399 6.37328C89.3666 5.92 89.5868 5.46315 89.8122 5.00928C90.0403 4.55066 90.2709 4.09322 90.5015 3.63579C90.8171 3.00953 91.1359 2.38486 91.4487 1.75742C91.5317 1.59077 91.6045 1.41958 91.7004 1.25887C91.7889 1.11041 91.9005 1.03272 92.0837 1.0339C93.0936 1.04023 94.1038 1.04853 95.1136 1.03173C95.5783 1.02402 95.6842 1.41325 95.5333 1.71927C95.3517 2.08774 95.1829 2.46195 95.0028 2.83103C94.8273 3.19081 94.6557 3.55256 94.4822 3.91333C94.2988 4.29466 94.1182 4.67737 93.9415 5.06186C93.7532 5.47166 93.5273 5.86425 93.3479 6.2776C93.184 6.65517 93.0031 7.02444 92.8276 7.39569C92.6102 7.85589 92.3904 8.3155 92.1663 8.77274C91.9853 9.14201 91.8117 9.51503 91.6362 9.88687C91.5247 10.1233 91.417 10.3617 91.3045 10.5975C91.1178 10.9889 90.9295 11.3796 90.7457 11.7726C90.5635 12.1626 90.372 12.549 90.1857 12.9377C89.912 13.5084 89.644 14.0821 89.3697 14.6524C89.1746 15.058 88.9709 15.4613 88.7816 15.8693C88.5849 16.2933 88.3779 16.7128 88.1864 17.1396C87.9436 17.6811 87.6636 18.2055 87.4082 18.7416C87.154 19.2756 86.9144 19.8164 86.6605 20.3503C86.5541 20.5743 86.4404 20.7945 86.3373 21.0205C86.2465 21.2194 86.0939 21.336 85.8483 21.3299C85.3115 21.3168 84.7734 21.3261 84.2356 21.3263Z" fill="white"/>
	<path d="M34.4211 13.5945C34.4211 11.1965 34.4209 8.79859 34.4223 6.40052C34.4223 6.30425 34.4056 6.206 34.4634 6.11349C34.5596 5.95969 34.7037 5.89544 34.8727 5.87488C34.9372 5.86698 35.0037 5.8739 35.0692 5.8739C38.0528 5.8739 41.0364 5.86836 44.02 5.88279C44.2933 5.88417 44.5782 5.90869 44.8497 5.95969C45.2322 6.03145 45.62 6.11269 45.9766 6.27143C46.5245 6.51537 47.041 6.81486 47.4838 7.23434C47.858 7.58878 48.1813 7.97742 48.4392 8.42498C48.6856 8.85256 48.8587 9.30565 48.978 9.78443C49.1438 10.451 49.1669 11.1287 49.1066 11.8037C49.0293 12.6722 48.7751 13.4866 48.28 14.2224C47.8253 14.8983 47.248 15.4259 46.5493 15.8299C46.1814 16.0426 45.7877 16.1984 45.3798 16.3006C44.9493 16.4083 44.5099 16.4878 44.0611 16.4872C42.6578 16.4856 41.2547 16.4844 39.8514 16.489C39.6457 16.4896 39.5035 16.4155 39.4088 16.2336C39.3791 16.1767 39.3787 16.1201 39.3785 16.062C39.3777 15.2385 39.3764 14.4151 39.3789 13.5916C39.3797 13.338 39.5336 13.1782 39.7837 13.1685C39.9735 13.1612 40.1638 13.1654 40.3541 13.1654C41.3312 13.1652 42.3081 13.1709 43.285 13.1616C43.5397 13.1592 43.7901 13.1025 44.04 13.0339C44.4631 12.9177 44.7795 12.6771 45.012 12.3126C45.1297 12.1281 45.196 11.9265 45.2365 11.7102C45.2967 11.3882 45.292 11.0688 45.2285 10.7515C45.145 10.3348 44.9377 9.98804 44.5876 9.74213C44.2958 9.53713 43.9684 9.429 43.6111 9.39322C43.298 9.36179 42.986 9.34242 42.6713 9.34321C41.3861 9.34637 40.1008 9.34439 38.8156 9.34439C38.7503 9.34439 38.6844 9.33846 38.6204 9.35961C38.3892 9.43671 38.2895 9.51499 38.2706 9.83207C38.2674 9.88466 38.2702 9.93744 38.2702 9.99022C38.2702 13.5675 38.2702 17.1447 38.2702 20.722C38.2702 20.768 38.2655 20.8147 38.271 20.8601C38.3026 21.1264 38.1006 21.3294 37.8147 21.3265C37.4082 21.3221 37.0016 21.3255 36.5951 21.3255C36.0444 21.3255 35.4935 21.3269 34.9427 21.3247C34.8402 21.3243 34.7373 21.331 34.6399 21.2731C34.476 21.1752 34.4184 21.0376 34.4189 20.8481C34.4233 19.1682 34.4215 17.4883 34.4215 15.8084C34.4211 15.0702 34.4211 14.3325 34.4211 13.5945Z" fill="white"/>
	<path d="M131.053 15.6025C130.667 16.0052 130.284 16.4045 129.902 16.8046C129.708 17.0086 129.522 17.2219 129.318 17.4172C129.159 17.5702 129.11 17.7517 129.11 17.9613C129.112 18.831 129.111 19.7008 129.111 20.5706C129.111 20.676 129.105 20.7818 129.112 20.8869C129.127 21.136 128.956 21.3327 128.676 21.3268C128.63 21.3258 128.584 21.3276 128.538 21.3276C127.653 21.3276 126.768 21.3276 125.882 21.3276C125.83 21.3276 125.777 21.3286 125.725 21.3268C125.416 21.3159 125.249 21.1435 125.249 20.8318C125.249 16.0151 125.249 11.1982 125.249 6.38146C125.249 6.07189 125.445 5.87698 125.758 5.87659C126.709 5.8756 127.66 5.87342 128.611 5.87797C128.924 5.87935 129.119 6.07526 129.117 6.37415C129.105 8.11355 129.111 9.85334 129.111 11.5927C129.111 11.6845 129.114 11.7732 129.147 11.8638C129.254 12.1593 129.531 12.2332 129.758 12.0215C130.057 11.7424 130.346 11.4522 130.64 11.1681C131.412 10.4239 132.16 9.65566 132.933 8.91297C133.801 8.07856 134.658 7.23209 135.512 6.38324C135.621 6.27432 135.735 6.16935 135.843 6.05905C135.965 5.9351 136.115 5.87441 136.294 5.875C137.271 5.87777 138.248 5.87698 139.225 5.8756C139.394 5.8754 139.54 5.93016 139.641 6.06201C139.779 6.23992 139.754 6.45737 139.59 6.63529C139.462 6.77426 139.33 6.90987 139.199 7.04646C138.651 7.61796 138.102 8.18808 137.556 8.76115C136.921 9.42793 136.288 10.0975 135.653 10.7651C135.063 11.385 134.473 12.0039 133.883 12.6235C133.776 12.7355 133.671 12.8492 133.563 12.9597C133.502 13.0226 133.507 13.0714 133.564 13.1412C133.991 13.6623 134.413 14.1871 134.837 14.711C135.149 15.0976 135.461 15.4851 135.773 15.8718C136.034 16.1932 136.294 16.5142 136.556 16.8347C136.862 17.2101 137.169 17.5839 137.475 17.9595C137.948 18.5409 138.421 19.1228 138.893 19.7052C139.123 19.9893 139.349 20.2765 139.582 20.5586C139.628 20.6151 139.667 20.6758 139.7 20.7387C139.823 20.9757 139.657 21.287 139.392 21.3183C139.32 21.3268 139.248 21.3272 139.176 21.3272C138.238 21.3278 137.3 21.3228 136.362 21.3307C136.124 21.3327 135.946 21.2689 135.786 21.0779C135.366 20.5732 134.919 20.0903 134.494 19.5888C134.01 19.0181 133.525 18.4497 133.031 17.8877C132.565 17.3569 132.114 16.8135 131.655 16.276C131.496 16.0892 131.333 15.9056 131.177 15.7162C131.139 15.6709 131.095 15.6389 131.053 15.6025Z" fill="white"/>
	<path d="M153.255 15.0846C152.971 14.535 152.685 13.9867 152.404 13.4355C152.15 12.9374 151.903 12.4354 151.651 11.9363C151.493 11.6234 151.331 11.3124 151.171 11.0003C151.096 10.854 150.994 10.7542 150.815 10.7629C150.638 10.7714 150.535 10.8759 150.462 11.0202C150.221 11.4935 149.982 11.9681 149.741 12.4414C149.367 13.1766 148.99 13.9105 148.615 14.6453C148.222 15.4157 147.829 16.1861 147.438 16.9572C147.051 17.7193 146.669 18.4839 146.28 19.2442C145.978 19.8325 145.666 20.4153 145.362 21.0026C145.333 21.0591 145.319 21.1212 145.276 21.174C145.211 21.254 145.137 21.3088 145.032 21.3143C144.967 21.3179 144.901 21.3246 144.836 21.3248C143.885 21.3254 142.934 21.3252 141.983 21.3254C141.851 21.3254 141.722 21.321 141.614 21.2271C141.49 21.12 141.438 20.8296 141.523 20.6679C141.711 20.3067 141.9 19.9458 142.089 19.5854C142.371 19.0522 142.646 18.5157 142.923 17.9808C143.197 17.4528 143.462 16.9191 143.732 16.3885C144.128 15.6112 144.529 14.8365 144.928 14.0608C145.203 13.5259 145.485 12.9947 145.749 12.4536C145.906 12.1308 146.078 11.8155 146.244 11.4971C146.399 11.1993 146.552 10.8999 146.702 10.5996C146.923 10.1589 147.166 9.72958 147.389 9.28974C147.554 8.96396 147.722 8.64055 147.892 8.31754C148.067 7.98405 148.225 7.64108 148.397 7.30581C148.598 6.91638 148.815 6.53564 149.006 6.14186C149.104 5.94023 149.267 5.87934 149.457 5.87717C150.119 5.86926 150.781 5.8742 151.444 5.8742C151.654 5.8742 151.865 5.88903 152.073 5.87084C152.42 5.84059 152.635 5.99933 152.769 6.30574C152.969 6.76535 153.219 7.20005 153.441 7.64898C153.723 8.2193 154.017 8.78348 154.31 9.34825C154.557 9.82546 154.787 10.312 155.042 10.7842C155.328 11.315 155.594 11.8562 155.871 12.3916C156.177 12.9828 156.48 13.5755 156.783 14.1683C156.988 14.571 157.197 14.9721 157.401 15.3758C157.697 15.9641 158 16.5496 158.297 17.1375C158.649 17.8341 158.997 18.5327 159.358 19.2244C159.58 19.65 159.798 20.0778 160.018 20.504C160.047 20.5606 160.06 20.6123 160.06 20.6707C160.062 20.809 160.063 20.9474 160.061 21.0858C160.058 21.2125 160.01 21.2793 159.887 21.3044C159.804 21.3214 159.718 21.324 159.633 21.3242C158.702 21.3254 157.77 21.3149 156.839 21.3307C156.527 21.3361 156.343 21.2125 156.218 20.9405C155.98 20.424 155.715 19.9209 155.447 19.4193C155.329 19.1983 155.221 18.9704 155.116 18.7423C155.079 18.6604 155.035 18.6318 154.958 18.6282C154.906 18.6258 154.854 18.627 154.801 18.627C152.873 18.627 150.945 18.6266 149.017 18.6278C148.904 18.6278 148.795 18.6235 148.692 18.5717C148.497 18.4736 148.41 18.2074 148.497 18.0261C148.813 17.371 149.116 16.7095 149.427 16.0516C149.52 15.8543 149.634 15.6664 149.717 15.4649C149.821 15.2111 150.027 15.131 150.264 15.1275C150.939 15.1176 151.615 15.1239 152.29 15.1239C152.553 15.1239 152.815 15.1249 153.077 15.1231C153.133 15.1231 153.194 15.1395 153.255 15.0846Z" fill="white"/>
	<path d="M114.887 5.87398C117.136 5.87398 119.386 5.87556 121.635 5.8722C122.003 5.87161 122.203 6.13117 122.198 6.42413C122.186 7.2279 122.194 8.03187 122.194 8.83564C122.195 9.01376 122.153 9.16696 121.995 9.27628C121.943 9.31206 121.894 9.33439 121.835 9.33855C121.77 9.34329 121.704 9.34388 121.639 9.34388C120.209 9.34408 118.779 9.34428 117.349 9.34369C117.19 9.34369 117.04 9.36681 116.919 9.4876C116.87 9.53682 116.838 9.58703 116.837 9.6582C116.835 9.75684 116.825 9.85548 116.825 9.95413C116.825 13.5584 116.825 17.1626 116.825 20.7669C116.825 20.8729 116.82 20.9743 116.774 21.0745C116.711 21.2117 116.608 21.2892 116.465 21.3129C116.394 21.3246 116.321 21.3248 116.249 21.3248C115.331 21.3253 114.413 21.3261 113.495 21.3238C113.379 21.3236 113.26 21.3394 113.154 21.2645C113.015 21.1662 112.958 21.0265 112.939 20.8661C112.931 20.8011 112.937 20.7345 112.937 20.6687C112.937 17.0578 112.937 13.447 112.937 9.83611C112.937 9.73213 112.95 9.62696 112.888 9.5297C112.804 9.39844 112.667 9.37571 112.534 9.34981C112.471 9.33756 112.403 9.34428 112.338 9.34428C110.934 9.34408 109.531 9.34428 108.127 9.34408C108.068 9.34408 108.009 9.34586 107.95 9.3423C107.754 9.33005 107.608 9.19444 107.581 8.99873C107.575 8.95326 107.576 8.90681 107.576 8.86075C107.576 8.03049 107.576 7.20023 107.575 6.36997C107.575 6.2563 107.579 6.1452 107.657 6.05427C107.753 5.94376 107.879 5.8896 108.021 5.87497C108.099 5.86687 108.178 5.87398 108.257 5.87398C110.466 5.87398 112.677 5.87398 114.887 5.87398Z" fill="white"/>
	<path d="M69.3096 13.6081C69.3096 11.2165 69.3092 8.82515 69.3108 6.4336C69.3108 6.32448 69.2935 6.21398 69.3612 6.1098C69.4688 5.94375 69.6187 5.87476 69.8094 5.87476C70.734 5.87515 71.6586 5.87515 72.5831 5.87476C72.6917 5.87476 72.7937 5.87871 72.8985 5.93208C73.0412 6.00463 73.138 6.09596 73.1496 6.26063C73.1537 6.31974 73.1537 6.37904 73.1537 6.43835C73.1539 11.2212 73.1539 16.0042 73.1533 20.7873C73.1533 20.8918 73.1695 21.0002 73.1148 21.097C73.044 21.2224 72.9477 21.3143 72.7939 21.3206C72.735 21.323 72.676 21.3261 72.617 21.3261C71.6989 21.3265 70.781 21.3263 69.8629 21.3261C69.8432 21.3261 69.8234 21.3246 69.8039 21.3263C69.4649 21.3576 69.3035 21.1077 69.3047 20.822C69.3135 18.4174 69.3096 16.0129 69.3096 13.6081Z" fill="white"/>
	<path d="M15.325 26.6076C15.1853 26.6548 15.0739 26.5544 14.9562 26.5188C14.7056 26.4433 14.4689 26.3212 14.2266 26.2174C14.1778 26.1964 14.1407 26.1599 14.1094 26.1176C14.2817 26.1294 14.4132 26.2447 14.5657 26.3061C14.7801 26.3927 14.9956 26.4726 15.2171 26.5368C15.2608 26.5497 15.3067 26.557 15.325 26.6076Z" fill="#5B8388"/>
	<path d="M14.0894 26.1051C13.8972 26.0263 13.7087 25.9423 13.5938 25.7539C13.7761 25.8467 13.9363 25.9708 14.0894 26.1051Z" fill="#5B8388"/>
	<path d="M13.2819 25.4237C13.1525 25.3426 13.0968 25.2132 13.0547 25.0747C13.0675 25.0763 13.0901 25.0749 13.0917 25.0798C13.1306 25.2082 13.2615 25.2855 13.2819 25.4237Z" fill="#5B8388"/>
	<path d="M13.5872 25.7408C13.4758 25.7195 13.4162 25.6391 13.3672 25.5469C13.4723 25.5753 13.5193 25.6701 13.5872 25.7408Z" fill="#5B8388"/>
	<path d="M15.6008 26.688C15.5221 26.7085 15.4524 26.7032 15.4109 26.6196C15.489 26.6011 15.5612 26.5993 15.6008 26.688Z" fill="#5B8388"/>
	<path d="M13.0358 24.9958C12.9391 24.9781 12.96 24.9081 12.969 24.8438C13.0426 24.8718 13.0631 24.9232 13.0358 24.9958Z" fill="#5B8388"/>
	<path d="M13.3544 25.5096C13.3085 25.5076 13.2716 25.4968 13.2835 25.4375C13.3135 25.4555 13.3572 25.4595 13.3544 25.5096Z" fill="#5B8388"/>
	</svg>
	